<svg width="13" height="13" viewBox="0 0 13 13" fill="none" xmlns="http://www.w3.org/2000/svg">
<path fill-rule="evenodd" clip-rule="evenodd" d="M12.5266 4.206C12.9852 4.23577 13.1694 4.82816 12.8125 5.12525L10.0959 7.38629C10.0671 7.41059 10.0411 7.43781 10.0183 7.46741C9.98118 7.51552 9.95255 7.56991 9.93388 7.6283C9.91595 7.6844 9.90765 7.74284 9.90905 7.80116C9.91001 7.84089 9.91547 7.88056 9.92546 7.91941L10.7372 11.1125C10.875 11.6549 10.2981 12.0927 9.83344 11.7983L7.01822 10.0147C6.98728 9.99503 6.95439 9.97894 6.92019 9.96665C6.8669 9.94749 6.81045 9.93755 6.75328 9.93755C6.6961 9.93755 6.63965 9.94749 6.58636 9.96665C6.55217 9.97894 6.51927 9.99503 6.48833 10.0147L3.45894 11.934C3.07171 12.1794 2.59093 11.8145 2.70584 11.3625L3.5811 7.91941C3.59108 7.88056 3.59654 7.84089 3.5975 7.80116C3.59891 7.74283 3.59061 7.6844 3.57267 7.6283C3.55401 7.56991 3.52537 7.51552 3.4883 7.46741C3.4655 7.43781 3.4395 7.41059 3.41066 7.38629L0.694098 5.12525C0.337153 4.82816 0.521388 4.23577 0.979985 4.206L4.52764 3.97576C4.56316 3.97322 4.59815 3.96695 4.63205 3.95715C4.68933 3.94059 4.7435 3.91395 4.79191 3.8782C4.83729 3.84471 4.87651 3.80403 4.90817 3.75802C4.93029 3.72587 4.94872 3.69111 4.96298 3.65438L6.2861 0.322413C6.32207 0.227622 6.38602 0.146015 6.46946 0.0884279C6.5529 0.0308411 6.65189 0 6.75328 0C6.85466 0 6.95365 0.0308411 7.03709 0.0884279C7.12053 0.146015 7.18448 0.227622 7.22045 0.322413L8.54357 3.65438C8.55783 3.69111 8.57626 3.72587 8.59839 3.75802C8.63005 3.80403 8.66927 3.84471 8.71464 3.8782C8.76305 3.91395 8.81722 3.94059 8.8745 3.95715C8.9084 3.96695 8.94339 3.97322 8.97892 3.97576L12.5266 4.206Z" fill="#DEDEDE"/>
</svg>
