<svg width="24" height="24" viewBox="0 0 24 24" fill="none" xmlns="http://www.w3.org/2000/svg">
<path d="M22.2969 22.5938V22.8438H22.5469H23.2969C23.5472 22.8438 23.75 23.0466 23.75 23.2969C23.75 23.5472 23.5472 23.75 23.2969 23.75H0.703125C0.452829 23.75 0.25 23.5472 0.25 23.2969C0.25 23.0466 0.452829 22.8438 0.703125 22.8438H1.45312H1.70312V22.5938V14.7656C1.70312 14.5153 1.90595 14.3125 2.15625 14.3125H4.96875C5.21905 14.3125 5.42188 14.5153 5.42188 14.7656V22.5938V22.8438H5.67188H7.07812H7.32812V22.5938V17.5781C7.32812 17.3278 7.53095 17.125 7.78125 17.125H10.5938C10.844 17.125 11.0469 17.3278 11.0469 17.5781V22.5938V22.8438H11.2969H12.7031H12.9531V22.5938V11.9531C12.9531 11.7028 13.156 11.5 13.4062 11.5H16.2188C16.469 11.5 16.6719 11.7028 16.6719 11.9531V22.5938V22.8438H16.9219H18.3281H18.5781V22.5938V7.73438C18.5781 7.48408 18.781 7.28125 19.0312 7.28125H21.8438C22.094 7.28125 22.2969 7.48408 22.2969 7.73438V22.5938ZM19.7344 8.1875H19.4844V8.4375V22.5938V22.8438H19.7344H21.1406H21.3906V22.5938V8.4375V8.1875H21.1406H19.7344ZM14.1094 12.4062H13.8594V12.6562V22.5938V22.8438H14.1094H15.5156H15.7656V22.5938V12.6562V12.4062H15.5156H14.1094ZM8.48438 18.0312H8.23438V18.2812V22.5938V22.8438H8.48438H9.89062H10.1406V22.5938V18.2812V18.0312H9.89062H8.48438ZM2.85938 15.2188H2.60938V15.4688V22.5938V22.8438H2.85938H4.26562H4.51562V22.5938V15.4688V15.2188H4.26562H2.85938Z" fill="#FCFCFC" stroke="#FCFCFC" stroke-width="0.5"/>
</svg>
