<svg width="24" height="24" viewBox="0 0 24 24" fill="none" xmlns="http://www.w3.org/2000/svg">
<path d="M23.1971 3.55491L23.2113 3.54113C24.043 2.70884 24.0698 1.38211 23.271 0.583182C22.895 0.207155 22.3891 0 21.8471 0C21.2727 0 20.7278 0.228353 20.3129 0.642931L18.4873 2.59373L11.9578 0.638996L10.6045 1.99275C10.4339 2.16287 10.3401 2.38962 10.3401 2.63058C10.3401 2.87172 10.4339 3.09811 10.6045 3.26823L10.6638 3.32763L15.3801 5.92314L14.69 6.67198C13.7754 6.07967 12.7562 5.64354 11.6623 5.39452C10.9714 5.23701 10.2648 5.15731 9.56224 5.15731C9.20776 5.15731 8.85794 5.1786 8.51269 5.21671L8.47995 5.18039C8.46457 5.19417 8.44721 5.20973 8.43031 5.22556C4.51055 5.6905 1.28427 8.54514 0.386417 12.4867C-0.172794 14.9399 0.257079 17.4641 1.59643 19.5938C2.93578 21.7234 5.02477 23.204 7.47816 23.7628C8.16904 23.9203 8.87574 24 9.57825 24C13.9982 24 17.7716 20.9867 18.7543 16.672C18.9298 15.9023 19.0077 15.1254 18.9907 14.3563C19.0444 14.1592 19.0351 13.9442 18.9517 13.7101C18.8185 12.2536 18.3457 10.8384 17.5443 9.56463C17.4469 9.40989 17.3444 9.25918 17.2389 9.11195L17.9394 8.46625L20.556 13.2203L20.616 13.2801C20.7863 13.4499 21.0126 13.5435 21.253 13.5435C21.4933 13.5435 21.7191 13.45 21.8898 13.2799L23.244 11.926L21.2763 5.35195L23.1971 3.55491ZM4.86189 21.3405C3.96637 20.7173 3.19625 19.9152 2.59777 18.9636C1.53328 17.271 1.12827 15.2935 1.43015 13.3362C1.95761 13.4783 2.49017 13.6883 2.69464 13.8344C2.68695 13.8888 2.67845 13.944 2.66995 13.9991C2.59088 14.5123 2.47138 15.2875 3.10331 15.7475C3.65635 16.1498 4.16252 15.7736 4.39338 15.5791C4.48605 15.6538 4.58703 15.7281 4.69087 15.8049C4.85295 15.9244 5.13882 16.1354 5.24159 16.2637C5.20903 16.3771 5.16118 16.5111 5.1144 16.6417C4.93086 17.1543 4.74096 17.6841 5.09427 18.0564C5.2161 18.2062 5.58032 18.8949 5.67334 19.143C5.67137 19.2256 5.67745 19.3196 5.68533 19.4421C5.69364 19.5683 5.71198 19.8528 5.6932 19.9685C5.69275 19.9684 4.97549 20.8718 5.0169 21.0858L4.86189 21.3405ZM17.6008 16.4087C16.7414 20.1818 13.4425 22.8167 9.57825 22.8167C8.96385 22.8167 8.34578 22.747 7.74086 22.6091C7.00008 22.4405 6.29856 22.1734 5.64749 21.8222C6.22477 21.334 6.72441 20.5498 6.73192 20.5372C6.90697 20.2414 6.89695 19.8487 6.86582 19.3658C6.86072 19.285 6.85482 19.2156 6.85598 19.171C6.85518 19.1989 6.85008 19.2209 6.84632 19.2367C6.94114 18.8169 6.37056 17.8506 6.09606 17.4389C6.12441 17.3301 6.18479 17.1617 6.22799 17.0406C6.29955 16.8407 6.37352 16.6341 6.41788 16.438C6.58094 15.7288 5.92218 15.243 5.39302 14.8528C5.24195 14.7414 5.08586 14.6262 5.01663 14.5529C4.77844 14.3017 4.37719 14.1079 3.79186 14.5436C3.80233 14.4184 3.82424 14.2766 3.83918 14.1788C3.85886 14.0515 3.878 13.9243 3.89025 13.8018C3.95832 13.1155 3.21736 12.5707 1.69178 12.1809C2.52854 9.41168 4.71028 7.34004 7.42351 6.6184C7.30249 6.91393 7.20679 7.25561 7.16287 7.65337C7.13747 7.88307 7.10455 8.09111 7.07548 8.2743C6.95974 9.0056 6.82843 9.83449 7.87879 10.3022C8.45133 10.5579 8.85079 10.6 9.17199 10.6339C9.31376 10.6486 9.43245 10.6612 9.55571 10.6892C9.5914 10.867 9.56868 11.2324 9.55946 11.3825C9.54649 11.5921 9.53245 11.818 9.59945 12.0076C9.68603 12.4859 10.104 14.2338 11.7295 15.3612C11.5008 15.4976 11.2001 15.6372 10.9477 15.6857C10.8109 15.7119 10.6707 15.7295 10.535 15.7465C9.98003 15.816 9.21993 15.9109 8.90186 16.7875C8.76045 17.175 8.85222 17.4571 8.9541 17.6255C9.20723 18.0441 9.6998 18.1101 10.0595 18.1582C10.1174 18.1659 10.1988 18.1769 10.2477 18.1866C10.4704 18.3497 11.1652 18.8115 11.8854 18.8115C12.2109 18.8115 12.5416 18.717 12.8364 18.4583C12.9549 18.3578 13.5168 18.3643 13.7874 18.3678C14.3599 18.3745 14.9006 18.3812 15.2456 18.0324C15.415 17.8608 15.5015 17.6369 15.4956 17.3839C15.4833 16.8898 16.4292 16.3584 17.1892 15.9313C17.3726 15.8284 17.5601 15.7226 17.7423 15.6127C17.7082 15.8785 17.6612 16.1441 17.6008 16.4087ZM17.7954 14.1129C17.6238 14.3302 16.9991 14.6815 16.6096 14.9002C15.592 15.472 14.4476 16.115 14.3234 17.1779C14.1744 17.1899 13.9596 17.187 13.8017 17.1853C13.1958 17.1786 12.5108 17.1697 12.0553 17.5701C11.8584 17.743 11.259 17.4769 10.9167 17.2101C10.725 17.0605 10.496 17.024 10.2528 16.9911C10.3461 16.9674 10.4809 16.9459 10.6819 16.921C10.829 16.9025 10.9958 16.8818 11.1705 16.8483C11.7009 16.7466 13.083 16.1663 13.1982 15.3995C13.2461 15.0804 13.0921 14.7849 12.7953 14.6276C11.0346 13.6974 10.7645 11.8169 10.754 11.7398L10.7333 11.5737C10.7355 11.5347 10.7381 11.4924 10.7402 11.4561C10.7753 10.8918 10.8404 9.84129 10.0115 9.58753C9.73665 9.5039 9.50267 9.4793 9.29596 9.45757C9.00947 9.4276 8.76224 9.40158 8.36081 9.22233C8.2177 9.15864 8.18791 9.1166 8.18791 9.1166C8.15187 9.04263 8.20526 8.70587 8.24426 8.45999C8.27539 8.26356 8.31054 8.0412 8.33907 7.78369C8.41573 7.09165 8.69453 6.65704 8.96054 6.3633C9.15964 6.34908 9.36 6.34023 9.5625 6.34023C10.1767 6.34023 10.7948 6.40999 11.3997 6.54783C12.2882 6.75033 13.1204 7.0938 13.8755 7.55596L13.8164 7.62001C13.7127 7.72475 13.618 7.83575 13.5331 7.95203L11.4179 7.40444L10.4904 8.33217C10.3344 8.48771 10.2485 8.69478 10.2485 8.91517C10.2485 9.13583 10.3342 9.34326 10.4902 9.49916L10.5567 9.5658L12.9931 10.8023L13.0806 10.8899L14.3171 13.3267L14.3838 13.3932C14.5395 13.5491 14.7469 13.6351 14.9674 13.6351C15.1881 13.6351 15.3955 13.5491 15.5506 13.3936L16.4787 12.4659L15.9199 10.3073C16.0297 10.2263 16.1342 10.1364 16.2334 10.0383L16.36 9.92179C16.422 10.0114 16.4842 10.1009 16.5428 10.194C17.2972 11.3933 17.7193 12.7361 17.7954 14.1129ZM21.908 11.5881L21.3275 12.1686L18.2477 6.57234L15.4237 9.17599L15.4069 9.192C15.277 9.32152 15.1321 9.42626 14.9763 9.50292L14.545 9.71588L15.1643 12.1074L15.072 12.1997L14.0504 10.1868L13.6967 9.8327L11.684 8.81159L11.776 8.71956L14.133 9.32975L14.3435 8.89129C14.4208 8.731 14.5277 8.58172 14.6613 8.44782L17.273 5.61492L11.7146 2.5558L12.2951 1.97513L18.8504 3.93737L21.1553 1.47379C21.3462 1.28631 21.5913 1.18318 21.847 1.18318C22.0729 1.18318 22.2815 1.26717 22.4344 1.41976C22.7702 1.75554 22.7455 2.32754 22.3807 2.69856L19.9328 4.98826L21.908 11.5881Z" fill="#FCFCFC"/>
</svg>
