<svg width="17" height="23" viewBox="0 0 17 23" fill="none" xmlns="http://www.w3.org/2000/svg">
<path d="M15.9145 18.6355C15.7285 18.6355 15.5776 18.7864 15.5776 18.9724V22.1401C15.5776 22.2426 15.4942 22.3261 15.3916 22.3261H13.5805V15.6913C13.5805 15.5052 13.4296 15.3543 13.2436 15.3543C13.0575 15.3543 12.9067 15.5052 12.9067 15.6913V22.3261H9.25968L10.3173 21.1627C10.4328 21.0355 10.4873 20.8544 10.463 20.6781C10.4625 20.6747 10.462 20.6713 10.4614 20.6678L9.45414 14.7172L9.72552 14.3087C9.87556 14.4152 9.99114 14.5178 10.2079 14.5178C10.4284 14.5178 10.6345 14.3944 10.7359 14.1913V14.1912L11.7983 12.0619L14.2186 12.9992C14.3061 13.0368 15.5775 13.6094 15.5775 15.1212V17.4001C15.5775 17.5862 15.7283 17.737 15.9144 17.737C16.1005 17.737 16.2514 17.5862 16.2514 17.4001V15.1212C16.2514 13.1292 14.5457 12.4051 14.4731 12.3753C14.471 12.3744 14.4689 12.3735 14.4667 12.3727L10.4387 10.8127V9.86803C11.0784 9.37048 11.522 8.63291 11.6334 7.79143C11.9524 7.76897 12.2484 7.64984 12.4901 7.44198C12.8058 7.17052 12.9869 6.77543 12.9869 6.3582C12.9869 6.01194 12.862 5.68131 12.6393 5.42369V4.17562C12.6393 1.8732 10.7661 0 8.4637 0C6.16128 0 4.28813 1.8732 4.28813 4.17562V5.45639C4.06311 5.71141 3.94075 6.02533 3.94075 6.35815C3.94075 6.77552 4.12178 7.17056 4.43754 7.44207C4.67908 7.64984 4.97489 7.76883 5.29379 7.79134C5.40605 8.64858 5.86259 9.41365 6.55686 9.9179V10.8127L2.53316 12.3727C2.53105 12.3735 2.52894 12.3743 2.52683 12.3752C2.45419 12.405 0.748596 13.1291 0.748596 15.1212V22.14C0.748596 22.6141 1.13434 22.9999 1.60849 22.9999H4.81847C5.00454 22.9999 5.15539 22.849 5.15539 22.663C5.15539 22.4769 5.00454 22.326 4.81847 22.326H4.09357V15.6913C4.09357 15.5052 3.94272 15.3543 3.75666 15.3543C3.57059 15.3543 3.41974 15.5052 3.41974 15.6913V22.3261H1.60854C1.50598 22.3261 1.42251 22.2427 1.42251 22.1401V15.1212C1.42251 13.6042 2.70247 13.033 2.78109 12.9994L5.19941 12.0618L6.2619 14.1912C6.36356 14.3949 6.56998 14.5178 6.79001 14.5178C7.00568 14.5178 7.12014 14.4168 7.27238 14.3087L7.54375 14.7172L6.53656 20.6679C6.53597 20.6712 6.53548 20.6746 6.53498 20.678C6.51064 20.8543 6.56513 21.0355 6.68071 21.1627L7.73831 22.3262H6.39087C6.20481 22.3262 6.05396 22.477 6.05396 22.6631C6.05396 22.8492 6.20481 23 6.39087 23H15.3916C15.8658 23 16.2515 22.6142 16.2515 22.1401V18.9725C16.2515 18.7864 16.1006 18.6355 15.9145 18.6355ZM11.1672 11.8176L10.1768 13.8027C10.1521 13.7852 9.62723 13.4122 8.98556 12.9566C9.26399 12.6129 8.93826 13.0149 10.209 11.4465L11.1672 11.8176ZM9.17576 13.9183L8.9189 14.3049H8.07872L7.82186 13.9183L8.49883 13.4375L9.17576 13.9183ZM7.23064 10.9215V10.2909C7.63997 10.4559 8.07742 10.5324 8.50463 10.5324C8.94635 10.5324 9.37953 10.4383 9.76478 10.2698V10.9242L8.49883 12.4868L7.23064 10.9215ZM12.313 6.3582C12.313 6.5789 12.2174 6.78774 12.0507 6.93109C11.9405 7.02587 11.8074 7.08647 11.6616 7.11019V5.60634C12.0489 5.66923 12.313 5.99042 12.313 6.3582ZM5.26594 7.11019C4.87431 7.04663 4.61457 6.72283 4.61457 6.35815C4.61457 5.99797 4.91317 5.70481 5.26594 5.62328V7.11019ZM5.28404 4.93673C5.17673 4.94904 5.05373 4.97811 4.96204 5.00928V4.17562C4.96204 2.24475 6.53287 0.673873 8.46375 0.673873C10.3946 0.673873 11.9655 2.24475 11.9655 4.17562V4.98615C11.8675 4.95637 11.766 4.93669 11.6617 4.92744C11.6617 4.60234 11.6645 4.66505 10.601 3.52165C10.4054 3.31151 10.0819 3.26748 9.83566 3.42835C8.66186 4.19512 7.22997 4.58032 5.90882 4.48545C5.61903 4.46375 5.35507 4.65462 5.28404 4.93673ZM5.93981 7.37545V5.27347V5.16274C7.39416 5.24791 8.91894 4.81585 10.1507 4.02698C10.6385 4.55068 10.9026 4.82537 10.9878 4.92986C10.9878 5.19418 10.9878 7.07286 10.9878 7.37541C10.9878 8.74314 9.87259 9.85851 8.50467 9.85851C6.96862 9.85855 5.93981 8.66696 5.93981 7.37545ZM6.82096 13.8027L5.83047 11.8176L6.787 11.4471L8.01071 12.9576C7.38841 13.3995 6.87742 13.7625 6.82096 13.8027ZM7.20751 20.7405L8.18272 14.9787H8.81481L9.79002 20.7405L8.49879 22.1611L7.20751 20.7405Z" fill="white"/>
</svg>
