<svg width="24" height="24" viewBox="0 0 24 24" fill="none" xmlns="http://www.w3.org/2000/svg">
<g clip-path="url(#clip0_541_1883)">
<path d="M22.0432 17.6565L22.0433 17.6568C22.0781 17.7589 22.0518 17.8721 21.9752 17.9487L21.9751 17.9488L19.7579 20.1665C19.6327 20.2918 19.424 20.2725 19.3239 20.1277L19.3236 20.1273L16.0138 15.3463L19.9257 11.4343L22.0432 17.6565Z" stroke="#FCFCFC"/>
<path d="M3.87246 4.67687L3.872 4.67655C3.72732 4.57663 3.70757 4.36822 3.83318 4.2426C3.83319 4.2426 3.8332 4.24259 3.8332 4.24258L6.05059 2.02576C6.05063 2.02572 6.05067 2.02568 6.05071 2.02564C6.1273 1.94932 6.24084 1.92284 6.34383 1.95753C6.34394 1.95757 6.34405 1.9576 6.34417 1.95764L12.5655 4.07483L8.65343 7.98667L3.87246 4.67687Z" stroke="#FCFCFC"/>
<path d="M8.04998 11.9073L8.31238 11.9597L8.50159 11.7705L18.9991 1.273C20.0301 0.242069 21.6966 0.242599 22.7269 1.27299C23.7579 2.30391 23.7574 3.97033 22.727 5.00087C22.727 5.00088 22.727 5.00089 22.727 5.00089L12.2295 15.4984L12.0403 15.6876L12.0927 15.95L12.5649 18.3106L12.5649 18.3109C12.5835 18.4033 12.5545 18.4997 12.4872 18.567L10.2695 20.7841L10.2688 20.7848C10.1342 20.9199 9.90208 20.8843 9.81463 20.7105C9.81455 20.7104 9.81448 20.7102 9.8144 20.7101L7.7143 16.5093L7.63976 16.3602L7.49066 16.2857L3.28989 14.1856C3.28984 14.1855 3.28979 14.1855 3.28973 14.1855C3.11639 14.0985 3.07937 13.867 3.21583 13.7305L3.21587 13.7305L5.43301 11.5128C5.43303 11.5128 5.43304 11.5128 5.43306 11.5127C5.49914 11.4467 5.5964 11.4169 5.69002 11.4353C5.69018 11.4353 5.69034 11.4353 5.6905 11.4354L8.04998 11.9073Z" stroke="#FCFCFC"/>
<path d="M1.16148 21.2415L1.16149 21.2415L4.29741 18.1056C4.29742 18.1056 4.29742 18.1056 4.29743 18.1056C4.50598 17.897 4.50598 17.5591 4.29743 17.3505L1.16148 21.2415ZM1.16148 21.2415C0.952908 21.4501 0.615131 21.4502 0.406452 21.2415C0.197849 21.0329 0.197849 20.6951 0.406452 20.4865L3.54239 17.3505C3.75099 17.1419 4.08881 17.1419 4.29741 17.3505L1.16148 21.2415Z" stroke="#FCFCFC" stroke-width="0.5"/>
<path d="M6.649 19.7026L6.64901 19.7026C6.85759 19.9112 6.85761 20.249 6.649 20.4576L3.51306 23.5936L3.51304 23.5936C3.30447 23.8022 2.96669 23.8022 2.75802 23.5936C2.54941 23.385 2.54941 23.0471 2.75802 22.8385L5.89395 19.7026C6.10256 19.494 6.44039 19.494 6.649 19.7026Z" stroke="#FCFCFC" stroke-width="0.5"/>
</g>
<defs>
<clipPath id="clip0_541_1883">
<rect width="24" height="24" fill="white"/>
</clipPath>
</defs>
</svg>
