<svg width="24" height="24" viewBox="0 0 24 24" fill="none" xmlns="http://www.w3.org/2000/svg">
<path d="M10.2938 22.8013L10.2946 22.7998H10.293L10.2938 22.8013Z" fill="#FCFCFC"/>
<path d="M15.7951 14.2305L15.9455 14.3249C14.8195 15.199 14.0939 16.5654 14.0939 18.0984C14.0939 19.6529 14.841 21.0362 15.9949 21.9084C14.6519 22.1151 13.107 22.2409 11.5169 22.2834L13.529 20.2712L13.7652 20.035L13.6375 19.7265L11.3364 14.1635L12.0914 13.2988L12.4978 12.8333L12.7088 12.8868C13.8239 13.1695 14.8599 13.6436 15.7951 14.2305ZM9.24789 14.1647L6.94684 19.7273L6.81918 20.0359L7.05537 20.272L9.06849 22.2846C6.94409 22.2285 4.90389 22.0249 3.32325 21.6785C2.37769 21.4712 1.62955 21.2197 1.13006 20.938C0.607106 20.6431 0.5 20.4022 0.5 20.2624C0.5 19.0051 1.23707 17.439 2.57033 16.0244C3.89279 14.6213 5.74974 13.4259 7.8765 12.8868L8.08652 12.8336L8.49157 13.2978L9.24789 14.1647ZM9.03751 12.4986L8.51194 12.3096L8.03274 11.9873C6.31118 10.8292 5.10828 8.5171 5.10828 6.45437C5.10828 3.59062 7.43007 1.26917 10.2927 1.26917C13.1544 1.26917 15.477 3.59131 15.477 6.45437C15.477 8.5171 14.2741 10.8292 12.5526 11.9873L12.0697 12.3121L11.5465 12.4991C11.1345 12.6464 10.7166 12.7317 10.2925 12.7317C9.86701 12.7317 9.4486 12.6464 9.03751 12.4986Z" stroke="#FCFCFC"/>
<path d="M19.0356 15.9376C19.1732 15.9376 19.2973 15.8754 19.408 15.7488C19.5188 15.6221 19.5732 15.4846 19.5732 15.3361C19.5732 15.1878 19.5312 15.0652 19.4483 14.9679C19.3644 14.8706 19.2554 14.8228 19.1211 14.8228C18.9868 14.8228 18.8645 14.8907 18.7521 15.0265C18.6403 15.1623 18.5859 15.3017 18.5859 15.4459C18.5859 15.5919 18.6262 15.7093 18.7067 15.8008C18.7872 15.8922 18.8971 15.9376 19.0356 15.9376Z" fill="#FCFCFC"/>
<path d="M19.6805 20.4897C19.5236 20.6013 19.3904 20.6575 19.2779 20.6575C19.1663 20.6575 19.1109 20.5619 19.1109 20.3705C19.1109 20.2749 19.1195 20.1558 19.1345 20.0124L19.2703 18.4572C19.329 17.85 19.3585 17.5245 19.3585 17.4859C19.3585 17.028 19.2065 16.7999 18.9046 16.7999C18.6362 16.7999 18.3645 16.9324 18.0894 17.1958C17.8143 17.4609 17.6053 17.7795 17.4619 18.1546L17.6935 18.3146C18.0356 17.8038 18.2654 17.5489 18.3813 17.5489C18.497 17.5489 18.554 17.6755 18.554 17.9313C18.554 18.026 18.549 18.1335 18.5382 18.2492L18.3628 19.8042C18.32 20.2372 18.2992 20.5458 18.2992 20.7287C18.2992 20.9123 18.341 21.0658 18.4249 21.1892C18.5087 21.3126 18.653 21.3746 18.8577 21.3746C19.5087 21.3746 19.9818 20.9812 20.2753 20.1945L20.069 20.0511C19.9665 20.2321 19.8373 20.3783 19.6805 20.4897Z" fill="#FCFCFC"/>
</svg>
