<svg width="30" height="18" viewBox="0 0 30 18" fill="none" xmlns="http://www.w3.org/2000/svg">
<path d="M0 1.5C0 0.671573 0.671573 0 1.5 0H15H28.5C29.3284 0 30 0.671573 30 1.5C30 2.32843 29.3284 3 28.5 3H1.5C0.671573 3 0 2.32843 0 1.5ZM0 9C0 8.17157 0.671573 7.5 1.5 7.5H28.5C29.3284 7.5 30 8.17157 30 9C30 9.82843 29.3284 10.5 28.5 10.5H1.5C0.671573 10.5 0 9.82843 0 9ZM0 16.5C0 15.6716 0.671573 15 1.5 15H28.5C29.3284 15 30 15.6716 30 16.5C30 17.3284 29.3284 18 28.5 18H1.5C0.671573 18 0 17.3284 0 16.5Z" fill="#11493E"/>
</svg>
