<svg width="24" height="24" viewBox="0 0 24 24" fill="none" xmlns="http://www.w3.org/2000/svg">
<path d="M23.9209 15.5404V8.61884H20.965C19.9202 5.9156 17.6857 3.80338 14.9221 2.92165L12.0005 0L9.07152 2.92896C8.26016 3.18852 7.49457 3.55497 6.7855 4.01371L4.85362 2.08184H2.00272V4.93274L3.93383 6.86384C3.57314 7.42218 3.26898 8.02435 3.02634 8.66152C1.36171 8.91146 0.0800781 10.3465 0.0800781 12.0796C0.0800781 13.8107 1.35864 15.2447 3.02019 15.4969C4.15916 18.4893 6.71167 20.7154 9.81289 21.4371L8.23594 24H15.765L14.1881 21.4375C15.2713 21.1864 16.2864 20.7527 17.2182 20.1482L18.5571 21.4871C18.9378 21.8678 19.4442 22.0774 19.9825 22.0774C21.0938 22.0774 21.9982 21.1729 21.9982 20.0617C21.9982 19.5233 21.7887 19.0169 21.408 18.6362L20.0675 17.2957C20.4197 16.7505 20.7181 16.1625 20.9581 15.5404H23.9209ZM23.1518 9.38789V14.7713H17.7684V9.38789H23.1518ZM14.533 3.61996L12.385 5.76794V3.77915L13.5386 2.62556L14.533 3.61996ZM12.0005 1.08745L12.9949 2.08184L12.0005 3.07623L11.0061 2.08184L12.0005 1.08745ZM10.4624 2.62556L11.6159 3.77915V5.76794L9.46797 3.61996L10.4624 2.62556ZM8.65738 3.89682L12.0005 7.23991L15.3455 3.8949C17.4916 4.7747 19.2273 6.47893 20.139 8.61884H16.9994V14.2276L7.34191 4.57013C7.76028 4.31019 8.19902 4.0837 8.65738 3.89682ZM5.07896 3.39462L16.9994 15.315V15.5404H17.2247L17.417 15.7326L16.8071 16.3425L4.46909 4.00449L5.07896 3.39462ZM2.77178 2.8509H4.53523L2.77178 4.61435V2.8509ZM3.31551 5.15807L3.92537 4.54821L16.2634 16.8862L15.6535 17.4961L3.31551 5.15807ZM3.54084 9.38789C4.27183 9.38789 4.93514 9.68206 5.4208 10.157H1.66088C2.14654 9.68206 2.80985 9.38789 3.54084 9.38789ZM4.69443 10.926V13.2332H2.38725V10.926H4.69443ZM1.61819 13.9599C1.1433 13.4739 0.849136 12.811 0.849136 12.0796C0.849136 11.3482 1.1433 10.6853 1.61819 10.1996V13.9599ZM1.66088 14.0022H5.42119C4.93514 14.4771 4.27221 14.7713 3.54084 14.7713C2.80947 14.7713 2.14654 14.4771 1.66088 14.0022ZM14.3884 23.2309H9.61255L12.0005 19.3503L14.3884 23.2309ZM13.7593 20.7411L12.0005 17.8829L10.2416 20.7411C7.38075 20.1632 4.99013 18.2059 3.85615 15.5242C5.61691 15.3642 7.0016 13.8815 7.0016 12.0796C7.0016 10.2796 5.61999 8.79764 3.86154 8.63499C4.04073 8.2097 4.25145 7.80402 4.48947 7.41949L16.6633 19.5933C15.7712 20.1486 14.7968 20.5319 13.7593 20.7411ZM5.46348 13.9596V10.1996C5.93838 10.6853 6.23254 11.3486 6.23254 12.0796C6.23254 12.8106 5.93838 13.4739 5.46348 13.9596ZM16.8071 18.6497L16.1972 18.0398L17.9607 16.2763L18.5705 16.8862L16.8071 18.6497ZM20.8643 19.1799C21.0996 19.4153 21.2292 19.7287 21.2292 20.0617C21.2292 20.7492 20.6701 21.3083 19.9825 21.3083C19.6495 21.3083 19.3361 21.1787 19.1008 20.9434L17.3508 19.1934L19.1143 17.4299L20.8643 19.1799ZM19.5115 16.7397L18.3121 15.5404H20.1325C19.9548 15.9599 19.7464 16.3602 19.5115 16.7397Z" fill="#FCFCFC"/>
<path d="M20.4605 9.81592L17.8438 14.0023H23.0768L20.4605 9.81592ZM20.4605 11.2671L21.689 13.2332H19.2315L20.4605 11.2671Z" fill="#FCFCFC"/>
<path d="M12.3853 21.6929H11.6162V22.4619H12.3853V21.6929Z" fill="#FCFCFC"/>
</svg>
