<svg width="17" height="17" viewBox="0 0 17 17" fill="none" xmlns="http://www.w3.org/2000/svg">
<g clip-path="url(#clip0_405:3)">
<path d="M12.326 5.47852H14.7512C14.9786 5.78073 15.3401 5.97656 15.7466 5.97656C16.4332 5.97656 16.9917 5.41802 16.9917 4.73145C16.9917 4.04487 16.4332 3.48633 15.7466 3.48633C15.3401 3.48633 14.9786 3.68216 14.7512 3.98441C14.751 3.98441 14.7508 3.98438 14.7505 3.98438H12.326C12.2512 3.88496 12.1618 3.79724 12.0611 3.72403V2.86609L12.9516 1.97559H14.7392C14.9657 2.28713 15.3328 2.49023 15.7466 2.49023C16.4332 2.49023 16.9917 1.93169 16.9917 1.24512C16.9917 0.558543 16.4332 0 15.7466 0C15.3477 0 14.9922 0.18876 14.7642 0.481445H12.6421C12.4425 0.481445 12.2549 0.559141 12.1138 0.700254L10.7857 2.02838C10.6446 2.16949 10.5669 2.35709 10.5669 2.55664V3.7491C10.192 4.03627 9.98491 4.57891 10.1364 5.08327L9.17914 6.3671C8.96239 6.29707 8.73146 6.25882 8.4917 6.25882C7.25588 6.25882 6.25049 7.26421 6.25049 8.50003C6.25049 9.73585 7.25588 10.7412 8.4917 10.7412C8.72741 10.7412 8.95462 10.7045 9.16818 10.6367L10.1349 11.9218C10.1029 12.032 10.0854 12.1482 10.0854 12.2686C10.0854 12.6675 10.2742 13.0229 10.5669 13.2509V14.4434C10.5669 14.6429 10.6446 14.8305 10.7857 14.9716L12.1138 16.2997C12.2549 16.4409 12.4425 16.5186 12.6421 16.5186H14.7642C14.9923 16.8112 15.3477 17 15.7466 17C16.4332 17 16.9917 16.4415 16.9917 15.7549C16.9917 15.0683 16.4332 14.5098 15.7466 14.5098C15.3328 14.5098 14.9657 14.7129 14.7392 15.0244H12.9515L12.061 14.1339V13.276C12.1617 13.2028 12.2512 13.115 12.326 13.0156H14.7512C14.9786 13.3178 15.3401 13.5137 15.7466 13.5137C16.4332 13.5137 16.9917 12.9551 16.9917 12.2686C16.9917 11.582 16.4332 11.0234 15.7466 11.0234C15.3401 11.0234 14.9786 11.2193 14.7512 11.5215C14.751 11.5215 14.7508 11.5215 14.7505 11.5215H12.326C12.0987 11.2193 11.7371 11.0234 11.3306 11.0234C11.33 11.0234 11.3294 11.0235 11.3289 11.0235L10.3602 9.73575C10.4605 9.58465 10.5429 9.42076 10.6044 9.24707H14.7505C14.7508 9.24707 14.751 9.24704 14.7512 9.24704C14.9786 9.54928 15.3401 9.74512 15.7466 9.74512C16.4332 9.74512 16.9917 9.18657 16.9917 8.5C16.9917 7.81343 16.4332 7.25488 15.7466 7.25488C15.3401 7.25488 14.9786 7.45072 14.7512 7.75296C14.751 7.75296 14.7508 7.75293 14.7505 7.75293H13.3051C13.1676 7.75293 13.0561 7.86443 13.0561 8.00195C13.0561 8.13948 13.1676 8.25098 13.3051 8.25098H14.5265C14.502 8.37904 14.4878 8.54785 14.5265 8.74902H10.7187C10.7324 8.6187 10.7406 8.45421 10.7187 8.25098H12.1108C12.2484 8.25098 12.3599 8.13948 12.3599 8.00195C12.3599 7.86443 12.2484 7.75293 12.1108 7.75293H10.6044C10.5442 7.583 10.4639 7.42256 10.3665 7.27417L11.3341 5.9765C11.7392 5.97533 12.0993 5.77983 12.326 5.47852ZM15.7466 3.98438C16.1585 3.98438 16.4937 4.31949 16.4937 4.73145C16.4937 5.1434 16.1585 5.47852 15.7466 5.47852C15.3346 5.47852 14.9995 5.1434 14.9995 4.73145C14.9995 4.31949 15.3346 3.98438 15.7466 3.98438ZM12.5506 4.48242H14.5265C14.502 4.61049 14.4878 4.77929 14.5265 4.98047H12.5506C12.567 4.89998 12.5757 4.81671 12.5757 4.73145C12.5757 4.64618 12.567 4.56291 12.5506 4.48242ZM15.7466 0.498047C16.1585 0.498047 16.4937 0.833166 16.4937 1.24512C16.4937 1.65707 16.1585 1.99219 15.7466 1.99219C15.3346 1.99219 14.9995 1.65707 14.9995 1.24512C14.9995 0.833166 15.3346 0.498047 15.7466 0.498047ZM15.7466 15.0078C16.1585 15.0078 16.4937 15.3429 16.4937 15.7549C16.4937 16.1668 16.1585 16.502 15.7466 16.502C15.3346 16.502 14.9995 16.1668 14.9995 15.7549C14.9995 15.3429 15.3346 15.0078 15.7466 15.0078ZM15.7466 11.5215C16.1585 11.5215 16.4937 11.8566 16.4937 12.2686C16.4937 12.6805 16.1585 13.0156 15.7466 13.0156C15.3346 13.0156 14.9995 12.6805 14.9995 12.2686C14.9995 11.8566 15.3346 11.5215 15.7466 11.5215ZM12.5506 12.0195H14.5265C14.502 12.1476 14.4878 12.3164 14.5265 12.5176H12.5506C12.5751 12.3895 12.5894 12.2207 12.5506 12.0195ZM15.7466 7.75293C16.1585 7.75293 16.4937 8.08805 16.4937 8.5C16.4937 8.91195 16.1585 9.24707 15.7466 9.24707C15.3346 9.24707 14.9995 8.91195 14.9995 8.5C14.9995 8.08805 15.3346 7.75293 15.7466 7.75293ZM11.0649 2.55664C11.0649 2.49013 11.0908 2.42761 11.1379 2.38056L12.466 1.05244C12.5131 1.00539 12.5756 0.979492 12.6421 0.979492H14.5303C14.5116 1.06512 14.5015 1.15394 14.5015 1.24512C14.5015 1.32457 14.5093 1.4022 14.5235 1.47754H12.8484C12.7823 1.47754 12.719 1.50377 12.6723 1.55049L11.6359 2.58686C11.5892 2.63354 11.563 2.69689 11.563 2.76293V3.50841C11.4302 3.48477 11.2699 3.47361 11.0649 3.51515V2.55664ZM8.4917 10.2432C7.5305 10.2432 6.74854 9.4612 6.74854 8.5C6.74854 7.5388 7.5305 6.75684 8.4917 6.75684C9.4529 6.75684 10.2349 7.5388 10.2349 8.5C10.2349 9.4612 9.4529 10.2432 8.4917 10.2432ZM12.6723 15.4495C12.719 15.4962 12.7823 15.5225 12.8484 15.5225H14.5235C14.4999 15.6553 14.4887 15.8156 14.5303 16.0205H12.6421C12.5756 16.0205 12.513 15.9946 12.466 15.9476L11.1379 14.6194C11.0908 14.5724 11.0649 14.5099 11.0649 14.4434V13.4849C11.1883 13.5107 11.369 13.528 11.563 13.4916V14.2371C11.563 14.3031 11.5892 14.3665 11.6359 14.4131L12.6723 15.4495ZM11.3306 11.5215C11.7425 11.5215 12.0776 11.8566 12.0776 12.2686C12.0776 12.6805 11.7425 13.0156 11.3306 13.0156C10.9186 13.0156 10.5835 12.6805 10.5835 12.2686C10.5835 11.8566 10.9186 11.5215 11.3306 11.5215ZM10.7964 11.1441C10.6443 11.2166 10.5093 11.3192 10.3987 11.444L9.63392 10.4273C9.77742 10.3419 9.91047 10.2408 10.031 10.1267L10.7964 11.1441ZM10.0387 6.88065C9.91864 6.7659 9.78619 6.66407 9.64308 6.578L10.4022 5.55996C10.5132 5.68428 10.6487 5.78618 10.8012 5.85806L10.0387 6.88065ZM10.5835 4.73145C10.5835 4.31949 10.9186 3.98438 11.3306 3.98438C11.7425 3.98438 12.0776 4.31949 12.0776 4.73145C12.0776 5.1434 11.7425 5.47852 11.3306 5.47852C10.9186 5.47852 10.5835 5.1434 10.5835 4.73145Z" fill="white"/>
<path d="M7.89441 16.502H7.56869C7.33799 16.502 7.15033 16.3143 7.15033 16.0836V15.3647C7.15033 14.9689 6.89795 14.6194 6.52239 14.4952C6.23279 14.3993 5.94784 14.2812 5.67548 14.1442C5.3213 13.966 4.8953 14.0343 4.6155 14.3141L4.10683 14.8228C4.02781 14.9018 3.92272 14.9454 3.81092 14.9454C3.69913 14.9454 3.59404 14.9018 3.51498 14.8228L2.18566 13.4937C2.02267 13.3305 2.02267 13.0649 2.1855 12.9019L2.6946 12.3932C2.97444 12.1133 3.04267 11.6873 2.8645 11.3332C2.7275 11.0608 2.6094 10.7759 2.51351 10.4863C2.38923 10.1107 2.03977 9.85834 1.64392 9.85834H0.925073C0.694378 9.85834 0.506714 9.67068 0.506714 9.43998V7.56002C0.506714 7.32932 0.694378 7.14166 0.925073 7.14166H1.64392C2.03977 7.14166 2.38923 6.88928 2.51348 6.51372C2.6094 6.22412 2.72747 5.93918 2.86443 5.66681C3.04264 5.31263 2.9744 4.88667 2.69447 4.60677L2.18566 4.09826C2.02267 3.93504 2.02267 3.66944 2.18556 3.50635L3.51492 2.177C3.67818 2.01397 3.94377 2.01397 4.10676 2.17683L4.6155 2.6859C4.89537 2.9657 5.32137 3.03404 5.67544 2.8558C5.94784 2.7188 6.23279 2.6007 6.52232 2.50484C6.89795 2.38056 7.15033 2.0311 7.15033 1.63525V0.916406C7.15033 0.685711 7.33799 0.498047 7.56869 0.498047H9.41544C9.6211 0.498047 9.79897 0.651047 9.82919 0.854018C9.83115 0.867166 9.82939 0.881344 9.82407 0.895057L9.57163 1.54793C9.52203 1.67623 9.58581 1.82043 9.71407 1.87C9.84237 1.91957 9.98657 1.85582 10.0361 1.72756L10.2886 1.07469C10.325 0.980588 10.3364 0.878887 10.3218 0.780572C10.2555 0.335551 9.86588 0 9.41544 0H7.56869C7.06337 0 6.65228 0.411088 6.65228 0.916406V1.63525C6.65228 1.81588 6.5372 1.97532 6.3658 2.03203C6.05323 2.13556 5.74567 2.26303 5.45162 2.41088C5.28976 2.49233 5.09529 2.46131 4.96772 2.33378L4.45888 1.82461C4.10158 1.46778 3.52023 1.46778 3.16286 1.82471L1.83328 3.1543C1.47644 3.5116 1.47644 4.09292 1.83344 4.45038L2.34238 4.95899C2.46998 5.08659 2.50099 5.28109 2.41955 5.44299C2.27169 5.737 2.14423 6.04456 2.04066 6.3572C1.98399 6.52853 1.82455 6.64361 1.64392 6.64361H0.925073C0.419755 6.64361 0.00866699 7.0547 0.00866699 7.56002V9.43998C0.00866699 9.9453 0.419755 10.3564 0.925073 10.3564H1.64392C1.82455 10.3564 1.98399 10.4715 2.0407 10.6429C2.14423 10.9554 2.27169 11.263 2.41955 11.557C2.50099 11.7189 2.46998 11.9134 2.34245 12.0409L1.83328 12.5498C1.47644 12.9071 1.47644 13.4884 1.83341 13.8458L3.16286 15.1749C3.5202 15.5323 4.10162 15.5323 4.45901 15.1749L4.96769 14.6663C5.09529 14.5387 5.28979 14.5076 5.45169 14.5891C5.7457 14.737 6.05326 14.8644 6.3659 14.968C6.53723 15.0247 6.65231 15.1841 6.65231 15.3647V16.0836C6.65231 16.5889 7.0634 17 7.56872 17H7.89444C8.03197 17 8.14347 16.8885 8.14347 16.751C8.14347 16.6134 8.03194 16.502 7.89441 16.502Z" fill="white"/>
<path d="M8.80318 12.0536C8.7218 11.8415 8.52291 11.6956 8.2965 11.682C6.60925 11.5808 5.28756 10.176 5.28756 8.48379C5.28756 6.79133 6.60951 5.38644 8.2971 5.2855C8.52284 5.27199 8.72153 5.12669 8.80324 4.91538L9.61639 2.81253C9.66599 2.68427 9.60221 2.54003 9.47395 2.49046C9.34568 2.44086 9.20145 2.50464 9.15188 2.6329L8.88648 3.31924C8.75556 3.30942 8.62308 3.30414 8.4917 3.30414C5.62647 3.30414 3.29541 5.6352 3.29541 8.50043C3.29541 9.67363 3.67698 10.7809 4.39885 11.7023C4.44796 11.7651 4.52114 11.7978 4.59505 11.7978C4.64877 11.7978 4.70289 11.7805 4.74844 11.7448C4.85672 11.66 4.87571 11.5034 4.79091 11.3952C4.13837 10.5622 3.79346 9.56117 3.79346 8.50039C3.79346 5.90979 5.90109 3.80215 8.4917 3.80215C8.5603 3.80215 8.62923 3.80368 8.69802 3.80663L8.33873 4.73576C8.32711 4.7658 8.29912 4.78642 8.26741 4.78835C6.31719 4.90499 4.78955 6.52826 4.78955 8.48379C4.78955 10.439 6.31689 12.0622 8.26668 12.1792C8.29852 12.1811 8.32661 12.2019 8.33817 12.232L8.70699 13.1935C7.60103 13.2513 6.4434 12.8847 5.57065 12.1805C5.46298 12.0949 5.30632 12.1128 5.22076 12.2204C5.13516 12.3281 5.15309 12.4848 5.26074 12.5703C6.28422 13.3877 7.57237 13.7802 8.89409 13.6813L9.82387 16.1052C9.82909 16.1189 9.83081 16.133 9.82886 16.1462C9.79874 16.3492 9.62087 16.5023 9.41508 16.5023H9.05615C8.91862 16.5023 8.80713 16.6138 8.80713 16.7514C8.80713 16.8889 8.91862 17.0004 9.05615 17.0004H9.41508C9.86578 17.0004 10.2555 16.6646 10.3215 16.2193C10.336 16.1214 10.3247 16.0202 10.2889 15.9268L8.80318 12.0536Z" fill="white"/>
</g>
<defs>
<clipPath id="clip0_405:3">
<rect width="17" height="17" fill="white"/>
</clipPath>
</defs>
</svg>
