<svg width="18" height="20" viewBox="0 0 18 20" fill="none" xmlns="http://www.w3.org/2000/svg">
<path d="M15.134 9.16663H3.44864C2.52669 9.16663 1.7793 9.91282 1.7793 10.8333V16.6666C1.7793 17.5871 2.52669 18.3333 3.44864 18.3333H15.134C16.056 18.3333 16.8034 17.5871 16.8034 16.6666V10.8333C16.8034 9.91282 16.056 9.16663 15.134 9.16663Z" stroke="#11493E" stroke-linecap="round" stroke-linejoin="round"/>
<path d="M5.11914 9.16663V5.83329C5.11914 4.72822 5.55883 3.66842 6.34149 2.88701C7.12414 2.10561 8.18565 1.66663 9.2925 1.66663C10.3993 1.66663 11.4608 2.10561 12.2435 2.88701C13.0262 3.66842 13.4659 4.72822 13.4659 5.83329V9.16663" stroke="#11493E" stroke-linecap="round" stroke-linejoin="round"/>
</svg>
