<svg width="756" height="631" viewBox="0 0 756 631" fill="none" xmlns="http://www.w3.org/2000/svg">
<path d="M706.293 611.807C698.038 577.914 716.527 448.519 565.805 438.418C455.833 431.047 454.559 583.956 331.553 503.814" stroke="#DED2FA" stroke-width="3.03309" stroke-linecap="round" stroke-linejoin="round" stroke-dasharray="10.11 10.11"/>
<path d="M322.975 321.738C322.975 182.7 210.262 69.9873 71.2234 69.9873C63.5987 69.9873 57.4177 76.1683 57.4177 83.793V522.949C57.4177 537.924 69.557 550.063 84.5316 550.063H298.017C311.8 550.063 322.975 538.889 322.975 525.105V321.738Z" fill="#EEF9FE"/>
<g clip-path="url(#clip0_756_2089)">
<path d="M253.572 380.744L251.805 401.013L246.077 466.948L242.329 510.121L232.189 620.411L196.54 623.651L179.507 437.05C179.507 437.05 173.494 344.649 205.881 342.1C238.283 339.55 253.215 352.071 253.572 380.744Z" fill="#5A9687"/>
<path d="M263.844 385.969C261.201 390.183 257.793 392.177 256.928 397.285C256.01 402.701 256.629 408.436 256.315 413.917C255.42 429.566 254.597 445.22 253.668 460.867C251.832 491.783 250.34 523.62 244.681 554.11C244.321 556.05 247.252 556.901 247.672 554.934C250.472 541.828 251.279 528.352 252.517 515.031C253.947 499.635 255.152 484.226 256.034 468.788C256.881 453.956 257.568 439.114 258.305 424.276C258.627 417.772 259.058 411.275 258.983 404.762C258.951 401.919 258.691 398.64 259.58 395.902C260.7 392.453 263.909 390.121 265.77 387.095C266.525 385.868 264.606 384.756 263.844 385.969Z" fill="white"/>
<path d="M256.315 549.991C252.964 558.169 249.717 567.874 249.127 576.749C248.437 587.125 248.629 597.464 247.187 607.808C246.957 609.456 249.484 610.162 249.708 608.503C250.958 599.268 252.837 590.066 252.883 580.722C252.934 570.324 256.321 560.466 257.095 550.097C257.131 549.611 256.47 549.612 256.315 549.991Z" fill="white"/>
<path d="M197.572 407.091C197.572 407.091 205.988 406.725 208.192 404.104C208.192 404.104 215.205 374.039 214.805 359.617" fill="#473C6B"/>
<path d="M197.572 407.091C197.572 407.091 205.988 406.725 208.192 404.104C208.192 404.104 215.205 374.039 214.805 359.617" stroke="#473C6B" stroke-width="1.33795" stroke-miterlimit="10" stroke-linecap="round" stroke-linejoin="round"/>
<path d="M209.103 367.554L200.24 405.599L196.607 417.365L149.629 569.704L121.54 624.114C121.54 624.114 91.4473 625.367 91.4473 624.114C91.4473 622.846 121.802 381.356 121.802 381.356C121.802 381.356 126.233 342 164.932 337.599C203.631 333.197 209.103 367.554 209.103 367.554Z" fill="#80BDAE"/>
<path d="M107.772 412.134C107.082 422.849 103.906 433.724 102.078 444.312C100.216 455.095 98.4238 465.892 96.7923 476.713C96.4963 478.675 99.448 479.57 99.833 477.551C102.043 465.96 104.103 454.332 106.013 442.688C107.663 432.623 109.978 422.378 109.131 412.134C109.059 411.266 107.829 411.255 107.772 412.134Z" fill="white"/>
<path d="M95.587 494.182C95.5953 497.336 95.1884 500.452 94.5318 503.535C93.9988 506.038 93.1302 508.436 93.0347 511.011C93.0062 511.781 94.0844 512.267 94.6103 511.663C98.5754 507.111 98.4205 499.836 97.843 494.182C97.6987 492.769 95.583 492.7 95.587 494.182Z" fill="#FEFAFA"/>
<path d="M88.1035 526.074C85.4848 540.02 85.1984 554.494 83.042 568.552C80.8632 582.754 78.0363 596.744 74.7867 610.732C74.5284 611.844 76.1376 612.283 76.4925 611.202C81.0692 597.267 84.6347 582.807 86.9151 568.318C89.0513 554.745 91.5351 540.09 90.1682 526.354C90.0606 525.272 88.34 524.815 88.1035 526.074Z" fill="#FEFAFA"/>
<path d="M331.638 246.634C332.062 246.293 336.733 246.306 336.733 246.306C336.733 246.306 356.105 240.102 360.898 236.95C365.691 233.799 362.218 230.39 357.835 231.986C353.452 233.581 341.408 232.546 341.408 232.546L335.035 239.902L331.638 246.634Z" fill="#EFA097"/>
<path d="M342.549 221.127C342.549 221.127 357.907 216.936 359.821 213.909C361.735 210.882 359.903 208.166 355.531 209.236C351.159 210.305 339.602 212.674 339.602 212.674L342.549 221.127Z" fill="#EFA097"/>
<path d="M340.881 210.521C340.881 210.521 356.239 206.331 358.153 203.304C360.067 200.276 358.235 197.561 353.863 198.63C349.491 199.699 337.934 202.069 337.934 202.069L340.881 210.521Z" fill="#EFA097"/>
<path d="M340.674 201.449C340.674 201.449 354.852 194.207 356.107 190.853C357.361 187.498 355.014 185.214 350.953 187.154C346.891 189.095 338.011 194.923 338.011 194.923L340.674 201.449Z" fill="#EFA097"/>
<path d="M350.376 182.953C348.133 184.443 342.96 188.826 339.289 192.273C337.254 194.185 335.681 195.808 335.337 196.509C334.362 198.469 325.269 227.534 325.269 227.534L298.893 251.924L319.682 264.491C319.682 264.491 330.353 265.846 330.949 265.367C331.545 264.888 335.337 256.196 335.337 256.196C335.337 256.196 337.756 250.521 341.797 248.248C345.852 245.972 349.355 240.332 349.517 237.848C349.68 235.363 346.743 199.117 347.312 196.895C347.881 194.673 356.185 187.106 356.242 184.134C356.31 181.145 353.852 180.627 350.376 182.953Z" fill="#F5C3C0"/>
<path d="M339.601 191.826C337.566 193.738 335.993 195.361 335.649 196.062C334.673 198.022 325.58 227.087 325.58 227.087L298.043 252.752L312.742 260.462C314.632 255.316 324.16 238.925 329.112 235.945C336.351 231.611 335.574 225.86 336.92 210.846C337.64 202.848 338.441 196.508 339.601 191.826Z" fill="#EFA097"/>
<path d="M335.288 265.953C335.288 265.953 321.281 306.705 303.969 331.532C297.044 341.474 289.592 348.853 282.283 350.078C274.745 351.331 268.747 349.964 263.802 346.858C251.933 339.423 246.006 322.045 239.081 306.705C238.967 306.448 238.853 306.178 238.739 305.893C238.654 305.665 238.568 305.437 238.483 305.209C232.441 287.96 242.843 244.886 248.784 223.278C250.922 215.501 252.475 210.501 252.475 210.501C252.475 210.501 262.192 213.706 263.802 217.509C265.413 221.312 275.216 282.789 275.216 282.789L293.967 242.308C293.967 242.308 305.936 248.176 317.691 254.828C324.359 258.589 330.956 262.62 335.288 265.953Z" fill="#EE9087"/>
<path d="M264.512 209.385C266.096 210.794 267.641 213.153 268.723 214.982C269.644 216.539 270.059 219.153 271.628 220.108C272.044 220.362 272.633 220.204 272.873 219.782C273.953 217.883 272.104 214.871 271.017 213.287C269.37 210.887 267.646 209.881 265.134 208.58C264.64 208.325 264.057 208.98 264.512 209.385Z" fill="white"/>
<path d="M273.432 228.008C275.016 239.77 274.712 251.8 276.464 263.478C276.627 264.568 278.5 264.568 278.664 263.478C280.416 251.882 277.668 238.861 274.593 227.688C274.381 226.916 273.331 227.265 273.432 228.008Z" fill="white"/>
<path d="M333.334 285.187C328.816 294.801 324.139 304.41 319.135 313.782C314.105 323.203 307.812 331.897 302.779 341.275C302.076 342.585 303.882 344.174 304.934 342.937C311.812 334.84 317.064 324.815 322.053 315.487C327.19 305.885 331.413 296.151 334.903 285.848C335.212 284.939 333.75 284.301 333.334 285.187Z" fill="white"/>
<path d="M296.714 349.57C293.372 353.585 288.807 355.77 284.671 358.772C283.538 359.594 284.164 361.541 285.669 361.138C291.132 359.673 294.892 354.948 297.842 350.439C298.281 349.767 297.24 348.938 296.714 349.57Z" fill="white"/>
<path d="M335.288 265.952C335.288 265.952 321.281 306.704 303.969 331.531C297.044 341.474 289.592 348.852 282.283 350.077C274.745 351.33 268.747 349.963 263.802 346.858C251.933 339.422 246.006 322.045 239.081 306.704C238.967 306.448 238.853 306.177 238.739 305.892C238.654 305.664 238.568 305.436 238.483 305.208C232.441 287.959 242.843 244.885 248.784 223.277C253.843 237.863 261.409 261.408 262.449 274.613C264.03 294.696 272.551 312.231 276.227 304.924C279.903 297.616 284.164 300.821 288.424 304.924C292.442 308.769 310.495 275.823 317.691 254.828C324.359 258.588 330.956 262.619 335.288 265.952Z" fill="#F08175"/>
<path d="M295.935 253.031C295.935 253.031 317.74 262.8 326.288 268.206L295.935 253.031Z" fill="white"/>
<path d="M295.935 253.031C295.935 253.031 317.74 262.8 326.288 268.206" stroke="white" stroke-width="1.33795" stroke-miterlimit="10" stroke-linecap="round" stroke-linejoin="round"/>
<path d="M321.883 277.532C323.497 277.532 324.805 276.224 324.805 274.611C324.805 272.998 323.497 271.69 321.883 271.69C320.269 271.69 318.961 272.998 318.961 274.611C318.961 276.224 320.269 277.532 321.883 277.532Z" fill="white" stroke="white" stroke-width="1.33795" stroke-miterlimit="10" stroke-linecap="round" stroke-linejoin="round"/>
<path d="M316.039 288.592C317.653 288.592 318.961 287.284 318.961 285.671C318.961 284.057 317.653 282.75 316.039 282.75C314.425 282.75 313.117 284.057 313.117 285.671C313.117 287.284 314.425 288.592 316.039 288.592Z" fill="white" stroke="white" stroke-width="1.33795" stroke-miterlimit="10" stroke-linecap="round" stroke-linejoin="round"/>
<path d="M207.342 213.073L185.517 213.489L180.899 173.752L180.229 168.048L202.58 168.756L205.332 194.318L207.342 213.073Z" fill="#F5C3C0"/>
<path d="M205.748 194.356C193.389 190.208 185.386 180.785 180.91 173.76L180.229 168.048L202.95 168.757L205.748 194.356Z" fill="#CF8E87"/>
<path d="M212.924 184.79C210.655 186.222 205.348 186.384 200.962 184.79C192.99 185.145 183.685 178.24 177.178 171.314C174.735 168.739 172.959 165.853 171.648 162.923C167.629 154.265 167.74 145.54 167.74 145.54C167.052 140.39 167.007 135.706 167.851 131.599C168.917 126.427 171.404 122.253 175.757 119.434C178.333 117.791 181.553 116.614 185.505 115.993C203.226 113.24 236.449 113.384 230.468 138.153C224.487 162.923 228.076 175.223 212.924 184.79Z" fill="#F5C3C0"/>
<path d="M153.491 167.925C148.654 149.297 142.216 130.955 148.779 111.777C152.365 101.3 158.126 94.9196 168.784 91.6393C182.178 87.5171 199.306 86.0671 208.919 98.8988C210.762 101.359 214.215 98.76 212.289 96.2996C199.073 79.4112 165.949 79.6594 151.138 94.8766C132.489 114.038 140.861 148.327 149.999 169.396C150.879 171.425 154.018 169.956 153.491 167.925Z" fill="white"/>
<path d="M223.799 106.958C228.825 113.118 231.934 122.51 233.816 130.106C235.468 136.777 234.718 144.448 238.093 150.462C238.905 151.909 240.852 151.404 241.37 150.034C244.126 142.741 240.921 131.541 238.443 124.447C235.534 116.118 231.29 111.582 224.714 106.043C224.072 105.502 223.274 106.313 223.799 106.958Z" fill="white"/>
<path d="M204.949 185.587C192.987 186.384 183.685 178.24 177.178 171.314C174.735 168.739 172.959 165.853 171.648 162.922C167.629 154.264 167.74 145.54 167.74 145.54C167.052 140.39 167.007 135.706 167.851 131.599C168.917 126.426 171.404 122.253 175.757 119.433C176.001 119.678 176.201 119.966 176.334 120.299C178.199 124.917 182.441 129.179 182.441 129.179C182.441 129.179 188.472 171.179 204.949 185.587Z" fill="#EFA097"/>
<path d="M178.473 156.446L178.888 162.668L171.641 162.926C167.634 154.256 167.745 145.531 167.745 145.531C167.046 140.389 166.997 135.7 167.846 131.604C172.542 130.984 180.443 139.249 180.443 139.249L181.623 153.602L178.473 156.446Z" fill="#3B3736"/>
<path d="M175.087 155.881C175.087 155.881 169.56 147.768 163.12 152.071C156.68 156.373 163.403 179.115 180.258 169.19L175.087 155.881Z" fill="#F5C3C0"/>
<path d="M159.614 136.352C161.251 139.739 166.067 147.856 168.266 150.908L181.823 153.699L180.627 140.943C180.627 140.943 186.991 141.749 189.176 137.213C189.23 137.109 189.278 137.003 189.319 136.894C189.933 135.403 192.445 128.698 193.067 117.761C193.067 117.761 208.794 127.829 217.837 130.221C221.091 131.082 225.142 130.412 229.001 129.193C236.745 126.753 244.847 116.007 244.823 107.891C244.823 107.838 244.823 107.785 244.823 107.732C244.648 95.7737 237.351 102.949 237.351 102.949C237.351 102.949 237.072 93.3343 231.314 91.7877C225.556 90.2411 220.484 98.269 220.484 98.269C209.643 93.9051 198.079 91.6146 186.393 91.5166C163.21 91.4608 166.456 107.931 166.456 107.931C166.456 107.931 148.96 110.666 159.614 136.352Z" fill="#5B1C10"/>
<path d="M168.266 150.908L181.823 153.699L178.633 156.489L179.032 162.867H177.836L175.045 155.692C172.615 152.892 170.659 151.706 168.266 150.908Z" fill="#5B1C10"/>
<path d="M262.449 380.004C262.449 380.004 242.7 393.707 221.014 401.412L210.983 372.497L191.249 404.105C173.623 401.683 142.718 395.829 116.757 382.497L133.499 310.921L131.846 275.753L129.039 216.199C129.039 216.199 158.377 203.935 189.909 200.374C189.909 200.374 230.575 202.852 252.475 210.501C252.475 210.501 257.105 274.243 248.913 319.467L255.125 347.229L262.449 380.004Z" fill="#EE9087"/>
<path d="M148.397 204.831C153.207 204.637 158.426 203.08 162.887 201.34C164.884 200.561 164.141 197.44 161.981 198.053C157.385 199.358 152.494 200.486 148.039 202.188C146.715 202.694 146.769 204.896 148.397 204.831Z" fill="white"/>
<path d="M213.094 195.148C228.233 198.645 243.037 201.462 257.87 206.303C258.879 206.632 259.573 205.045 258.601 204.569C244.959 197.9 228.552 193.149 213.271 193.839C212.549 193.872 212.331 194.972 213.094 195.148Z" fill="white"/>
<path d="M170.399 198.482C171.854 198.412 173.247 198.288 174.583 197.681C175.911 197.077 177.166 196.233 178.064 195.076C178.773 194.163 178.955 192.937 178.064 192.047C177.29 191.272 175.796 191.169 175.034 192.047C173.665 193.625 172.082 195.368 170.079 196.122C168.895 196.568 168.948 198.553 170.399 198.482Z" fill="white"/>
<path d="M262.558 361.185C264.396 364.884 265.723 368.578 266.297 372.673C266.648 375.183 266.603 377.603 268.746 379.203C269.421 379.707 270.212 379.005 270.27 378.329C270.403 376.794 269.87 375.52 269.578 374.018C269.241 372.289 269.099 370.51 268.523 368.835C267.477 365.791 265.456 363.167 263.665 360.538C263.2 359.856 262.189 360.443 262.558 361.185Z" fill="white"/>
<path d="M262.449 380.004C262.449 380.004 242.7 393.706 221.014 401.412L211.61 374.292L210.983 372.497L210.042 373.993L191.249 404.104C173.623 401.683 142.718 395.829 116.757 382.496L118.21 376.272L125.377 345.633L133.499 310.921L131.846 275.752C146.964 297.033 172.412 316.376 182.628 320.165C196.748 325.392 222.909 319.552 236.089 316.561C249.269 313.57 225.63 325.221 212.365 331.93C205.611 335.349 207.706 342.585 217.979 346.616C225.759 349.678 238.24 350.903 255.125 347.228L257.875 359.521L262.449 380.004Z" fill="#F08175"/>
<path d="M257.875 359.521C251.249 364.934 234.236 378.337 229.192 377.482C226.456 377.012 219.09 375.673 211.609 374.292L210.983 372.497L210.042 373.993C200.809 372.283 191.904 370.617 191.904 370.617L188.641 384.348C188.641 384.348 142.247 379.676 118.21 376.272L125.377 345.633L217.979 346.616C225.758 349.678 238.24 350.903 255.125 347.228L257.875 359.521Z" fill="#D36265"/>
<path d="M209.104 304.928C209.104 304.928 211.205 349.193 210.972 366.633L209.104 304.928Z" fill="white"/>
<path d="M209.104 304.928C209.104 304.928 211.205 349.193 210.972 366.633" stroke="white" stroke-width="1.33795" stroke-miterlimit="10" stroke-linecap="round" stroke-linejoin="round"/>
<path d="M199.077 323.765C201.068 323.765 202.682 322.152 202.682 320.162C202.682 318.171 201.068 316.558 199.077 316.558C197.086 316.558 195.472 318.171 195.472 320.162C195.472 322.152 197.086 323.765 199.077 323.765Z" fill="white"/>
<path d="M200.234 352.712C202.225 352.712 203.839 351.099 203.839 349.108C203.839 347.118 202.225 345.505 200.234 345.505C198.243 345.505 196.629 347.118 196.629 349.108C196.629 351.099 198.243 352.712 200.234 352.712Z" fill="#1B2D3D"/>
<path d="M225.374 257.093C229.606 265.742 232.081 279.298 232.081 279.298L208.789 297.403L177.681 285.907C175.871 277.271 176.516 258.82 176.516 258.82L162.738 256.893C156.113 228.959 163.293 207.807 163.293 207.807C167.112 206.651 170.845 205.753 174.478 205.073C189.183 202.271 202.049 202.911 210.741 204.08C218.122 205.087 222.51 206.46 222.51 206.46C228.851 217.449 234.8 252.443 234.8 252.443L225.374 257.093Z" fill="#D36265"/>
<path d="M225.374 255.184C229.605 264.243 231.116 275.097 231.116 275.097L208.788 297.403L176.515 281.421C174.705 272.377 176.515 256.993 176.515 256.993L162.936 253.988C156.311 224.731 163.292 203.564 163.292 203.564C167.111 202.353 170.844 201.413 174.478 200.701C189.182 197.767 202.049 198.436 210.74 199.661C218.121 200.715 222.51 202.154 222.51 202.154C228.85 213.663 234.436 248.888 234.436 248.888L225.374 255.184Z" fill="white"/>
<path d="M207.891 294.996C188.926 263.973 176.529 210.074 174.478 200.701C189.182 197.767 202.049 198.436 210.74 199.661C215.656 249.373 207.891 294.996 207.891 294.996Z" fill="#F19B51"/>
<path d="M195.472 212.858C195.472 212.858 205.215 257.077 207.264 284.156" stroke="white" stroke-width="1.33795" stroke-miterlimit="10" stroke-linecap="round" stroke-linejoin="round"/>
<path d="M182.686 193.685C187.116 192.005 200.819 190.85 206.771 193.685C206.771 193.685 208.749 198.318 208.937 201.303C208.937 201.303 207.048 203.868 198.881 205.233C190.715 206.598 181.025 202.608 181.025 202.608L182.686 193.685Z" fill="#F19B51"/>
<path d="M209.726 204.428C209.682 205.771 209.445 206.849 209.017 207.233C207.555 208.488 199.521 206.436 199.521 206.436C199.521 206.436 197.808 204.192 198.723 201.283C198.723 201.283 198.96 201.076 199.373 200.737C201.072 199.364 205.65 195.821 207.407 196.293C208.943 196.721 209.829 201.283 209.726 204.428Z" fill="#DF6561"/>
<path d="M209.726 204.428C209.682 205.771 209.445 206.849 209.017 207.233C207.555 208.488 199.521 206.436 199.521 206.436C199.521 206.436 197.808 204.192 198.723 201.283C198.723 201.283 198.96 201.076 199.373 200.737C201.293 201.593 202.017 203.07 202.667 204.457C203.287 205.771 208.279 206.539 209.726 204.428Z" fill="#BE5552"/>
<path d="M200.57 205.491C200.245 207.927 198.709 208.887 196.509 209.079C193.702 209.33 191.177 208.843 190.586 204.665C190.261 202.391 190.409 200.797 191.162 199.793C191.797 198.936 192.846 198.493 194.382 198.39C197.336 198.183 200.082 198.981 200.555 203.173C200.658 204.059 200.658 204.827 200.57 205.491Z" fill="#DF6561"/>
<path d="M200.57 205.491C200.245 207.927 198.709 208.886 196.509 209.078C193.702 209.329 191.177 208.842 190.586 204.664C190.261 202.39 190.409 200.796 191.162 199.792C191.325 202.169 192.137 206.731 195.962 206.775C198.428 206.79 199.802 206.155 200.57 205.491Z" fill="#BE5552"/>
<path d="M191.622 201.792C191.622 201.792 183.867 198.16 181.92 199.322C179.972 200.483 181.561 209.461 183.312 210.281C185.063 211.101 192.248 206.965 192.248 206.965C192.248 206.965 193.293 204.344 191.622 201.792Z" fill="#DF6561"/>
<path d="M261.309 333.112C260.397 337.457 258.972 345.348 257.391 349.906C256.821 351.587 256.223 352.812 255.638 353.239C253.43 354.82 236.83 365.361 231.572 367.554C226.315 369.748 183.555 363.537 183.555 363.537L186.176 349.706L187.73 341.545C187.73 341.545 219.817 325.235 223.836 324.124C227.839 323.013 228.808 325.036 227.697 328.113C226.6 331.175 216.64 339.451 216.64 339.451C216.64 339.451 238.07 337.286 241.247 335.747C244.439 334.223 255.225 322.6 259.642 321.504C264.074 320.392 262.549 327.173 261.309 333.112Z" fill="#F5C3C0"/>
<path d="M257.391 349.906C256.821 351.587 256.223 352.812 255.638 353.239C253.43 354.82 236.83 365.361 231.572 367.554C226.315 369.748 183.555 363.537 183.555 363.537L186.176 349.706C198.416 353.225 221.698 357.498 230.433 357.825C237.813 358.11 249.967 353.253 257.391 349.906Z" fill="#EFA097"/>
<path d="M254.522 337.161C254.522 337.161 247.873 342.418 246.923 343.249C245.973 344.08 235.881 347.047 235.881 347.047" stroke="#1B2D3D" stroke-width="1.33795" stroke-miterlimit="10" stroke-linecap="round" stroke-linejoin="round"/>
<path d="M253.572 345.504C253.572 345.504 240.629 353.694 239.086 354.643" stroke="#1B2D3D" stroke-width="1.33795" stroke-miterlimit="10" stroke-linecap="round" stroke-linejoin="round"/>
<path d="M189.597 337.058C189.597 337.058 188.927 346.886 187.588 357.655C186.818 363.808 185.821 370.261 184.595 375.346C184.595 375.346 153.548 373.195 132.873 370.489C125.635 369.548 119.664 368.537 116.758 367.512C105.516 363.609 101.882 356.059 101.597 350.761C101.583 350.405 101.583 349.536 101.612 348.225C101.668 345.861 101.797 342.1 102.025 337.3C103.464 305.593 108.437 229.032 116.758 221.112C116.758 221.112 124.224 218.078 129.04 216.198C129.04 216.198 147.706 232.151 151.339 248.005C151.339 248.005 154.944 298.742 149.644 319.98L148.546 323.939L189.597 337.058Z" fill="#EE9087"/>
<path d="M101.751 250.928C101.797 244.746 104.481 238.141 106.023 232.153C107.407 226.773 108.236 220.815 112.673 217.023C120.309 210.498 132.737 209.975 141.788 206.091C143.186 205.491 142.112 203.571 140.82 203.796C133.596 205.055 126.217 207.397 119.279 209.783C114.899 211.288 110.516 213.321 107.695 217.148C104.517 221.46 103.669 227.324 102.367 232.38C100.659 239.017 99.4124 244.299 100.417 251.108C100.531 251.881 101.746 251.671 101.751 250.928Z" fill="white"/>
<path d="M99.1634 268.74C95.8642 289.779 93.0977 310.948 91.3776 332.19C90.0602 348.459 92.4455 365.14 108.22 373.722C109.062 374.181 109.864 373.117 109.229 372.414C106.204 369.064 102.445 366.612 99.655 363C96.3326 358.698 94.6122 353.647 94.0093 348.266C93.1452 340.552 94.4121 332.731 95.2881 325.08C97.4298 306.375 99.0641 287.656 100.12 268.87C100.151 268.331 99.2492 268.194 99.1634 268.74Z" fill="white"/>
<path d="M88.3028 364.469C93.5524 374.303 101.845 382.827 112.065 387.538C113.786 388.332 115.29 385.916 113.579 384.949C103.967 379.521 95.9311 372.855 89.631 363.693C89.0744 362.884 87.8315 363.586 88.3028 364.469Z" fill="white"/>
<path d="M151.339 248.005C151.339 248.005 152.311 261.692 152.503 277.824L151.339 248.005Z" fill="#D36265"/>
<path d="M137.659 224.819C143.071 230.907 149.383 239.471 151.339 248.005C151.339 248.005 151.854 232.248 146.455 223.748" fill="#D36265"/>
<path d="M187.588 357.655C186.818 363.808 185.821 370.261 184.595 375.346C184.595 375.346 153.548 373.195 132.873 370.489C125.635 369.548 119.664 368.537 116.758 367.512C105.516 363.609 101.882 356.059 101.597 350.761C101.583 350.405 101.583 349.536 101.612 348.225C122.329 355.276 164.861 357.156 187.588 357.655Z" fill="#F08175"/>
<path d="M183.55 338.915C183.55 338.915 182.202 357.669 179.506 367.551L183.55 338.915Z" fill="white"/>
<path d="M183.55 338.915C183.55 338.915 182.202 357.669 179.506 367.551" stroke="white" stroke-width="1.33795" stroke-miterlimit="10" stroke-linecap="round" stroke-linejoin="round"/>
<path d="M158.395 366.632C160.106 366.632 161.492 365.246 161.492 363.537C161.492 361.827 160.106 360.441 158.395 360.441C156.685 360.441 155.299 361.827 155.299 363.537C155.299 365.246 156.685 366.632 158.395 366.632Z" fill="white"/>
<path d="M168.029 367.551C169.739 367.551 171.126 366.165 171.126 364.455C171.126 362.746 169.739 361.36 168.029 361.36C166.319 361.36 164.933 362.746 164.933 364.455C164.933 366.165 166.319 367.551 168.029 367.551Z" fill="white"/>
<path d="M209.692 162.343C209.768 162.364 209.848 162.379 209.932 162.383C210.151 162.398 215.31 162.672 217.311 158.469C217.524 158.019 217.428 157.483 217.069 157.137C213.926 154.108 211.963 146.946 211.943 146.873C211.777 146.251 211.136 145.89 210.523 146.058C209.906 146.225 209.54 146.86 209.708 147.478C209.788 147.777 211.618 154.448 214.825 158.131C213.268 160.222 210.106 160.074 210.072 160.072C209.436 160.037 208.888 160.524 208.851 161.16C208.818 161.713 209.178 162.199 209.692 162.343Z" fill="#5B1C10"/>
<path d="M203.585 171.2C210.019 173.002 214.803 171.497 215.046 171.418C215.653 171.221 215.983 170.57 215.787 169.962L198.731 167.996C198.45 168.572 198.688 169.265 199.262 169.546C200.759 170.279 202.208 170.815 203.585 171.2Z" fill="#5B1C10"/>
<path d="M205.325 135.504C205.325 135.504 205.041 130.831 203.901 129.942C202.761 129.053 202.595 131.28 202.595 131.28C202.595 131.28 193.377 129.331 192.17 138.604C192.17 138.604 196.314 133.559 205.325 135.504Z" fill="#5B1C10"/>
<path d="M215.593 136.302C215.593 136.302 215.877 131.628 217.017 130.739C218.157 129.85 218.323 132.078 218.323 132.078C218.323 132.078 227.541 130.128 228.748 139.402C228.748 139.402 224.604 134.356 215.593 136.302Z" fill="#5B1C10"/>
<path d="M202.29 149.417C204.269 149.405 205.861 147.398 205.846 144.934C205.832 142.469 204.216 140.481 202.237 140.493C200.258 140.505 198.665 142.512 198.68 144.977C198.695 147.441 200.311 149.429 202.29 149.417Z" fill="#5B1C10"/>
<path d="M203.491 145.137C204.148 145.321 204.829 144.938 205.012 144.281C205.196 143.625 204.813 142.944 204.157 142.76C203.501 142.577 202.82 142.96 202.636 143.616C202.452 144.272 202.835 144.953 203.491 145.137Z" fill="white"/>
<path d="M221.145 148.592C223.124 148.58 224.717 146.573 224.702 144.108C224.687 141.644 223.071 139.656 221.092 139.667C219.113 139.679 217.521 141.687 217.535 144.151C217.55 146.615 219.166 148.604 221.145 148.592Z" fill="#5B1C10"/>
<path d="M222.347 144.311C223.003 144.495 223.684 144.112 223.868 143.456C224.052 142.8 223.669 142.119 223.012 141.935C222.356 141.751 221.675 142.134 221.491 142.79C221.308 143.447 221.691 144.127 222.347 144.311Z" fill="white"/>
</g>
<g filter="url(#filter0_bi_756_2089)">
<rect width="135.57" height="169.861" rx="7.93224" transform="matrix(-1 0 0 1 488.848 180.835)" fill="white" fill-opacity="0.1"/>
<rect width="135.57" height="169.861" rx="7.93224" transform="matrix(-1 0 0 1 488.848 180.835)" fill="url(#paint0_linear_756_2089)" fill-opacity="0.08"/>
<rect x="-1.07967" y="1.07967" width="133.41" height="167.701" rx="6.85257" transform="matrix(-1 0 0 1 486.688 180.835)" stroke="url(#paint1_linear_756_2089)" stroke-opacity="0.1" stroke-width="2.15933"/>
</g>
<g filter="url(#filter1_bi_756_2089)">
<rect x="339.721" y="189.608" width="137.962" height="169.861" rx="7.93224" fill="white"/>
<rect x="339.721" y="189.608" width="137.962" height="169.861" rx="7.93224" fill="url(#paint2_linear_756_2089)" fill-opacity="0.08"/>
<rect x="340.8" y="190.687" width="135.803" height="167.701" rx="6.85257" stroke="url(#paint3_linear_756_2089)" stroke-opacity="0.1" stroke-width="2.15933"/>
</g>
<circle r="23.3305" transform="matrix(-1 0 0 1 436.808 238.457)" fill="#83B7AD"/>
<path d="M431.123 238.71C431.96 239.411 434.441 241.812 434.793 245.918C434.809 246.099 434.964 246.237 435.147 246.237H438.567C438.749 246.237 438.905 246.099 438.92 245.918C439.274 241.812 441.754 239.411 442.591 238.71C442.738 238.587 442.759 238.368 442.638 238.219C440.651 235.777 438.543 231.75 437.509 229.663C437.463 229.57 437.324 229.604 437.324 229.707V238.514C437.576 238.67 437.743 238.947 437.743 239.266C437.743 239.817 437.241 240.25 436.671 240.134C436.336 240.065 436.064 239.796 435.992 239.462C435.906 239.067 436.087 238.701 436.39 238.514V229.71C436.39 229.607 436.251 229.573 436.205 229.666C435.17 231.753 433.063 235.778 431.076 238.219C430.955 238.368 430.975 238.587 431.123 238.71Z" fill="white"/>
<path d="M434.652 250.085H439.062C439.344 250.085 439.572 249.856 439.572 249.575V247.586C439.572 247.304 439.344 247.075 439.062 247.075H434.652C434.37 247.075 434.142 247.304 434.142 247.586V249.575C434.142 249.856 434.37 250.085 434.652 250.085Z" fill="white"/>
<path d="M448.306 227.182H425.365" stroke="white" stroke-width="0.645606" stroke-miterlimit="10"/>
<path d="M448.306 227.916C447.937 227.916 447.638 227.617 447.638 227.248C447.638 226.88 447.937 226.581 448.306 226.581C448.675 226.581 448.974 226.88 448.974 227.248C448.974 227.617 448.675 227.916 448.306 227.916Z" fill="#DF9334"/>
<path d="M425.365 227.916C424.997 227.916 424.698 227.617 424.698 227.248C424.698 226.88 424.997 226.581 425.365 226.581C425.734 226.581 426.033 226.88 426.033 227.248C426.033 227.617 425.734 227.916 425.365 227.916Z" fill="#DF9334"/>
<path d="M447.073 237.427C447.073 231.773 442.49 227.189 436.836 227.189C431.182 227.189 426.598 231.773 426.598 237.427" stroke="white" stroke-width="0.645606" stroke-miterlimit="10"/>
<path d="M436.027 226.291H437.645V227.908H436.027V226.291Z" fill="#B9233E"/>
<rect width="102.873" height="7.17722" transform="matrix(-1 0 0 1 460.139 296.468)" fill="#83B7AD"/>
<rect width="102.873" height="7.17722" transform="matrix(-1 0 0 1 460.139 281)" fill="#83B7AD"/>
<rect width="102.873" height="7.17722" transform="matrix(-1 0 0 1 460.139 312.418)" fill="#83B7AD"/>
<rect width="102.873" height="7.17722" transform="matrix(-1 0 0 1 460.139 326.772)" fill="#83B7AD"/>
<g filter="url(#filter2_bi_756_2089)">
<rect y="422.468" width="133.975" height="106.861" rx="7.93224" fill="white" fill-opacity="0.1"/>
<rect y="422.468" width="133.975" height="106.861" rx="7.93224" fill="url(#paint4_linear_756_2089)" fill-opacity="0.08"/>
<rect x="1.07967" y="423.548" width="131.815" height="104.701" rx="6.85257" stroke="url(#paint5_linear_756_2089)" stroke-opacity="0.1" stroke-width="2.15933"/>
</g>
<g filter="url(#filter3_bi_756_2089)">
<rect width="136.367" height="106.861" rx="7.93224" transform="matrix(-1 0 0 1 147.532 428.051)" fill="white"/>
<rect width="136.367" height="106.861" rx="7.93224" transform="matrix(-1 0 0 1 147.532 428.051)" fill="url(#paint6_linear_756_2089)" fill-opacity="0.08"/>
<rect x="-1.07967" y="1.07967" width="134.208" height="104.701" rx="6.85257" transform="matrix(-1 0 0 1 145.373 428.051)" stroke="url(#paint7_linear_756_2089)" stroke-opacity="0.1" stroke-width="2.15933"/>
</g>
<rect width="58.2152" height="4.78481" rx="2.39241" transform="matrix(-1 0 0 1 128.392 447.987)" fill="#EFE3EC"/>
<rect width="34.2911" height="4.78481" rx="2.39241" transform="matrix(-1 0 0 1 128.392 455.164)" fill="#EFE3EC"/>
<rect width="20.7342" height="20.7342" rx="6.37975" transform="matrix(-1 0 0 1 55.0254 456.759)" fill="#F4C584"/>
<rect width="7.17722" height="46.2532" transform="matrix(-1 0 0 1 133.975 479.089)" fill="#77B0A8"/>
<rect width="7.17722" height="34.2911" transform="matrix(-1 0 0 1 105.266 491.051)" fill="#EE7C92"/>
<rect width="7.17722" height="25.519" transform="matrix(-1 0 0 1 76.5566 499.823)" fill="#92BEFA"/>
<rect width="7.17722" height="15.1519" transform="matrix(-1 0 0 1 50.2402 510.19)" fill="#EE7C92"/>
<rect width="7.17722" height="32.6962" transform="matrix(-1 0 0 1 125.202 492.646)" fill="#EF988F"/>
<rect width="7.17722" height="23.9241" transform="matrix(-1 0 0 1 96.4932 501.418)" fill="#FCECEB"/>
<rect width="7.17722" height="17.5443" transform="matrix(-1 0 0 1 67.7842 507.797)" fill="#F18A7E"/>
<rect width="7.17722" height="10.3671" transform="matrix(-1 0 0 1 41.4678 514.975)" fill="#EF9890"/>
<g clip-path="url(#clip1_756_2089)">
<path d="M667.598 29.9051L642.956 10.7658L755.16 0L722.384 74.1646L689.847 48.0617L666.162 60.0494L680.038 40.1924L755.16 0L667.598 29.9051Z" fill="#FCECEB"/>
<path d="M665.923 60.5278L667.358 30.1443L755.399 0L680.038 39.9532L665.923 60.5278Z" fill="#EE7C92"/>
<path d="M566 129.19C618.234 129.19 631.791 120.816 631.791 81.3418C631.791 39.0759 591.918 44.2595 591.918 68.1835C591.918 101.746 666.082 120.019 666.082 61.0062" stroke="#DED2FA" stroke-width="2.39241" stroke-linecap="round" stroke-linejoin="round" stroke-dasharray="10.11 10.11"/>
</g>
<defs>
<filter id="filter0_bi_756_2089" x="320.888" y="148.445" width="200.349" height="234.641" filterUnits="userSpaceOnUse" color-interpolation-filters="sRGB">
<feFlood flood-opacity="0" result="BackgroundImageFix"/>
<feGaussianBlur in="BackgroundImage" stdDeviation="16.195"/>
<feComposite in2="SourceAlpha" operator="in" result="effect1_backgroundBlur_756_2089"/>
<feBlend mode="normal" in="SourceGraphic" in2="effect1_backgroundBlur_756_2089" result="shape"/>
<feColorMatrix in="SourceAlpha" type="matrix" values="0 0 0 0 0 0 0 0 0 0 0 0 0 0 0 0 0 0 127 0" result="hardAlpha"/>
<feOffset dy="5.39833"/>
<feGaussianBlur stdDeviation="10.7967"/>
<feComposite in2="hardAlpha" operator="arithmetic" k2="-1" k3="1"/>
<feColorMatrix type="matrix" values="0 0 0 0 1 0 0 0 0 1 0 0 0 0 1 0 0 0 0.4 0"/>
<feBlend mode="normal" in2="shape" result="effect2_innerShadow_756_2089"/>
</filter>
<filter id="filter1_bi_756_2089" x="307.331" y="157.218" width="202.742" height="234.641" filterUnits="userSpaceOnUse" color-interpolation-filters="sRGB">
<feFlood flood-opacity="0" result="BackgroundImageFix"/>
<feGaussianBlur in="BackgroundImage" stdDeviation="16.195"/>
<feComposite in2="SourceAlpha" operator="in" result="effect1_backgroundBlur_756_2089"/>
<feBlend mode="normal" in="SourceGraphic" in2="effect1_backgroundBlur_756_2089" result="shape"/>
<feColorMatrix in="SourceAlpha" type="matrix" values="0 0 0 0 0 0 0 0 0 0 0 0 0 0 0 0 0 0 127 0" result="hardAlpha"/>
<feOffset dy="5.39833"/>
<feGaussianBlur stdDeviation="10.7967"/>
<feComposite in2="hardAlpha" operator="arithmetic" k2="-1" k3="1"/>
<feColorMatrix type="matrix" values="0 0 0 0 1 0 0 0 0 1 0 0 0 0 1 0 0 0 0.4 0"/>
<feBlend mode="normal" in2="shape" result="effect2_innerShadow_756_2089"/>
</filter>
<filter id="filter2_bi_756_2089" x="-32.39" y="390.078" width="198.755" height="171.641" filterUnits="userSpaceOnUse" color-interpolation-filters="sRGB">
<feFlood flood-opacity="0" result="BackgroundImageFix"/>
<feGaussianBlur in="BackgroundImage" stdDeviation="16.195"/>
<feComposite in2="SourceAlpha" operator="in" result="effect1_backgroundBlur_756_2089"/>
<feBlend mode="normal" in="SourceGraphic" in2="effect1_backgroundBlur_756_2089" result="shape"/>
<feColorMatrix in="SourceAlpha" type="matrix" values="0 0 0 0 0 0 0 0 0 0 0 0 0 0 0 0 0 0 127 0" result="hardAlpha"/>
<feOffset dy="5.39833"/>
<feGaussianBlur stdDeviation="10.7967"/>
<feComposite in2="hardAlpha" operator="arithmetic" k2="-1" k3="1"/>
<feColorMatrix type="matrix" values="0 0 0 0 1 0 0 0 0 1 0 0 0 0 1 0 0 0 0.4 0"/>
<feBlend mode="normal" in2="shape" result="effect2_innerShadow_756_2089"/>
</filter>
<filter id="filter3_bi_756_2089" x="-21.2249" y="395.661" width="201.147" height="171.641" filterUnits="userSpaceOnUse" color-interpolation-filters="sRGB">
<feFlood flood-opacity="0" result="BackgroundImageFix"/>
<feGaussianBlur in="BackgroundImage" stdDeviation="16.195"/>
<feComposite in2="SourceAlpha" operator="in" result="effect1_backgroundBlur_756_2089"/>
<feBlend mode="normal" in="SourceGraphic" in2="effect1_backgroundBlur_756_2089" result="shape"/>
<feColorMatrix in="SourceAlpha" type="matrix" values="0 0 0 0 0 0 0 0 0 0 0 0 0 0 0 0 0 0 127 0" result="hardAlpha"/>
<feOffset dy="5.39833"/>
<feGaussianBlur stdDeviation="10.7967"/>
<feComposite in2="hardAlpha" operator="arithmetic" k2="-1" k3="1"/>
<feColorMatrix type="matrix" values="0 0 0 0 1 0 0 0 0 1 0 0 0 0 1 0 0 0 0.4 0"/>
<feBlend mode="normal" in2="shape" result="effect2_innerShadow_756_2089"/>
</filter>
<linearGradient id="paint0_linear_756_2089" x1="5.64873" y1="33.9722" x2="154.453" y2="50.4672" gradientUnits="userSpaceOnUse">
<stop stop-color="#FE82DB"/>
<stop offset="1" stop-color="#68E4FF"/>
</linearGradient>
<linearGradient id="paint1_linear_756_2089" x1="4.23655" y1="7.72095" x2="135.57" y2="7.72095" gradientUnits="userSpaceOnUse">
<stop stop-color="#FD84DC"/>
<stop offset="1" stop-color="#7FD6FA"/>
</linearGradient>
<linearGradient id="paint2_linear_756_2089" x1="345.469" y1="223.58" x2="496.834" y2="240.655" gradientUnits="userSpaceOnUse">
<stop stop-color="#FE82DB"/>
<stop offset="1" stop-color="#68E4FF"/>
</linearGradient>
<linearGradient id="paint3_linear_756_2089" x1="344.032" y1="197.329" x2="477.683" y2="197.329" gradientUnits="userSpaceOnUse">
<stop stop-color="#FD84DC"/>
<stop offset="1" stop-color="#7FD6FA"/>
</linearGradient>
<linearGradient id="paint4_linear_756_2089" x1="5.58228" y1="443.84" x2="150.062" y2="468.999" gradientUnits="userSpaceOnUse">
<stop stop-color="#FE82DB"/>
<stop offset="1" stop-color="#68E4FF"/>
</linearGradient>
<linearGradient id="paint5_linear_756_2089" x1="4.18671" y1="427.326" x2="133.975" y2="427.326" gradientUnits="userSpaceOnUse">
<stop stop-color="#FD84DC"/>
<stop offset="1" stop-color="#7FD6FA"/>
</linearGradient>
<linearGradient id="paint6_linear_756_2089" x1="5.68196" y1="21.3722" x2="152.586" y2="47.4093" gradientUnits="userSpaceOnUse">
<stop stop-color="#FE82DB"/>
<stop offset="1" stop-color="#68E4FF"/>
</linearGradient>
<linearGradient id="paint7_linear_756_2089" x1="4.26147" y1="4.85731" x2="136.367" y2="4.85731" gradientUnits="userSpaceOnUse">
<stop stop-color="#FD84DC"/>
<stop offset="1" stop-color="#7FD6FA"/>
</linearGradient>
<clipPath id="clip0_756_2089">
<rect width="304.633" height="466.519" fill="white" transform="matrix(-1 0 0 1 369.228 83.5443)"/>
</clipPath>
<clipPath id="clip1_756_2089">
<rect width="189.399" height="129.19" fill="white" transform="translate(566)"/>
</clipPath>
</defs>
</svg>
