<svg width="24" height="24" viewBox="0 0 24 24" fill="none" xmlns="http://www.w3.org/2000/svg">
<rect width="24" height="24" rx="4" fill="#E9F1F1"/>
<path d="M14.2814 7.87883C14.2812 7.87919 14.2807 7.87983 14.2798 7.88068C14.2767 7.88365 14.2663 7.89148 14.2437 7.89148L14.2426 7.89148C14.2275 7.89151 14.2181 7.88884 14.213 7.88685C14.2078 7.88478 14.2054 7.88273 14.2047 7.88207C14.2047 7.88204 14.2047 7.88201 14.2046 7.88199C14.2046 7.88141 14.2045 7.88047 14.2045 7.87907V7.87842L14.2038 7.33869L14.2031 6.8387L13.7031 6.83934L9.54894 6.84467L9.04893 6.84531L9.04958 7.34532L9.05028 7.88373H9.55028M14.2814 7.87883C14.2817 7.87846 14.2817 7.87836 14.2816 7.87862C14.2813 7.87925 14.2814 7.87952 14.2814 7.87883ZM14.2814 7.87883C14.2815 7.87862 14.2815 7.87831 14.2815 7.87791L14.2815 7.87842L14.7815 7.87774M14.7815 7.87774C14.7815 8.16426 14.5444 8.39148 14.2437 8.39148C13.936 8.39215 13.7045 8.16559 13.7045 7.87907L13.7044 7.83934L13.7038 7.33934L13.2038 7.33999L10.0496 7.34402L9.54958 7.34467L9.55022 7.84467L9.55028 7.88373M14.7815 7.87774L14.7815 7.86662C14.7678 7.86534 14.754 7.86414 14.7401 7.863L14.7808 7.36466L15.2808 7.36398L15.2809 7.44005C16.2588 7.66417 16.8309 8.30828 16.9305 9.39408L16.9447 9.39406L16.945 9.64713C16.9451 9.65169 16.9452 9.65626 16.9453 9.66084V9.89406L6.35702 9.90739L6.35631 9.70016C6.35628 9.67969 6.3564 9.65935 6.35668 9.63916L6.35639 9.40739L6.3669 9.40737C6.44926 8.32765 7.00974 7.68762 7.97268 7.45382L7.97257 7.37267L8.47257 7.37199L8.51951 7.86978C8.50396 7.87125 8.48854 7.8728 8.47326 7.87444L8.47327 7.88507C8.47327 8.17226 8.70476 8.39814 9.01248 8.39748C9.32019 8.39748 9.55028 8.17092 9.55028 7.88373M14.7815 7.87774H14.2815L14.2808 7.36534L14.28 6.8221L14.8215 6.86632C15.5871 6.92884 16.2509 7.17625 16.7263 7.67109C17.2033 8.16752 17.4283 8.84804 17.4452 9.65035L17.4454 9.66084H17.4453V9.89406V10.3934L16.9459 10.3941L6.35765 10.4074L5.85871 10.408L5.85702 9.90908L5.85631 9.70186L5.85631 9.70088C5.85514 8.89222 6.06692 8.20559 6.53636 7.70155C7.00399 7.19946 7.66461 6.94596 8.42563 6.8742L8.97182 6.82269L8.97257 7.37131L8.97327 7.88438L8.97327 7.88507C8.97327 7.88658 8.97337 7.88761 8.97346 7.88825C8.97418 7.88892 8.97652 7.89085 8.98151 7.89281C8.98659 7.89481 8.99615 7.89751 9.01139 7.89748L9.01248 7.89748C9.02766 7.89748 9.03705 7.89477 9.04193 7.89283C9.04698 7.89083 9.04918 7.88888 9.04975 7.88834C9.04981 7.88828 9.04987 7.88822 9.04991 7.88817C9.05006 7.88752 9.05027 7.88616 9.05028 7.88386L9.05028 7.88438L9.55028 7.88373M14.2406 5.83301H14.2406C14.2675 5.83295 14.2778 5.84204 14.2786 5.84288C14.2789 5.84314 14.279 5.84327 14.279 5.84327C14.279 5.84327 14.2787 5.84291 14.2784 5.84221C14.2783 5.84182 14.2782 5.84159 14.2782 5.84157C14.2782 5.84153 14.2787 5.84295 14.2787 5.84661L14.2794 6.34587L14.28 6.8097L14.7426 6.84382C15.6205 6.90857 16.3097 7.21851 16.7765 7.68888C17.2401 8.15606 17.5207 8.81748 17.5216 9.66006V9.6602L17.5293 15.2774C17.5293 15.2774 17.5293 15.2774 17.5293 15.2774C17.5305 16.2076 17.224 16.9109 16.7134 17.3852C16.1982 17.8636 15.4216 18.1581 14.3962 18.1597C14.3962 18.1597 14.3961 18.1597 14.3961 18.1597L8.92794 18.1663C7.91358 18.1676 7.13612 17.8689 6.61624 17.3823C6.0999 16.8991 5.78824 16.1847 5.787 15.252V15.252L5.7793 9.7008L5.7793 9.70077C5.77807 8.84659 6.04981 8.18225 6.50229 7.71335C6.95741 7.2417 7.63485 6.92729 8.51421 6.85131L8.97182 6.81177L8.97117 6.35247L8.97047 5.85272L8.97047 5.85222C8.97047 5.84992 8.9706 5.84821 8.97075 5.84701C8.9718 5.84638 8.9734 5.84556 8.97568 5.84467C8.9809 5.84264 8.99136 5.83967 9.00828 5.83968L9.00936 5.83967C9.02632 5.83964 9.03676 5.84258 9.04193 5.84458C9.04437 5.84552 9.04602 5.8464 9.04706 5.84703C9.04727 5.84833 9.04747 5.85032 9.04748 5.85314C9.04748 5.85318 9.04748 5.85323 9.04748 5.85328L9.04818 6.31927L9.04893 6.81916L9.54882 6.81852L13.703 6.81319L14.2031 6.81254L14.2024 6.31244L14.2017 5.846L14.2017 5.84556C14.2017 5.84344 14.2018 5.84183 14.2019 5.84066C14.203 5.84 14.2047 5.83914 14.2071 5.83821C14.2125 5.83608 14.2233 5.83305 14.2406 5.83301Z" stroke="#347474"/>
<circle cx="8.6543" cy="12.5" r="1" fill="#347474"/>
<circle cx="11.6543" cy="12.5" r="1" fill="#347474"/>
<circle cx="14.6543" cy="12.5" r="1" fill="#347474"/>
<circle cx="14.6543" cy="15.5" r="1" fill="#347474"/>
<circle cx="11.6543" cy="15.5" r="1" fill="#347474"/>
<circle cx="8.6543" cy="15.5" r="1" fill="#347474"/>
</svg>
