<svg width="17" height="17" viewBox="0 0 17 17" fill="none" xmlns="http://www.w3.org/2000/svg">
<path d="M15.6925 14.8478C16.0168 14.8478 16.2798 15.121 16.2798 15.4579C16.2798 15.7668 16.0588 16.0221 15.7722 16.0625L15.6925 16.0681H9.56507C9.24071 16.0681 8.97776 15.7949 8.97776 15.4579C8.97776 15.1491 9.19871 14.8938 9.48538 14.8534L9.56507 14.8478H15.6925ZM9.73295 0.86637C10.8449 -0.28879 12.6484 -0.28879 13.7604 0.86637L14.9147 2.0656C16.0267 3.22076 16.0267 5.09438 14.9147 6.24954L6.23814 15.2634C5.74201 15.7788 5.06935 16.068 4.36724 16.068H0.813879C0.483784 16.068 0.218522 15.7855 0.226749 15.4426L0.316132 11.7178C0.333903 11.0138 0.611189 10.3427 1.09046 9.84477L9.73295 0.86637ZM9.06119 3.28829L1.92105 10.7076C1.65464 10.9844 1.50024 11.3581 1.49037 11.749L1.41579 14.8473L4.36724 14.8477C4.71453 14.8477 5.04851 14.7207 5.31212 14.4913L5.40756 14.4005L12.5831 6.94614L9.06119 3.28829ZM12.9298 1.72924C12.2765 1.05063 11.2168 1.05063 10.5635 1.72924L9.89239 2.42534L13.4134 6.08319L14.0841 5.38667C14.7011 4.74576 14.7353 3.7281 14.1869 3.04533L14.0841 2.92846L12.9298 1.72924Z" fill="#347474"/>
</svg>
