<svg width="23" height="23" viewBox="0 0 23 23" fill="none" xmlns="http://www.w3.org/2000/svg">
<rect width="23" height="23" rx="4" fill="#E9F1F1"/>
<path d="M11.7338 4C14.3442 4 16.4678 6.10339 16.4678 8.68885C16.4678 9.39394 16.3136 10.0716 16.0096 10.7034C16.0035 10.7169 15.997 10.7302 15.9902 10.7435L12.4135 17.6028C12.2822 17.8545 12.02 18.0127 11.7339 18.0127C11.4478 18.0127 11.1856 17.8546 11.0543 17.6028L7.47859 10.7453C7.47241 10.7335 7.46666 10.7216 7.46115 10.7095C7.15514 10.0759 7.00003 9.39618 7.00003 8.68885C6.99991 6.10339 9.12353 4 11.7338 4ZM11.7338 11.1431C13.1001 11.1431 14.2117 10.0421 14.2117 8.68885C14.2117 7.33564 13.1001 6.23467 11.7338 6.23467C10.3676 6.23467 9.256 7.33564 9.256 8.68885C9.256 10.0421 10.3676 11.1431 11.7338 11.1431Z" fill="#347474"/>
</svg>
