<svg width="17" height="17" viewBox="0 0 17 17" fill="none" xmlns="http://www.w3.org/2000/svg">
<path d="M6.09321 10.0794L6.3499 10.0805C10.0779 10.1146 12.1872 10.9054 12.1872 13.0653C12.1872 15.1795 10.1657 15.995 6.60063 16.0633L6.09321 16.0681C2.20472 16.0681 0 15.2918 0 13.0822C0 10.8697 2.21349 10.0794 6.09321 10.0794ZM6.09321 11.3439C2.86853 11.3439 1.20403 11.9382 1.20403 13.0822C1.20403 14.2189 2.86454 14.8036 6.09321 14.8036C9.31813 14.8036 10.9832 14.2092 10.9832 13.0653C10.9832 11.9292 9.32117 11.3439 6.09321 11.3439ZM12.5113 9.48239C12.9773 9.51568 13.4406 9.58583 13.8858 9.6895C14.8395 9.88873 15.5485 10.2606 15.8733 10.9765C16.1132 11.5065 16.1132 12.1231 15.8734 12.653C15.5503 13.3671 14.8487 13.7363 13.8897 13.9435C13.564 14.0138 13.2457 13.7936 13.1787 13.4516C13.1117 13.1095 13.3214 12.7752 13.6471 12.7049C14.2642 12.5716 14.675 12.3554 14.7859 12.1103C14.8703 11.9238 14.8703 11.7058 14.7861 11.5199C14.6745 11.2739 14.2616 11.0573 13.6382 10.9269C13.239 10.8341 12.8354 10.773 12.4296 10.744C12.0978 10.7203 11.8472 10.4187 11.8698 10.0703C11.8923 9.7219 12.1795 9.4587 12.5113 9.48239ZM6.09321 0C8.3793 0 10.215 1.92762 10.215 4.32798C10.215 6.72904 8.37944 8.65681 6.09321 8.65681C3.80709 8.65681 1.97221 6.72916 1.97221 4.32798C1.97221 1.9275 3.80724 0 6.09321 0ZM11.2535 0.901677C13.0474 0.901677 14.5019 2.4296 14.5019 4.31332C14.5019 6.19761 13.0476 7.72495 11.2535 7.72495C10.921 7.72495 10.6514 7.44188 10.6514 7.0927C10.6514 6.74352 10.921 6.46045 11.2535 6.46045C12.3827 6.46045 13.2979 5.49924 13.2979 4.31332C13.2979 3.12791 12.3824 2.16618 11.2535 2.16618C10.921 2.16618 10.6514 1.88311 10.6514 1.53393C10.6514 1.18475 10.921 0.901677 11.2535 0.901677ZM6.09321 1.26451C4.47225 1.26451 3.17624 2.62582 3.17624 4.32798C3.17624 6.03088 4.47215 7.39231 6.09321 7.39231C7.71447 7.39231 9.01099 6.03067 9.01099 4.32798C9.01099 2.62603 7.71437 1.26451 6.09321 1.26451Z" fill="#347474"/>
</svg>
