<svg width="24" height="24" viewBox="0 0 24 24" fill="none" xmlns="http://www.w3.org/2000/svg">
<rect width="24" height="24" rx="4" fill="#E9F1F1"/>
<path fill-rule="evenodd" clip-rule="evenodd" d="M11.8834 19.2465C9.11455 19.2465 6.75 18.8156 6.75 17.09C6.75 15.3645 9.09955 13.7715 11.8834 13.7715C14.6523 13.7715 17.0168 15.349 17.0168 17.0746C17.0168 18.7995 14.6673 19.2465 11.8834 19.2465Z" stroke="#347474" stroke-linecap="round" stroke-linejoin="round"/>
<path fill-rule="evenodd" clip-rule="evenodd" d="M11.8783 11.38C13.6954 11.38 15.1681 9.9073 15.1681 8.09026C15.1681 6.27322 13.6954 4.7998 11.8783 4.7998C10.0613 4.7998 8.58791 6.27322 8.58791 8.09026C8.58177 9.90117 10.0443 11.3739 11.8552 11.38C11.8633 11.38 11.8708 11.38 11.8783 11.38Z" stroke="#347474" stroke-linecap="round" stroke-linejoin="round"/>
</svg>
