<svg width="15" height="15" viewBox="0 0 15 15" fill="none" xmlns="http://www.w3.org/2000/svg">
<path d="M5.99121 13.465V14.9842L5.62386 14.6875C5.56709 14.6416 4.21658 13.5451 2.84706 11.9728C0.95787 9.80381 0 7.85683 0 6.1861V6.02051C0 2.71694 2.68764 0.0292969 5.99121 0.0292969C9.29478 0.0292969 11.9824 2.71694 11.9824 6.02051V6.1861C11.9824 6.32641 11.975 6.46889 11.9615 6.61308L10.7898 5.5442C10.5499 3.10799 8.48946 1.19831 5.99121 1.19831C3.33229 1.19831 1.16901 3.36159 1.16901 6.02051V6.1861C1.16901 9.00936 4.80663 12.4271 5.99121 13.465ZM9.58591 12.6254H11.3394V10.8719H9.58591V12.6254ZM5.99121 3.53634C7.36095 3.53634 8.47538 4.65076 8.47538 6.02051C8.47538 7.39025 7.36095 8.50468 5.99121 8.50468C4.62147 8.50468 3.50704 7.39025 3.50704 6.02051C3.50704 4.65076 4.62147 3.53634 5.99121 3.53634ZM5.99121 4.70535C5.266 4.70535 4.67606 5.2953 4.67606 6.02051C4.67606 6.74561 5.266 7.33566 5.99121 7.33566C6.71631 7.33566 7.30637 6.74561 7.30637 6.02051C7.30637 5.2953 6.71631 4.70535 5.99121 4.70535ZM14.2122 11.831L13.8835 11.5312V13.4079C13.8835 14.2818 13.1725 14.9927 12.2986 14.9927H8.59749C7.72362 14.9927 7.0126 14.2818 7.0126 13.4079V11.5312L6.68392 11.831L5.89611 10.9674L10.448 6.81473L15 10.9674L14.2122 11.831ZM12.7145 10.4647L10.448 8.3971L8.18161 10.4647V13.4078C8.18161 13.6371 8.36815 13.8237 8.59749 13.8237H12.2986C12.528 13.8237 12.7145 13.6371 12.7145 13.4078V10.4647Z" fill="#688C8C"/>
</svg>
