<?xml version="1.0" standalone="no"?>
<!DOCTYPE svg PUBLIC "-//W3C//DTD SVG 1.0//EN" "http://www.w3.org/TR/2001/REC-SVG-20010904/DTD/svg10.dtd">
<svg xmlns="http://www.w3.org/2000/svg" xmlns:xlink="http://www.w3.org/1999/xlink" id="body_1" width="14" height="14">

<g transform="matrix(1 0 0 1 0 0)">
	<g>
        <path d="M11.539062 6.179688L8.53125 6.179688L8.53125 3.554688L7.546875 3.554688C 7.835938 3.171875 8.011719 2.683594 8.011719 2.15625C 8.011719 2.152344 8.011719 2.148438 8.011719 2.144531L8.011719 2.144531L8.011719 2.148438C 8.011719 1.390625 7.65625 0.679688 7.078125 0.292969L7.078125 0.292969L6.835938 0.128906L6.589844 0.292969C 6.015625 0.679688 5.65625 1.390625 5.65625 2.148438C 5.65625 2.148438 5.65625 2.152344 5.65625 2.15625C 5.65625 2.683594 5.832031 3.171875 6.128906 3.5625L6.128906 3.5625L6.125 3.554688L5.03125 3.554688L5.03125 6.179688L2.460938 6.179688C 1.585938 6.183594 0.875 6.890625 0.875 7.769531L0.875 7.769531L0.875 12.6875C 0.875 13.171875 1.265625 13.5625 1.75 13.5625L1.75 13.5625L12.25 13.5625C 12.734375 13.5625 13.125 13.171875 13.125 12.6875L13.125 12.6875L13.125 7.769531C 13.125 6.890625 12.414062 6.183594 11.539062 6.179688zM6.835938 1.246094C 7.027344 1.484375 7.136719 1.804688 7.136719 2.148438C 7.136719 2.488281 7.027344 2.808594 6.835938 3.046875C 6.644531 2.808594 6.53125 2.488281 6.53125 2.148438C 6.53125 1.804688 6.644531 1.484375 6.835938 1.246094zM5.90625 4.429688L7.65625 4.429688L7.65625 6.179688L5.90625 6.179688zM1.75 7.769531C 1.75 7.375 2.070312 7.058594 2.460938 7.054688L2.460938 7.054688L11.539062 7.054688C 11.933594 7.058594 12.25 7.375 12.25 7.769531L12.25 7.769531L12.25 8.632812L11.660156 8.890625C 11.550781 8.941406 11.425781 8.96875 11.292969 8.96875C 11.160156 8.96875 11.035156 8.941406 10.921875 8.890625L10.921875 8.890625L10.925781 8.890625L9.898438 8.4375L8.871094 8.890625C 8.761719 8.941406 8.636719 8.96875 8.503906 8.96875C 8.371094 8.96875 8.246094 8.941406 8.132812 8.890625L8.132812 8.890625L8.136719 8.890625L7.109375 8.4375L6.082031 8.890625C 5.976562 8.941406 5.847656 8.96875 5.714844 8.96875C 5.585938 8.96875 5.457031 8.941406 5.34375 8.890625L5.34375 8.890625L5.351562 8.890625L4.324219 8.4375L3.292969 8.890625C 3.1875 8.941406 3.0625 8.96875 2.929688 8.96875C 2.796875 8.96875 2.667969 8.941406 2.554688 8.890625L2.554688 8.890625L2.5625 8.890625L1.753906 8.535156zM12.25 12.6875L1.75 12.6875L1.75 9.492188L2.207031 9.691406C 2.417969 9.789062 2.664062 9.84375 2.925781 9.84375C 3.1875 9.84375 3.433594 9.789062 3.65625 9.6875L3.65625 9.6875L3.644531 9.691406L4.320312 9.394531L4.996094 9.691406C 5.207031 9.789062 5.453125 9.84375 5.714844 9.84375C 5.976562 9.84375 6.222656 9.789062 6.445312 9.6875L6.445312 9.6875L6.433594 9.691406L7.109375 9.394531L7.785156 9.691406C 7.996094 9.789062 8.246094 9.84375 8.503906 9.84375C 8.765625 9.84375 9.011719 9.789062 9.234375 9.6875L9.234375 9.6875L9.226562 9.691406L9.898438 9.394531L10.574219 9.691406C 10.785156 9.789062 11.035156 9.84375 11.292969 9.84375C 11.554688 9.84375 11.800781 9.789062 12.027344 9.6875L12.027344 9.6875L12.015625 9.691406L12.253906 9.585938L12.253906 12.6875z" stroke="none" fill="#688C8C" fill-rule="nonzero" />
	</g>
</g>
</svg>