<svg width="28" height="28" viewBox="0 0 28 28" fill="none" xmlns="http://www.w3.org/2000/svg">
<g clip-path="url(#clip0)">
<path d="M8.42688 13.8289C8.42688 14.4255 8.91056 14.9092 9.50725 14.9092H12.7484V18.1503C12.7484 18.747 13.232 19.2307 13.8287 19.2307C14.4254 19.2307 14.9091 18.747 14.9091 18.1503V14.9092H18.1502C18.7469 14.9092 19.2306 14.4255 19.2306 13.8289C19.2306 13.2322 18.7469 12.7485 18.1502 12.7485H14.9091V9.50737C14.9091 8.91068 14.4254 8.427 13.8287 8.427C13.232 8.427 12.7484 8.91068 12.7484 9.50737V12.7485H9.50725C8.91056 12.7485 8.42688 13.2322 8.42688 13.8289Z" fill="white"/>
<path d="M8.66494 3.3384L10.0623 2.75954C10.6135 2.53115 10.8754 1.89919 10.647 1.34793C10.4186 0.796667 9.78669 0.534731 9.23537 0.763284L7.83796 1.34215C7.28676 1.57054 7.02493 2.2025 7.25332 2.75376C7.48096 3.30318 8.11189 3.56733 8.66494 3.3384Z" fill="white"/>
<path d="M13.8297 0C13.233 0 12.7493 0.483717 12.7493 1.08045C12.7493 1.67718 13.233 2.1609 13.8297 2.1609C20.2788 2.1609 25.4986 7.3799 25.4986 13.8297C25.4986 20.2788 20.2796 25.4986 13.8297 25.4986C7.38065 25.4986 2.1609 20.2796 2.1609 13.8297C2.1609 13.233 1.67718 12.7493 1.08045 12.7493C0.483717 12.7493 0 13.233 0 13.8297C0 21.473 6.18541 27.6595 13.8297 27.6595C21.473 27.6595 27.6595 21.4741 27.6595 13.8297C27.6595 6.18649 21.4741 0 13.8297 0Z" fill="white"/>
<path d="M5.04347 6.11308L6.11298 5.04357C6.53492 4.62163 6.53492 3.93754 6.11298 3.51565C5.69104 3.09377 5.00695 3.09371 4.58506 3.51565L3.51555 4.58517C3.09361 5.00711 3.09361 5.6912 3.51555 6.11308C3.93738 6.53491 4.62153 6.53502 5.04347 6.11308Z" fill="white"/>
<path d="M1.34785 10.6469C1.9003 10.8757 2.53162 10.6122 2.75947 10.0623L3.33833 8.66479C3.56672 8.11353 3.30489 7.48157 2.75369 7.25318C2.20232 7.02484 1.57046 7.28661 1.34207 7.83782L0.763209 9.23523C0.534818 9.78654 0.796646 10.4185 1.34785 10.6469Z" fill="white"/>
</g>
<defs>
<clipPath id="clip0">
<rect width="27.6595" height="27.6595" fill="white"/>
</clipPath>
</defs>
</svg>
