<svg width="25" height="24" viewBox="0 0 25 24" fill="none" xmlns="http://www.w3.org/2000/svg">
<g clip-path="url(#clip0)">
<path d="M23.2916 21.4055L17.7111 15.6015C19.1459 13.8958 19.9321 11.7498 19.9321 9.51561C19.9321 4.29571 15.6852 0.0488281 10.4653 0.0488281C5.24541 0.0488281 0.998535 4.29571 0.998535 9.51561C0.998535 14.7355 5.24541 18.9824 10.4653 18.9824C12.4249 18.9824 14.2924 18.3913 15.889 17.2693L21.5118 23.1173C21.7468 23.3614 22.0629 23.496 22.4017 23.496C22.7223 23.496 23.0265 23.3737 23.2574 23.1515C23.748 22.6794 23.7637 21.8965 23.2916 21.4055ZM10.4653 2.51842C14.3236 2.51842 17.4625 5.65728 17.4625 9.51561C17.4625 13.3739 14.3236 16.5128 10.4653 16.5128C6.60698 16.5128 3.46813 13.3739 3.46813 9.51561C3.46813 5.65728 6.60698 2.51842 10.4653 2.51842Z" fill="white"/>
</g>
<defs>
<clipPath id="clip0">
<rect width="23.4472" height="23.4472" fill="white" transform="translate(0.593628 0.0488281)"/>
</clipPath>
</defs>
</svg>
