<svg width="16" height="18" viewBox="0 0 16 18" fill="none" xmlns="http://www.w3.org/2000/svg">
<path fill-rule="evenodd" clip-rule="evenodd" d="M11.9208 0.691756L11.9217 1.36642C14.3702 1.56072 15.9877 3.25008 15.9903 5.84078L16 13.424C16.0035 16.2486 14.2509 17.9865 11.4416 17.991L4.57946 18C1.78773 18.0036 0.0131703 16.2243 0.00965979 13.3916L5.91089e-06 5.89745C-0.00350459 3.28966 1.55691 1.6048 4.00549 1.37721L4.00461 0.702551C4.00373 0.306749 4.29335 0.00899754 4.6795 0.00899754C5.06566 0.00809799 5.35528 0.304949 5.35615 0.700751L5.35703 1.33044L10.5701 1.32324L10.5692 0.693555C10.5684 0.297753 10.858 0.000901589 11.2441 2.03894e-06C11.6215 -0.000897511 11.9199 0.295954 11.9208 0.691756ZM1.35244 6.17541L14.6397 6.15741V5.84257C14.602 3.90854 13.6436 2.89385 11.9234 2.74272L11.9243 3.43538C11.9243 3.82218 11.6268 4.12893 11.2494 4.12893C10.8633 4.12983 10.5728 3.82398 10.5728 3.43718L10.5719 2.70854L5.3588 2.71574L5.35968 3.44347C5.35968 3.83118 5.07094 4.13702 4.68478 4.13702C4.29863 4.13792 4.00813 3.83298 4.00813 3.44527L4.00726 2.75262C2.29589 2.92623 1.34893 3.94452 1.35156 5.89564L1.35244 6.17541ZM10.8799 10.2639V10.2738C10.8887 10.6876 11.2222 11.0016 11.6267 10.9926C12.0217 10.9827 12.3367 10.6399 12.328 10.2261C12.3095 9.83034 11.9927 9.5074 11.5987 9.5083C11.1949 9.5173 10.879 9.85013 10.8799 10.2639ZM11.6049 14.3029C11.2012 14.2939 10.8756 13.953 10.8747 13.5392C10.8659 13.1254 11.1897 12.7826 11.5935 12.7727H11.6022C12.0147 12.7727 12.3491 13.1137 12.3491 13.5365C12.35 13.9593 12.0165 14.302 11.6049 14.3029ZM7.26416 10.2783C7.28171 10.6921 7.61608 11.015 8.01979 10.997C8.41472 10.9781 8.72979 10.6363 8.71224 10.2225C8.70258 9.81771 8.37786 9.50287 7.98293 9.50377C7.57922 9.52176 7.26328 9.86449 7.26416 10.2783ZM8.02321 14.2624C7.6195 14.2804 7.286 13.9575 7.26757 13.5437C7.26757 13.1299 7.58264 12.7881 7.98635 12.7692C8.38128 12.7683 8.70688 13.0831 8.71565 13.487C8.73408 13.9017 8.41814 14.2435 8.02321 14.2624ZM3.64819 10.3099C3.66574 10.7237 4.00012 11.0475 4.40382 11.0286C4.79876 11.0106 5.11382 10.6679 5.09539 10.2541C5.08662 9.8493 4.7619 9.53446 4.36609 9.53535C3.96238 9.55335 3.64731 9.89607 3.64819 10.3099ZM4.40749 14.2668C4.00378 14.2857 3.67028 13.9618 3.65185 13.548C3.65097 13.1342 3.96692 12.7915 4.37063 12.7735C4.76556 12.7726 5.09116 13.0875 5.09993 13.4923C5.11836 13.9061 4.8033 14.2488 4.40749 14.2668Z" fill="#FCFCFC"/>
</svg>
