<svg width="19" height="20" viewBox="0 0 19 20" fill="none" xmlns="http://www.w3.org/2000/svg">
<path fill-rule="evenodd" clip-rule="evenodd" d="M13.6238 0.768617L13.6248 1.51824C16.3794 1.73413 18.1991 3.61119 18.202 6.48975L18.2129 14.9155C18.2168 18.054 16.2451 19.985 13.0847 19.99L5.36477 20C2.22408 20.004 0.227707 18.027 0.223758 14.8795L0.212897 6.55272C0.208948 3.65517 1.96442 1.78311 4.71906 1.53024L4.71807 0.780611C4.71709 0.340832 5.04291 0.00999726 5.47733 0.00999726C5.91175 0.00899776 6.23757 0.338833 6.23856 0.778612L6.23955 1.47826L12.1043 1.47027L12.1033 0.770616C12.1023 0.330837 12.4281 0.00100177 12.8625 2.26549e-06C13.2871 -0.000997234 13.6228 0.328838 13.6238 0.768617ZM1.73437 6.86157L16.6825 6.84158V6.49175C16.6401 4.34283 15.5619 3.21539 13.6267 3.04748L13.6277 3.81709C13.6277 4.24688 13.293 4.5877 12.8685 4.5877C12.434 4.5887 12.1072 4.24887 12.1072 3.81909L12.1062 3.0095L6.24152 3.01749L6.24251 3.82609C6.24251 4.25687 5.91768 4.5967 5.48325 4.5967C5.04883 4.5977 4.72202 4.25887 4.72202 3.82809L4.72104 3.05847C2.79575 3.25137 1.73042 4.38281 1.73338 6.55072L1.73437 6.86157ZM12.4528 11.4043V11.4153C12.4627 11.8751 12.8379 12.2239 13.293 12.2139C13.7373 12.2029 14.0918 11.8221 14.0819 11.3623C14.0612 10.9225 13.7047 10.5637 13.2614 10.5647C12.8073 10.5747 12.4518 10.9445 12.4528 11.4043ZM13.2683 15.892C12.8142 15.882 12.4479 15.5032 12.4469 15.0435C12.437 14.5837 12.8013 14.2029 13.2555 14.1919H13.2654C13.7294 14.1919 14.1056 14.5707 14.1056 15.0405C14.1066 15.5102 13.7314 15.891 13.2683 15.892ZM8.38501 11.4203C8.40476 11.8801 8.78093 12.2389 9.2351 12.2189C9.6794 12.1979 10.0338 11.8181 10.0141 11.3583C10.0032 10.9085 9.63793 10.5587 9.19363 10.5597C8.73946 10.5797 8.38402 10.9605 8.38501 11.4203ZM9.23905 15.8471C8.78488 15.8671 8.40969 15.5082 8.38896 15.0485C8.38896 14.5887 8.74341 14.2089 9.19758 14.1879C9.64188 14.1869 10.0082 14.5367 10.0181 14.9855C10.0388 15.4463 9.68335 15.8261 9.23905 15.8471ZM4.31722 11.4553C4.33697 11.915 4.71314 12.2749 5.16731 12.2539C5.61161 12.2339 5.96606 11.8531 5.94532 11.3933C5.93545 10.9435 5.57014 10.5937 5.12485 10.5947C4.67068 10.6147 4.31623 10.9955 4.31722 11.4553ZM5.17126 15.8521C4.71709 15.8731 4.3419 15.5132 4.32117 15.0535C4.32018 14.5937 4.67562 14.2129 5.12979 14.1929C5.57409 14.1919 5.94039 14.5417 5.95026 14.9915C5.97099 15.4513 5.61654 15.8321 5.17126 15.8521Z" fill="#347474"/>
</svg>
