<svg width="104" height="88" viewBox="0 0 104 88" fill="none" xmlns="http://www.w3.org/2000/svg">
<g filter="url(#filter0_d_1355_4438)">
<rect x="25" y="25" width="54" height="38" rx="4" fill="white"/>
</g>
<path d="M55.1375 31.8206C56.453 31.8295 57.4894 32.4955 58.0904 33.649C58.1768 33.8136 58.2795 34.0159 58.4032 34.2645L59.2611 36.0217C59.3081 36.1185 59.4074 36.1798 59.5433 36.1801L59.8252 36.1876C62.9063 36.3445 65.3332 38.8259 65.3332 41.8407V49.5443C65.3332 52.67 62.729 55.2052 59.5172 55.2052H44.4838C41.2709 55.2052 38.6665 52.6702 38.6665 49.5443V41.8407C38.6665 38.7138 41.2705 36.1798 44.4201 36.1817L44.5198 36.1775C44.6149 36.1656 44.6986 36.1067 44.7395 36.0225L45.3945 34.6757L45.9085 33.6503C46.5125 32.4947 47.5472 31.8295 48.8622 31.8206H55.1375ZM55.1305 33.7672H48.8762C48.3331 33.7709 47.9662 34.0068 47.6913 34.5327C47.611 34.6864 47.5128 34.8805 47.3929 35.1219L46.5477 36.8544C46.2143 37.5403 45.5446 38.0121 44.7111 38.1143L44.4838 38.1264C42.375 38.1264 40.6665 39.789 40.6665 41.8407V49.5443C40.6665 51.5951 42.3755 53.2585 44.4838 53.2585H59.5172C61.6244 53.2585 63.3332 51.595 63.3332 49.5443V41.8407C63.3332 39.8628 61.7407 38.2345 59.7469 38.1326L59.3149 38.1177C58.5127 38.0485 57.8017 37.5711 57.4529 36.8535L56.5215 34.9495L56.308 34.5319C56.0345 34.0071 55.667 33.7709 55.1305 33.7672ZM52.0058 40.1284L52.275 40.1353C55.0396 40.2755 57.2428 42.5142 57.238 45.242C57.233 48.0481 54.8838 50.3361 52.0025 50.3393C49.1162 50.3409 46.7603 48.0434 46.762 45.2391C46.7388 42.4444 49.1107 40.1252 52.0058 40.1284ZM52.0035 42.075L51.791 42.0816C50.1038 42.1886 48.7483 43.5806 48.762 45.2318C48.761 46.9694 50.2214 48.3936 52.0008 48.3926C53.7787 48.3906 55.2349 46.9723 55.238 45.2387C55.241 43.4978 53.7873 42.077 52.0035 42.075ZM59.6059 39.9764C59.7155 40.0815 59.8078 40.2083 59.859 40.3153L59.8893 40.3911C59.963 40.5523 60.0001 40.7276 60.0001 40.9044C60.0001 41.2441 59.8639 41.5582 59.611 41.8197C59.3924 42.0339 59.1053 42.1656 58.799 42.1952L58.6668 42.2016L58.5368 42.1952C58.408 42.1823 58.2807 42.1496 58.1382 42.0938C57.9797 42.0253 57.8425 41.9381 57.7098 41.8069C57.4715 41.5601 57.3334 41.2374 57.3334 40.9044C57.3334 40.7276 57.3706 40.5523 57.4431 40.3935C57.5158 40.2327 57.602 40.097 57.7577 39.9494C57.8761 39.849 57.9975 39.7682 58.1633 39.697C58.6552 39.5073 59.2402 39.6207 59.6059 39.9764Z" fill="#347474"/>
<defs>
<filter id="filter0_d_1355_4438" x="0" y="0" width="104" height="88" filterUnits="userSpaceOnUse" color-interpolation-filters="sRGB">
<feFlood flood-opacity="0" result="BackgroundImageFix"/>
<feColorMatrix in="SourceAlpha" type="matrix" values="0 0 0 0 0 0 0 0 0 0 0 0 0 0 0 0 0 0 127 0" result="hardAlpha"/>
<feOffset/>
<feGaussianBlur stdDeviation="12.5"/>
<feColorMatrix type="matrix" values="0 0 0 0 0 0 0 0 0 0 0 0 0 0 0 0 0 0 0.15 0"/>
<feBlend mode="normal" in2="BackgroundImageFix" result="effect1_dropShadow_1355_4438"/>
<feBlend mode="normal" in="SourceGraphic" in2="effect1_dropShadow_1355_4438" result="shape"/>
</filter>
</defs>
</svg>
