<svg width="28" height="25" viewBox="0 0 28 25" fill="none" xmlns="http://www.w3.org/2000/svg">
<path d="M17.138 0.820557C18.4535 0.829498 19.4899 1.49551 20.0909 2.64899C20.1773 2.81355 20.28 3.0159 20.4037 3.26453L21.2616 5.02169C21.3086 5.11849 21.4079 5.17976 21.5437 5.1801L21.8257 5.18759C24.9068 5.34449 27.3337 7.82587 27.3337 10.8407V18.5443C27.3337 21.67 24.7295 24.2052 21.5177 24.2052H6.48433C3.27137 24.2052 0.666992 21.6702 0.666992 18.5443V10.8407C0.666992 7.7138 3.27096 5.17976 6.42054 5.18175L6.52033 5.17753C6.61543 5.16564 6.69909 5.1067 6.74001 5.02253L7.39497 3.6757L7.90904 2.6503C8.51303 1.49473 9.54773 0.829494 10.8627 0.820557H17.138ZM17.131 2.76717H10.8766C10.3336 2.77087 9.96666 3.00677 9.69178 3.53266C9.61152 3.68638 9.51329 3.88047 9.39342 4.12188L8.54823 5.85435C8.21476 6.54025 7.54506 7.01206 6.71154 7.11428L6.48433 7.12643C4.37544 7.12643 2.66699 8.789 2.66699 10.8407V18.5443C2.66699 20.5951 4.37594 22.2585 6.48433 22.2585H21.5177C23.6249 22.2585 25.3337 20.595 25.3337 18.5443V10.8407C25.3337 8.86276 23.7411 7.23446 21.7474 7.1326L21.3154 7.11773C20.5132 7.04853 19.8022 6.5711 19.4533 5.85351L18.522 3.94945L18.3085 3.53189C18.035 3.00705 17.6675 2.77087 17.131 2.76717ZM14.0063 9.12838L14.2755 9.13534C17.0401 9.27551 19.2432 11.5142 19.2385 14.242C19.2335 17.0481 16.8843 19.3361 14.003 19.3393C11.1167 19.3409 8.76081 17.0434 8.76249 14.2391C8.73924 11.4444 11.1112 9.12518 14.0063 9.12838ZM14.004 11.075L13.7914 11.0816C12.1043 11.1886 10.7488 12.5806 10.7625 14.2318C10.7614 15.9694 12.2219 17.3936 14.0013 17.3926C15.7792 17.3906 17.2354 15.9723 17.2385 14.2387C17.2415 12.4978 15.7878 11.077 14.004 11.075ZM21.6064 8.97643C21.716 9.08151 21.8082 9.20833 21.8595 9.31527L21.8898 9.3911C21.9634 9.55231 22.0006 9.72758 22.0006 9.90443C22.0006 10.2441 21.8643 10.5582 21.6115 10.8197C21.3929 11.0339 21.1058 11.1656 20.7995 11.1952L20.6673 11.2016L20.5373 11.1952C20.4084 11.1823 20.2812 11.1496 20.1387 11.0938C19.9802 11.0253 19.843 10.9381 19.7103 10.8069C19.472 10.5601 19.3339 10.2374 19.3339 9.90443C19.3339 9.72758 19.3711 9.55231 19.4436 9.39353C19.5163 9.23266 19.6025 9.09696 19.7582 8.94936C19.8766 8.84895 19.9979 8.76816 20.1638 8.69704C20.6557 8.50734 21.2407 8.62069 21.6064 8.97643Z" fill="#347474"/>
</svg>
