<svg width="16" height="17" viewBox="0 0 16 17" fill="none" xmlns="http://www.w3.org/2000/svg">
<path d="M8.88392 8.03699L15.8169 1.0719C16.061 0.826683 16.061 0.429105 15.8169 0.183916C15.5728 -0.0612739 15.1771 -0.0613053 14.933 0.183916L7.99998 7.149L1.06697 0.183916C0.822881 -0.0613053 0.427132 -0.0613053 0.18307 0.183916C-0.060992 0.429137 -0.0610233 0.826715 0.18307 1.0719L7.11608 8.03695L0.18307 15.002C-0.0610233 15.2473 -0.0610233 15.6448 0.18307 15.89C0.305101 16.0126 0.465069 16.0739 0.625037 16.0739C0.785006 16.0739 0.944943 16.0126 1.067 15.89L7.99998 8.92497L14.933 15.89C15.055 16.0126 15.215 16.0739 15.375 16.0739C15.5349 16.0739 15.6949 16.0126 15.8169 15.89C16.061 15.6448 16.061 15.2472 15.8169 15.002L8.88392 8.03699Z" fill="#787878"/>
</svg>
