<svg width="17" height="17" viewBox="0 0 17 17" fill="none" xmlns="http://www.w3.org/2000/svg">
<path d="M16.766 2.7641L16.7358 2.88025L12.912 15.7664C12.5325 17.0444 10.8678 17.2997 10.116 16.2455L10.0439 16.1357L6.837 10.8178L1.5064 7.5337C0.373309 6.83551 0.558924 5.14909 1.76867 4.69339L1.89305 4.652L14.7813 0.898297C15.9464 0.560809 17.0225 1.60591 16.766 2.7641ZM15.1855 2.07338L15.1255 2.08526L2.23764 5.83882C1.96937 5.91676 1.90347 6.26176 2.09925 6.44028L2.15368 6.48119L7.19508 9.58686L11.513 5.23685C11.7314 5.01673 12.0743 4.99564 12.3166 5.17434L12.3861 5.23394C12.606 5.4526 12.6271 5.79584 12.4485 6.03836L12.389 6.10787L8.06519 10.4635L11.1011 15.4971C11.2456 15.7368 11.5838 15.7128 11.7033 15.4776L11.7284 15.4144L15.5523 2.52779C15.6263 2.27927 15.4232 2.04783 15.1855 2.07338Z" fill="#347474"/>
</svg>
