<svg width="17" height="17" viewBox="0 0 17 17" fill="none" xmlns="http://www.w3.org/2000/svg">
<path d="M16.3302 15.6818C16.6545 15.6818 16.9175 15.955 16.9175 16.2919C16.9175 16.6008 16.6965 16.8561 16.4099 16.8965L16.3302 16.9021H10.2028C9.8784 16.9021 9.61545 16.6289 9.61545 16.2919C9.61545 15.983 9.8364 15.7278 10.1231 15.6874L10.2028 15.6818H16.3302ZM10.3706 1.70035C11.4826 0.545194 13.2861 0.545194 14.3981 1.70035L15.5524 2.89958C16.6644 4.05474 16.6644 5.92837 15.5524 7.08353L6.87584 16.0973C6.3797 16.6128 5.70704 16.902 5.00493 16.902H1.45157C1.12148 16.902 0.856218 16.6194 0.864444 16.2766L0.953827 12.5518C0.971598 11.8478 1.24888 11.1767 1.72816 10.6788L10.3706 1.70035ZM9.69888 4.12227L2.55875 11.5416C2.29234 11.8184 2.13794 12.1921 2.12807 12.583L2.05349 15.6813L5.00493 15.6817C5.35222 15.6817 5.6862 15.5547 5.94981 15.3253L6.04525 15.2345L13.2208 7.78012L9.69888 4.12227ZM13.5675 2.56322C12.9142 1.88461 11.8544 1.88461 11.2012 2.56322L10.5301 3.25932L14.0511 6.91717L14.7218 6.22066C15.3388 5.57975 15.373 4.56209 14.8246 3.87932L14.7218 3.76245L13.5675 2.56322Z" fill="#347474"/>
</svg>
