<svg width="22" height="23" viewBox="0 0 22 23" fill="none" xmlns="http://www.w3.org/2000/svg">
<path d="M20.5158 0.0488281H1.91279C1.04543 0.0488281 0.535565 1.00985 1.03254 1.70914C1.0421 1.72248 0.738054 1.31543 8.13098 11.2084C8.29682 11.4443 8.38445 11.7203 8.38445 12.0072V21.5418C8.38445 22.4689 9.46558 22.9803 10.1987 22.4349L13.3498 20.0997C13.7847 19.7823 14.0441 19.2752 14.0441 18.7427V12.0072C14.0441 11.7203 14.1317 11.4443 14.2976 11.2084C21.6848 1.32302 21.3864 1.72239 21.396 1.70914C21.8928 1.01016 21.3835 0.0488281 20.5158 0.0488281V0.0488281ZM13.2064 10.431C12.9009 10.8398 12.6966 11.4097 12.6966 12.0071V18.7426C12.6966 18.858 12.6402 18.9679 12.5459 19.0365C12.4629 19.0966 13.0913 18.6323 9.73199 21.1218V12.0072C9.73199 11.4452 9.55892 10.9046 9.23151 10.4439C9.22338 10.4324 9.45152 10.7379 4.5986 4.24393H17.8299L13.2064 10.431ZM18.8199 2.91913H3.60866L2.45369 1.37358H19.9749L18.8199 2.91913Z" fill="white"/>
</svg>
