<svg width="224" height="149" viewBox="0 0 224 149" fill="none" xmlns="http://www.w3.org/2000/svg">
<rect width="224" height="149" fill="white"/>
<path d="M184.086 118.61C182.883 124.325 182.289 130.151 182.312 135.99H51.8408C51.822 132.253 52.0239 128.517 52.4454 124.803C53.1403 118.729 52.6548 115.601 51.7195 113.946C48.823 108.817 42.7421 111.058 38.6033 105.872C34.781 101.073 35.9853 94.1364 36.4018 91.6573C37.6227 84.5569 41.069 84.2554 43.499 76.0223C44.8669 71.4776 45.3031 66.7045 44.7818 61.9879C44.7175 61.4465 44.639 60.8956 44.5438 60.3375C43.2824 53.0781 40.4145 52.0831 39.917 46.4123C39.234 38.6495 43.8774 32.2663 45.0745 30.7394C53.6425 19.7375 71.4925 18.6285 83.433 21.4924C94.0406 24.0428 95.2449 28.6022 102.613 27.904C113.702 26.852 114.454 16.1944 125.34 13.6108C137.83 10.6495 155.159 20.3596 161.278 33.0713C165.222 41.2593 162.861 47.8585 169.175 52.9309C173.697 56.5665 177.926 55.6 180.901 57.3359C181.177 57.4951 181.438 57.6778 181.682 57.8821C182.108 58.2423 182.483 58.6604 182.793 59.124C186.406 64.4433 179.223 69.8101 180.378 80.9949C181.425 91.2203 187.977 92.0206 188.113 102.061C188.193 107.724 186.118 108.954 184.086 118.61Z" fill="#EEF9FE"/>
<path d="M57.4002 74.3455C55.4555 72.6534 53.6745 70.7826 52.0809 68.7578C51.8896 72.4304 52.4233 76.1048 53.6517 79.5721C55.5557 84.8606 58.8473 88.7123 66.587 95.1311C76.583 103.419 81.5691 107.56 89.3136 111.293C97.4818 115.235 107.478 120.053 121.106 119.144C126.972 118.747 138.444 116.954 148.787 108.89C156.837 102.616 160.904 95.2284 166.557 84.8891C169.258 79.949 171.621 74.8317 173.628 69.5723C170.555 73.5807 167.093 77.277 163.294 80.6075C160.495 83.0606 152.998 89.5339 143.468 93.2123C130.14 98.3512 118.193 95.9741 103.094 92.9749C100.414 92.4429 91.4318 89.3226 73.4771 83.0843C69.1788 81.5764 63.2979 79.4724 57.4002 74.3455Z" fill="#DC8942"/>
<path d="M170.426 73.5497C168.433 77.8962 165.917 81.984 162.932 85.7224C160.328 88.9828 147.169 104.72 124.906 107.752C124.809 107.769 124.709 107.783 124.611 107.795C111.433 109.517 101.489 105.943 92.2146 102.609C89.0706 101.478 85.0532 99.9966 80.7049 97.8095C74.198 94.5253 66.9485 89.6287 60.7867 81.8635C58.1286 78.5103 55.8572 74.8691 54.0156 71.0088C61.0766 74.6458 68.4371 77.672 76.0163 80.054C82.7018 82.2028 89.5322 83.8733 96.4558 85.0527C110.6 87.4179 129.612 88.2728 149.98 82.1128C150.629 81.9181 151.279 81.7147 151.931 81.5025C158.331 79.4308 164.522 76.7684 170.426 73.5497Z" fill="#F19B51"/>
<path d="M149.98 82.1133C149.34 83.2082 148.618 84.2536 147.821 85.2407C145.881 87.7532 145.094 87.6463 143.954 89.7028C142.33 92.6237 143.38 93.8039 141.897 95.3735C140.179 97.1926 138.284 96.1263 135.612 97.7839C133.182 99.2942 132.896 101.334 131.501 103.333C129.907 105.627 127.534 106.912 124.906 107.753C124.809 107.769 124.709 107.784 124.611 107.796C111.433 109.517 101.49 105.943 92.2148 102.609C89.0708 101.479 85.0533 99.9971 80.7051 97.81C81.0924 97.2577 81.596 96.7965 82.1807 96.4588C83.642 95.611 85.0748 96.0052 86.4123 96.0955C90.2203 96.359 94.8328 94.3121 96.325 91.1513C97.1533 89.3965 96.8867 87.5727 96.6868 86.2072C96.6277 85.8187 96.5482 85.4334 96.4488 85.0531C107.159 86.8437 120.649 87.7722 135.407 85.445C134.71 87.2141 134.957 89.14 135.483 89.3418C135.876 89.4914 136.228 88.6128 138.023 87.4112C139.232 86.6038 139.61 86.6418 140.319 86.0861C140.934 85.5922 141.428 84.9643 141.762 84.2505C144.473 83.66 147.213 82.9476 149.98 82.1133Z" fill="#DC8942"/>
<path d="M49.5324 65.6755L48.8375 66.3238L48.014 65.4428L44.7819 61.9805C44.7177 61.4391 44.6391 60.8881 44.5439 60.3301L48.7161 64.7992L49.5324 65.6755Z" fill="#347474"/>
<path d="M181.684 57.8772L176.31 66.6375L175.719 67.6016L174.91 67.1005L175.598 65.9773L180.903 57.3311C181.179 57.4902 181.44 57.673 181.684 57.8772Z" fill="#347474"/>
<path d="M49.2206 67.3902C49.9658 67.3902 50.57 66.7873 50.57 66.0437C50.57 65.3001 49.9658 64.6973 49.2206 64.6973C48.4753 64.6973 47.8711 65.3001 47.8711 66.0437C47.8711 66.7873 48.4753 67.3902 49.2206 67.3902Z" fill="white"/>
<path d="M50.1678 69.0191C50.9131 69.0191 51.5173 68.4162 51.5173 67.6726C51.5173 66.929 50.9131 66.3262 50.1678 66.3262C49.4225 66.3262 48.8184 66.929 48.8184 67.6726C48.8184 68.4162 49.4225 69.0191 50.1678 69.0191Z" fill="white"/>
<path d="M51.5194 70.6675C52.2647 70.6675 52.8688 70.0647 52.8688 69.3211C52.8688 68.5774 52.2647 67.9746 51.5194 67.9746C50.7741 67.9746 50.1699 68.5774 50.1699 69.3211C50.1699 70.0647 50.7741 70.6675 51.5194 70.6675Z" fill="white"/>
<path d="M52.6639 71.9136C53.4092 71.9136 54.0134 71.3108 54.0134 70.5671C54.0134 69.8235 53.4092 69.2207 52.6639 69.2207C51.9186 69.2207 51.3145 69.8235 51.3145 70.5671C51.3145 71.3108 51.9186 71.9136 52.6639 71.9136Z" fill="white"/>
<path d="M175.097 68.5659C175.842 68.5659 176.446 67.9631 176.446 67.2195C176.446 66.4759 175.842 65.873 175.097 65.873C174.351 65.873 173.747 66.4759 173.747 67.2195C173.747 67.9631 174.351 68.5659 175.097 68.5659Z" fill="white"/>
<path d="M174.33 70.2876C175.075 70.2876 175.679 69.6848 175.679 68.9412C175.679 68.1975 175.075 67.5947 174.33 67.5947C173.585 67.5947 172.98 68.1975 172.98 68.9412C172.98 69.6848 173.585 70.2876 174.33 70.2876Z" fill="white"/>
<path d="M173.166 72.0708C173.911 72.0708 174.515 71.468 174.515 70.7244C174.515 69.9808 173.911 69.3779 173.166 69.3779C172.421 69.3779 171.816 69.9808 171.816 70.7244C171.816 71.468 172.421 72.0708 173.166 72.0708Z" fill="white"/>
<path d="M172.159 73.4312C172.904 73.4312 173.508 72.8284 173.508 72.0847C173.508 71.3411 172.904 70.7383 172.159 70.7383C171.414 70.7383 170.81 71.3411 170.81 72.0847C170.81 72.8284 171.414 73.4312 172.159 73.4312Z" fill="white"/>
<path d="M99.0431 101.837L95.4469 103.208C94.9595 103.392 94.5291 103.701 94.198 104.103C93.867 104.505 93.6469 104.986 93.5595 105.499C92.6075 111.073 89.5611 128.6 88.9495 128.904C88.2355 129.265 83.3303 127.698 82.3021 126.672C81.274 125.646 80.6694 127.033 81.274 127.819C81.8785 128.605 87.5595 133.005 87.8618 133.668C88.1641 134.33 89.3136 135.717 90.7035 134.933C92.0934 134.15 92.6385 129.747 92.9407 129.324C93.243 128.902 99.7094 109.883 99.7094 109.883L101.825 109.313L100.676 101.835L99.0431 101.837Z" fill="#F5C3C0"/>
<path d="M81.2979 127.831C81.831 128.501 85.6889 131.538 87.2478 132.982C86.4006 132.046 82.6878 129.118 81.2979 127.831Z" fill="#FF8189"/>
<path d="M101.825 109.315L99.7092 109.885C99.7092 109.885 93.2427 128.901 92.9405 129.324C92.6382 129.747 92.0932 134.149 90.7033 134.933C89.6561 135.524 88.7445 134.881 88.2305 134.244C88.7517 134.658 89.4514 134.895 90.2273 134.458C91.6172 133.674 92.1622 129.272 92.4645 128.849C92.7667 128.426 99.2332 109.407 99.2332 109.407L101.349 108.838L101.742 108.773L101.825 109.315Z" fill="#F08175"/>
<path d="M94.3282 93.3831L88.9184 93.1457C88.3536 93.1215 87.7917 93.2393 87.2843 93.4882C86.777 93.7372 86.3405 94.1093 86.0149 94.5705L72.3893 113.824C72.3893 113.824 65.9229 111.654 65.3779 111.051C64.8328 110.448 63.8927 110.338 63.9094 111.11C63.9261 111.882 68.8241 115.94 69.669 117.144C70.5139 118.348 70.9994 120.944 72.9344 119.854C74.8693 118.764 75.8951 116.092 77.285 114.444C78.6749 112.796 90.8177 100.317 90.8177 100.317L93.7189 100.683L94.3282 93.3831Z" fill="#F5C3C0"/>
<path d="M92.8836 100.398L90.3418 100.08C90.3418 100.08 78.2038 112.564 76.8019 114.209C75.4001 115.855 74.3958 118.534 72.4584 119.619C72.131 119.841 71.7295 119.926 71.3398 119.856C71.7421 120.172 72.2466 120.253 72.9344 119.856C74.867 118.771 75.8952 116.095 77.2851 114.447C78.675 112.799 90.8178 100.318 90.8178 100.318L92.9598 100.588L92.8836 100.398Z" fill="#F08175"/>
<path d="M118.954 90.999L118.164 101.096L117.874 101.122L100.435 102.699L95.454 101.483L92.2148 100.692C95.197 96.1117 92.2148 93.0626 92.2148 93.0626L115.344 93.6135L118.954 90.999Z" fill="#80BDAE"/>
<path d="M117.874 101.113L100.435 102.69L95.4541 101.474L115.786 95.915L117.874 101.113Z" fill="#2CA8B5"/>
<path d="M128.964 98.5078C128.964 98.769 128.94 99.0207 128.914 99.2677C128.84 100.148 128.64 101.013 128.319 101.837C126.289 106.974 120.125 107.422 118.954 107.353C118.361 107.318 114.956 107.779 111.255 108.303C106.309 109.016 100.837 109.873 100.837 109.873C102.289 103.402 97.3721 102.115 97.3721 102.115L116.284 95.3803L120.591 93.8439L122.821 91.4098L123.976 90.1465C123.976 90.1465 126.537 90.1845 127.996 93.0412C128.614 94.2689 129.036 96.0167 128.964 98.5078Z" fill="#80BDAE"/>
<path d="M128.319 101.837C126.289 106.973 120.125 107.422 118.954 107.353C118.362 107.318 114.956 107.778 111.255 108.303C113.949 107.425 117.093 106.491 118.507 106.403C121.227 106.223 123.464 106.525 124.25 105.499C125.035 104.473 126.665 103.73 127.332 102.685C127.563 102.305 127.909 102.008 128.319 101.837Z" fill="#5A9687"/>
<path opacity="0.08" d="M101.885 94.7296C100.395 95.1523 99.8457 94.4517 98.6224 94.8507C97.6704 95.157 97.7989 95.6391 96.5256 96.2565C95.1523 96.9262 94.4931 96.6175 94.3503 96.9808C93.8743 98.2275 101.571 101.987 103.094 102.73C103.763 103.058 104.149 103.229 104.706 103.293C106.821 103.53 107.981 101.823 110.951 100.64C111.831 100.289 112.802 100.403 114.216 99.7948C114.712 99.5659 115.196 99.3114 115.666 99.0325C117.113 98.2227 117.834 97.8119 117.808 97.4842C117.769 96.9665 116.339 96.6839 115.561 96.5177C108.792 95.0763 105.677 92.6826 103.23 94.086C102.816 94.3653 102.363 94.5821 101.885 94.7296Z" fill="black"/>
<path d="M128.965 98.5084C128.965 98.7696 128.941 99.0213 128.915 99.2683C128.533 99.326 128.159 99.4214 127.796 99.5533C127.03 99.8762 126.064 99.9973 124.571 98.297C123.9 97.5324 120.173 96.3973 116.275 95.3809C111.515 94.139 106.479 93.0704 106.479 93.0704L117.279 89.665L122.812 91.4104L127.987 93.0419C128.615 94.2696 129.036 96.0173 128.965 98.5084Z" fill="#5A9687"/>
<path d="M102.53 63.0086L100.514 60.7265L94.1878 45.6615C94.1878 45.6615 92.4956 40.7055 92.4552 40.5037C92.4266 40.3588 92.0601 38.9245 91.8578 38.1456C91.8416 38.0831 91.8124 38.0247 91.772 37.9742C91.7317 37.9237 91.681 37.8823 91.6235 37.8527C91.566 37.8231 91.5028 37.806 91.4382 37.8024C91.3736 37.7989 91.3089 37.809 91.2485 37.8322C91.1484 37.8732 91.0653 37.9472 91.013 38.0417C90.9606 38.1362 90.9421 38.2458 90.9605 38.3522L91.6912 41.9902L89.5111 38.5683C89.4761 38.5136 89.4298 38.4668 89.3754 38.4312C89.321 38.3955 89.2596 38.3718 89.1953 38.3614C89.131 38.3511 89.0653 38.3545 89.0024 38.3713C88.9395 38.3881 88.8809 38.4181 88.8304 38.4591L88.6543 38.6039C88.5685 38.6734 88.5106 38.7715 88.4914 38.8801C88.4721 38.9887 88.4928 39.1006 88.5496 39.1952L90.6916 42.7573L90.1109 42.3061C90.0693 42.2741 90.0182 42.2568 89.9657 42.2568C89.9132 42.2568 89.8621 42.2741 89.8205 42.3061L89.3755 42.6409C89.3485 42.6609 89.326 42.6864 89.3096 42.7157C89.2932 42.745 89.2832 42.7774 89.2803 42.8109C89.2774 42.8443 89.2816 42.878 89.2927 42.9097C89.3037 42.9414 89.3214 42.9703 89.3445 42.9947L89.4992 43.161C89.5274 43.1906 89.5474 43.2269 89.5574 43.2665C89.5674 43.3061 89.567 43.3476 89.5562 43.387C89.5455 43.4263 89.5247 43.4623 89.496 43.4913C89.4672 43.5204 89.4314 43.5415 89.3921 43.5528C89.3559 43.5629 89.3226 43.5815 89.295 43.607C89.2673 43.6324 89.2461 43.6641 89.2331 43.6993C89.2201 43.7345 89.2157 43.7723 89.2201 43.8096C89.2246 43.8469 89.2379 43.8826 89.2588 43.9137L91.7412 47.6657L95.9347 62.1086C96.1706 62.9254 96.5652 63.6879 97.0962 64.3527L98.1481 65.6754L102.53 63.0086Z" fill="#F5C3C0"/>
<path d="M91.4727 40.8905L92.1677 41.9805L91.437 38.3425C91.4203 38.2513 91.4316 38.1571 91.4694 38.0724C91.5072 37.9876 91.5697 37.9162 91.6489 37.8676C91.5897 37.8309 91.5228 37.8084 91.4534 37.8018C91.384 37.7952 91.3141 37.8047 91.249 37.8296C91.1489 37.8707 91.0658 37.9446 91.0135 38.0391C90.9611 38.1337 90.9426 38.2432 90.961 38.3496L91.4727 40.8905Z" fill="#FF8189"/>
<path d="M90.5803 42.294L91.161 42.7452L89.019 39.1832C88.9627 39.0884 88.9424 38.9767 88.9616 38.8682C88.9808 38.7597 89.0383 38.6617 89.1237 38.5919L89.2999 38.447C89.3172 38.4338 89.3355 38.4219 89.3546 38.4114C89.2734 38.3617 89.1786 38.3384 89.0835 38.3448C88.9884 38.3512 88.8977 38.3869 88.8239 38.447L88.6477 38.5919C88.5623 38.6617 88.5048 38.7597 88.4856 38.8682C88.4663 38.9767 88.4867 39.0884 88.543 39.1832L90.3804 42.2489C90.415 42.2411 90.4509 42.2411 90.4855 42.2489C90.52 42.2567 90.5525 42.2721 90.5803 42.294Z" fill="#FF8189"/>
<path d="M97.5627 64.3386C97.0317 63.6739 96.6371 62.9114 96.4013 62.0946L92.2077 47.6517L89.7254 43.8997C89.7044 43.8685 89.6911 43.8328 89.6867 43.7956C89.6822 43.7583 89.6866 43.7205 89.6997 43.6853C89.7127 43.6501 89.7339 43.6184 89.7615 43.5929C89.7891 43.5675 89.8224 43.5489 89.8586 43.5388C89.898 43.5275 89.9337 43.5064 89.9625 43.4773C89.9912 43.4483 90.012 43.4123 90.0228 43.3729C90.0335 43.3335 90.0339 43.2921 90.0239 43.2525C90.014 43.2129 89.9939 43.1765 89.9657 43.1469L89.811 42.9807C89.7879 42.9563 89.7702 42.9273 89.7592 42.8956C89.7481 42.864 89.7439 42.8303 89.7468 42.7969C89.7497 42.7634 89.7597 42.731 89.7761 42.7017C89.7925 42.6724 89.815 42.6469 89.842 42.6269L90.1918 42.3633L90.1014 42.2944C90.0598 42.2625 90.0087 42.2451 89.9562 42.2451C89.9037 42.2451 89.8527 42.2625 89.811 42.2944L89.366 42.6293C89.339 42.6493 89.3165 42.6748 89.3001 42.7041C89.2837 42.7334 89.2737 42.7658 89.2708 42.7992C89.2679 42.8327 89.2721 42.8663 89.2832 42.898C89.2942 42.9297 89.3119 42.9587 89.335 42.9831L89.4897 43.1493C89.5179 43.1789 89.538 43.2153 89.5479 43.2548C89.5579 43.2944 89.5575 43.3359 89.5468 43.3753C89.536 43.4147 89.5152 43.4506 89.4865 43.4797C89.4577 43.5087 89.422 43.5299 89.3826 43.5411C89.3464 43.5513 89.3131 43.5699 89.2855 43.5953C89.2579 43.6208 89.2367 43.6524 89.2237 43.6877C89.2106 43.7229 89.2062 43.7607 89.2107 43.798C89.2151 43.8352 89.2284 43.8709 89.2494 43.9021L91.7317 47.6541L95.9253 62.0969C96.1611 62.9137 96.5557 63.6763 97.0867 64.341L98.1387 65.6637L98.46 65.4714L97.5627 64.3386Z" fill="#F08175"/>
<path d="M132.944 62.6882L134.643 59.5393L133.253 44.8994L131.682 42.4274L130.402 39.6062C130.38 39.5589 130.369 39.5075 130.368 39.4554C130.368 39.4033 130.378 39.3517 130.399 39.304C130.42 39.2563 130.451 39.2135 130.489 39.1784C130.528 39.1433 130.574 39.1167 130.623 39.1004L130.706 39.0719C130.779 39.0477 130.858 39.0466 130.932 39.0687C131.006 39.0908 131.071 39.135 131.118 39.1954L132.308 40.7081L131.435 35.6761C131.418 35.5792 131.441 35.4796 131.497 35.3991C131.554 35.3186 131.64 35.2637 131.737 35.2463L131.892 35.2178C131.981 35.2018 132.074 35.2193 132.152 35.267C132.229 35.3148 132.287 35.3894 132.313 35.4767L133.396 39.079L133.684 34.9732C133.688 34.9197 133.703 34.8676 133.729 34.8206C133.755 34.7735 133.79 34.7326 133.834 34.7006C133.877 34.6686 133.926 34.6462 133.979 34.6351C134.031 34.6239 134.086 34.6243 134.138 34.636L134.376 34.6883C134.457 34.7066 134.529 34.751 134.582 34.8146C134.634 34.8782 134.664 34.9573 134.667 35.0397L134.793 38.9746L135.785 35.65C135.8 35.5971 135.826 35.5481 135.861 35.5064C135.897 35.4646 135.941 35.4312 135.991 35.4086C136.041 35.3859 136.096 35.3745 136.151 35.3752C136.205 35.3759 136.26 35.3886 136.309 35.4125L136.495 35.5051C136.57 35.5428 136.63 35.6044 136.665 35.6802C136.701 35.7559 136.711 35.8414 136.692 35.9231L135.866 39.4519L137.406 37.4239C137.439 37.3819 137.48 37.3472 137.527 37.3222C137.574 37.2972 137.625 37.2824 137.678 37.2788C137.731 37.2752 137.785 37.2829 137.835 37.3013C137.884 37.3198 137.93 37.3486 137.968 37.3859C138.021 37.4392 138.057 37.5075 138.071 37.5818C138.085 37.6561 138.075 37.7327 138.044 37.8015L136.909 40.3424L136.637 42.4511L135.973 43.9448L139.629 60.0143L137.756 64.5262L132.944 62.6882Z" fill="#F5C3C0"/>
<path d="M135.258 38.9717L136.248 35.6472C136.271 35.5734 136.316 35.5081 136.376 35.4596L136.295 35.4192C136.246 35.3953 136.192 35.3825 136.137 35.3819C136.082 35.3812 136.028 35.3926 135.978 35.4153C135.928 35.4379 135.883 35.4713 135.848 35.513C135.812 35.5548 135.786 35.6038 135.772 35.6567L135.21 37.5446L135.258 38.9717Z" fill="#FF8189"/>
<path d="M136.328 39.4547L137.868 37.4268C137.885 37.4053 137.904 37.3854 137.925 37.3674C137.887 37.3356 137.842 37.3119 137.794 37.2977C137.746 37.2835 137.696 37.279 137.646 37.2845C137.596 37.2901 137.548 37.3055 137.505 37.3299C137.461 37.3544 137.423 37.3873 137.392 37.4268L136.54 38.55L136.328 39.4547Z" fill="#FF8189"/>
<path d="M132.166 39.9249L132.777 40.7062L131.904 35.6742C131.889 35.5888 131.905 35.5008 131.948 35.4258C131.992 35.3507 132.06 35.2932 132.142 35.2634C132.066 35.2167 131.975 35.1998 131.887 35.2159L131.732 35.2444C131.635 35.2618 131.549 35.3167 131.493 35.3972C131.436 35.4777 131.414 35.5773 131.43 35.6742L132.166 39.9249Z" fill="#FF8189"/>
<path d="M133.865 39.0771L134.153 34.9713C134.158 34.912 134.176 34.8547 134.208 34.8042C134.239 34.7538 134.283 34.7117 134.334 34.6816L134.132 34.6341C134.079 34.6223 134.025 34.622 133.972 34.6331C133.92 34.6443 133.87 34.6666 133.827 34.6986C133.784 34.7306 133.748 34.7716 133.722 34.8186C133.696 34.8657 133.681 34.9177 133.677 34.9713L133.479 37.7924L133.865 39.0771Z" fill="#FF8189"/>
<path d="M133.42 62.6878L135.119 59.5389L133.729 44.899L132.158 42.4269L130.878 39.6058C130.84 39.5203 130.836 39.4237 130.867 39.3355C130.898 39.2473 130.961 39.1742 131.044 39.1309C130.997 39.0954 130.941 39.0719 130.882 39.0624C130.823 39.0529 130.763 39.0576 130.706 39.0763L130.623 39.1048C130.574 39.1211 130.528 39.1476 130.489 39.1827C130.451 39.2178 130.42 39.2606 130.399 39.3083C130.378 39.3561 130.368 39.4076 130.368 39.4597C130.369 39.5118 130.38 39.5632 130.402 39.6106L131.682 42.4317L133.253 44.9037L134.643 59.5389L132.944 62.6878L137.756 64.5258L137.823 64.369L133.42 62.6878Z" fill="#F08175"/>
<path d="M132.77 61.7832L130.348 65.6516C129.8 66.5249 129.028 67.2352 128.111 67.7082C127.194 68.1811 126.166 68.3993 125.135 68.3397L121.227 68.1141C121.227 68.1141 118.847 67.4231 116.815 68.2946C116.676 68.3579 116.54 68.4301 116.41 68.5107L110.406 68.8004C109.781 68.8298 109.158 68.7231 108.579 68.4877C108.001 68.2523 107.48 67.8938 107.055 67.4373L102.295 62.3341L97.3799 65.6136L101.902 71.8471C103.019 73.3826 104.219 74.8556 105.498 76.2593C107.64 80.1894 109.782 84.8082 109.37 87C108.937 89.4549 108.254 91.8593 107.333 94.1763C107.333 94.1763 111.777 94.1953 115.487 94.637C116.141 94.8317 117.241 95.1499 118.607 95.5275C123.491 96.8716 124.897 97.0449 126.794 98.1967L126.816 98.2109C127.138 98.4097 127.505 98.5238 127.884 98.5426C128.262 98.5613 128.639 98.4841 128.979 98.3181C129.32 98.1521 129.612 97.9027 129.83 97.5933C130.048 97.2838 130.183 96.9244 130.224 96.5486C130.916 90.1702 131.607 83.7926 132.299 77.4158L138.218 64.2006L132.77 61.7832Z" fill="#EE9087"/>
<path d="M111.833 69.5128L117.838 69.2326C117.968 69.152 118.103 69.0798 118.243 69.0165C120.273 68.145 122.655 68.836 122.655 68.836L126.563 69.0616C127.594 69.1212 128.621 68.903 129.538 68.4301C130.455 67.9571 131.228 67.2468 131.775 66.3735L134.198 62.5051L138.18 64.26L138.211 64.1935L132.77 61.7832L130.347 65.6516C129.8 66.5249 129.027 67.2352 128.11 67.7082C127.193 68.1811 126.166 68.3993 125.135 68.3397L121.227 68.1141C121.227 68.1141 118.847 67.4231 116.815 68.2946C116.675 68.3579 116.54 68.4301 116.41 68.5107L110.405 68.8004C109.944 68.8216 109.483 68.7687 109.039 68.6437C109.839 69.2517 110.828 69.5594 111.833 69.5128Z" fill="#F08175"/>
<path d="M126.701 98.1348L126.787 98.187L126.808 98.2013C126.997 98.3152 127.202 98.4016 127.415 98.4577C127.182 98.3414 126.946 98.2464 126.701 98.1348Z" fill="#01496D"/>
<path d="M107.326 94.1674C107.326 94.1674 107.992 94.1674 109.02 94.1983C109.798 92.0884 110.39 89.9154 110.791 87.7035C111.191 85.5117 109.061 80.8929 106.919 76.9628C105.64 75.559 104.439 74.0861 103.323 72.5506L98.8007 66.317L103.247 63.3511L102.295 62.3252L97.3799 65.6046L101.902 71.8382C103.019 73.3737 104.219 74.8466 105.498 76.2504C107.64 80.1805 109.782 84.7992 109.37 86.9911C108.935 89.4462 108.25 91.8507 107.326 94.1674Z" fill="#F08175"/>
<path d="M53.8562 117.957C52.715 116.932 51.8163 115.666 51.2253 114.252C50.6342 112.838 50.3655 111.311 50.4385 109.781C50.5143 107.887 50.9776 106.028 51.7998 104.319C52.8637 102.118 54.3441 100.626 55.5103 100.7C56.6765 100.773 57.6903 102.521 58.2711 104.454C58.547 105.364 58.7288 106.3 58.8137 107.247C58.8256 107.404 58.8351 107.558 58.8399 107.722C59.0588 113.39 54.5511 117.356 53.8562 117.957Z" fill="#80BDAE"/>
<path d="M58.8399 107.698C58.6376 112.958 54.5178 116.579 53.8562 117.147C52.4171 115.821 51.3644 114.132 50.8098 112.257C50.5873 111.45 50.4626 110.62 50.4385 109.783C50.5143 107.889 50.9776 106.03 51.7998 104.321C52.7184 105.193 53.5143 106.185 54.1656 107.271C54.3837 107.646 54.5777 108.034 54.7463 108.434C55.6417 106.88 56.8383 105.519 58.2663 104.431C58.5422 105.34 58.7241 106.276 58.8089 107.223C58.8256 107.389 58.8351 107.544 58.8399 107.698Z" fill="#5A9687"/>
<path d="M55.3371 101.097C55.3799 102.218 55.3656 103.336 55.3371 104.452C55.3085 105.568 55.2419 106.682 55.1729 107.796C55.1038 108.909 55.0039 110.023 54.8825 111.132C54.7611 112.241 54.6278 113.352 54.4351 114.457C54.3898 113.336 54.4041 112.22 54.4351 111.104C54.466 109.988 54.5303 108.871 54.5993 107.758C54.6683 106.644 54.7683 105.533 54.8896 104.433C55.011 103.334 55.1443 102.194 55.3371 101.097Z" fill="#004F80"/>
<path d="M53.8562 117.957C52.4142 116.63 51.3611 114.936 50.8098 113.058C50.0315 110.272 50.5384 107.242 51.5428 104.882C52.5709 105.817 53.4533 106.9 54.1608 108.095C54.3794 108.47 54.5734 108.858 54.7415 109.258C55.6739 107.632 56.9369 106.218 58.4496 105.107C58.6246 105.809 58.744 106.524 58.8066 107.245C59.3064 113.174 54.5702 117.337 53.8562 117.957Z" fill="#5A9687"/>
<path d="M48.3631 104.165C46.0831 105.077 45.5262 112.847 49.4532 117.345C50.762 118.802 52.4423 119.879 54.3155 120.46C54.6987 119.601 57.1715 113.811 54.1703 108.656C52.8423 106.381 50.0244 103.503 48.3631 104.165Z" fill="#80BDAE"/>
<path d="M48.4541 104.673C49.3335 105.876 50.1166 107.146 50.796 108.472C51.4797 109.802 52.0744 111.175 52.5763 112.583C53.0767 113.991 53.4846 115.43 53.7972 116.891C54.1124 118.352 54.3153 119.835 54.4041 121.327C54.0852 119.873 53.7496 118.432 53.364 117.005C52.9785 115.577 52.5406 114.169 52.0384 112.782C51.5362 111.396 50.9959 110.023 50.3938 108.672C49.7917 107.321 49.1229 105.996 48.4541 104.673Z" fill="#004F80"/>
<path d="M53.8758 120.31C54.0448 120.234 54.2566 120.144 54.497 120.03C54.5446 119.909 54.5993 119.771 54.6564 119.615C54.6802 119.548 54.7064 119.482 54.7278 119.415C54.8016 119.211 54.8778 118.983 54.9539 118.734C54.9706 118.67 54.992 118.605 55.0111 118.539C55.1063 118.214 55.1991 117.857 55.2824 117.473C55.299 117.394 55.3181 117.318 55.3324 117.235C55.3466 117.152 55.3657 117.076 55.38 116.998L55.4228 116.76C55.4347 116.701 55.4418 116.642 55.4537 116.582C55.4656 116.523 55.4752 116.449 55.4823 116.383L55.518 116.145C55.5323 116.017 55.5489 115.886 55.5632 115.756C55.5632 115.67 55.5799 115.582 55.5846 115.495C55.5989 115.345 55.6108 115.191 55.618 115.034C55.618 114.96 55.618 114.882 55.618 114.796C55.618 114.633 55.618 114.471 55.618 114.31C55.618 114.101 55.618 113.892 55.6037 113.68C55.6037 113.524 55.5846 113.367 55.5704 113.205C55.5704 113.12 55.5561 113.034 55.5466 112.949C55.537 112.863 55.5275 112.785 55.5156 112.711C55.5037 112.638 55.4942 112.569 55.4871 112.493C55.4799 112.417 55.4609 112.329 55.4442 112.256C55.4276 112.182 55.4204 112.113 55.4061 112.039C55.3919 111.966 55.3633 111.83 55.3419 111.726L55.2848 111.472C55.2586 111.372 55.2324 111.275 55.2038 111.175C55.1753 111.075 55.1348 110.938 55.0991 110.816C55.0634 110.695 55.0206 110.579 54.9777 110.453C54.9349 110.327 54.8921 110.216 54.8445 110.095C54.7054 109.736 54.5465 109.386 54.3685 109.045C53.2451 110.707 52.405 112.719 52.2598 114.834C52.1555 116.649 52.5159 118.46 53.307 120.097L53.8758 120.31Z" fill="#39B9CE"/>
<path d="M54.4993 120.03C54.4184 120.224 54.3565 120.367 54.316 120.457C54.1828 120.414 54.0352 120.367 53.8781 120.31C53.7044 120.243 53.5187 120.172 53.3236 120.089C52.5325 118.452 52.1721 116.641 52.2764 114.827C52.4216 112.711 53.2617 110.702 54.3851 109.037C56.7674 113.549 55.1419 118.431 54.4993 120.03Z" fill="#5A9687"/>
<path d="M61.7013 104.739C59.4427 103.773 53.5427 108.874 53.1333 114.827C53.0264 116.781 53.4525 118.728 54.3662 120.46C55.2444 120.123 61.0992 117.776 62.6271 112.011C63.2983 109.465 63.3459 105.442 61.7013 104.739Z" fill="#80BDAE"/>
<path d="M61.2155 105.252C60.1907 106.32 59.2569 107.472 58.4238 108.695C56.7737 111.129 55.6078 113.856 54.9895 116.729C54.6818 118.174 54.4947 119.642 54.4302 121.117C54.2695 119.629 54.3103 118.126 54.5515 116.648C54.6661 115.906 54.8251 115.172 55.0275 114.449C55.2401 113.724 55.492 113.01 55.782 112.312C56.377 110.929 57.1386 109.624 58.0501 108.425C58.9583 107.23 60.0229 106.163 61.2155 105.252Z" fill="#004F80"/>
<path d="M61.8362 135.256H47.411L45.3594 121.575C45.3183 121.305 45.3362 121.029 45.4119 120.766C45.4876 120.503 45.6194 120.259 45.7982 120.052C45.9769 119.844 46.1985 119.678 46.4477 119.564C46.6969 119.45 46.9678 119.391 47.242 119.391H61.998C62.2724 119.39 62.5436 119.449 62.7931 119.563C63.0426 119.677 63.2645 119.843 63.4435 120.051C63.6225 120.258 63.7545 120.502 63.8303 120.765C63.9062 121.028 63.9241 121.305 63.883 121.575L61.8362 135.256Z" fill="#004F80"/>
<path d="M47.2636 122.05C47.2224 121.78 47.2403 121.504 47.3161 121.241C47.3918 120.978 47.5235 120.734 47.7023 120.527C47.881 120.319 48.1026 120.153 48.3518 120.039C48.601 119.925 48.8719 119.866 49.1461 119.866H63.2595C62.9124 119.56 62.4657 119.391 62.0029 119.391H47.2469C46.9727 119.391 46.7017 119.45 46.4525 119.564C46.2033 119.678 45.9818 119.844 45.803 120.052C45.6243 120.259 45.4925 120.503 45.4168 120.766C45.3411 121.029 45.3232 121.305 45.3643 121.575L47.4159 135.256H49.2485L47.2636 122.05Z" fill="#01496D"/>
<path d="M163.465 132.416H166.05L164.513 135.415H163.256L163.465 132.416Z" fill="#004F80"/>
<path d="M177.34 132.416H174.753L176.293 135.415H177.549L177.34 132.416Z" fill="#004F80"/>
<path d="M179.306 109.888H161.496C160.72 109.888 160.09 110.516 160.09 111.291V131.015C160.09 131.79 160.72 132.419 161.496 132.419H179.306C180.083 132.419 180.713 131.79 180.713 131.015V111.291C180.713 110.516 180.083 109.888 179.306 109.888Z" fill="white"/>
<path d="M178.312 111.932H162.494C162.055 111.932 161.699 112.287 161.699 112.725V119.673C161.699 120.111 162.055 120.466 162.494 120.466H178.312C178.751 120.466 179.107 120.111 179.107 119.673V112.725C179.107 112.287 178.751 111.932 178.312 111.932Z" fill="#EDF3F4"/>
<path d="M178.312 121.837H162.494C162.055 121.837 161.699 122.192 161.699 122.63V129.578C161.699 130.016 162.055 130.372 162.494 130.372H178.312C178.751 130.372 179.107 130.016 179.107 129.578V122.63C179.107 122.192 178.751 121.837 178.312 121.837Z" fill="#EDF3F4"/>
<path d="M170.403 115.115C171.005 115.115 171.493 114.628 171.493 114.027C171.493 113.426 171.005 112.939 170.403 112.939C169.801 112.939 169.312 113.426 169.312 114.027C169.312 114.628 169.801 115.115 170.403 115.115Z" fill="white"/>
<path d="M170.403 125.344C171.005 125.344 171.493 124.857 171.493 124.257C171.493 123.656 171.005 123.169 170.403 123.169C169.801 123.169 169.312 123.656 169.312 124.257C169.312 124.857 169.801 125.344 170.403 125.344Z" fill="white"/>
<path d="M176.098 103.3H174.575V103.129C174.575 102.863 174.469 102.608 174.281 102.42C174.093 102.233 173.837 102.127 173.571 102.127H167.804C167.672 102.127 167.542 102.153 167.42 102.203C167.298 102.254 167.187 102.327 167.094 102.42C167.001 102.514 166.927 102.624 166.876 102.746C166.826 102.867 166.8 102.997 166.8 103.129V107.107C166.8 107.472 166.873 107.834 167.014 108.172C167.154 108.51 167.361 108.816 167.62 109.074C167.88 109.332 168.189 109.536 168.528 109.675C168.867 109.814 169.23 109.884 169.596 109.883H171.803C172.408 109.883 172.996 109.686 173.479 109.322C173.961 108.958 174.312 108.447 174.478 107.867H174.673C175.397 107.865 176.091 107.578 176.603 107.067C177.114 106.556 177.402 105.863 177.403 105.14V104.587C177.402 104.417 177.368 104.249 177.303 104.092C177.237 103.935 177.14 103.792 177.019 103.673C176.898 103.553 176.754 103.459 176.596 103.395C176.438 103.331 176.269 103.298 176.098 103.3ZM176.677 105.145C176.677 105.679 176.464 106.191 176.087 106.568C175.709 106.946 175.196 107.158 174.661 107.159H174.611V104.012H176.098C176.174 104.012 176.249 104.027 176.32 104.056C176.39 104.084 176.454 104.127 176.507 104.18C176.561 104.233 176.604 104.297 176.633 104.367C176.662 104.437 176.677 104.511 176.677 104.587V105.145Z" fill="#347474"/>
<path d="M167.514 107.582V103.604C167.514 103.338 167.62 103.083 167.808 102.895C167.996 102.707 168.252 102.602 168.518 102.602H174.285C174.334 102.603 174.382 102.608 174.43 102.616C174.342 102.467 174.216 102.344 174.065 102.258C173.915 102.173 173.744 102.127 173.571 102.127H167.804C167.672 102.127 167.542 102.153 167.42 102.203C167.298 102.254 167.187 102.327 167.094 102.42C167.001 102.514 166.927 102.624 166.876 102.746C166.826 102.867 166.8 102.997 166.8 103.129V107.107C166.8 107.637 166.953 108.157 167.239 108.604C167.526 109.051 167.935 109.406 168.418 109.629C168.133 109.369 167.905 109.053 167.75 108.7C167.594 108.348 167.514 107.967 167.514 107.582Z" fill="#11493E"/>
<path d="M169.399 100.498C169.325 100.463 169.667 99.9308 169.82 99.2018C170.229 97.283 168.868 96.2073 168.732 94.2577C168.68 93.4906 168.801 92.3888 169.639 91.002C169.576 91.5721 169.567 92.1469 169.61 92.7189C169.82 95.4925 171.164 96.3735 170.817 98.1806C170.548 99.5366 169.506 100.555 169.399 100.498Z" fill="#EDF3F4"/>
<path d="M172.109 98.4466C172.069 98.4253 172.261 98.1237 172.347 97.7105C172.585 96.6205 171.807 96.0102 171.728 94.9036C171.701 94.2481 171.882 93.6008 172.245 93.0537C172.208 93.3778 172.202 93.7046 172.228 94.0297C172.347 95.6041 173.109 96.1052 172.913 97.1287C172.768 97.9005 172.171 98.4846 172.109 98.4466Z" fill="#EDF3F4"/>
<path d="M116.391 66.9013L116.153 69.8815C116.129 70.182 116.171 70.4842 116.276 70.7666C116.382 71.049 116.549 71.3046 116.765 71.5153C117.051 71.7932 117.411 71.9823 117.802 72.0594C118.194 72.1366 118.599 72.0985 118.969 71.9499L120.716 71.2375C121.075 71.0928 121.386 70.8498 121.613 70.5363C121.84 70.2229 121.974 69.8519 121.999 69.466L122.237 65.6475L116.391 66.9013Z" fill="#F5C3C0"/>
<path d="M120.949 70.7761L119.202 71.4885C118.877 71.6193 118.524 71.665 118.176 71.6212C117.829 71.5774 117.498 71.4456 117.216 71.2383C116.934 71.031 116.709 70.7551 116.564 70.4368C116.419 70.1186 116.358 69.7686 116.387 69.4201L116.594 66.8721L116.391 66.9148L116.153 69.895C116.125 70.2435 116.186 70.5935 116.331 70.9118C116.476 71.23 116.7 71.5059 116.983 71.7132C117.265 71.9205 117.595 72.0523 117.943 72.0961C118.291 72.1399 118.644 72.0942 118.969 71.9634L120.716 71.251C120.989 71.1412 121.235 70.9738 121.438 70.7603C121.64 70.5467 121.794 70.2921 121.889 70.0138C121.66 70.3564 121.332 70.622 120.949 70.7761Z" fill="#F5C3C0"/>
<path d="M124.763 55.1656C124.388 54.4159 123.898 53.7286 123.312 53.1281C122.743 52.5297 122.095 51.9408 121.289 51.7033C120.42 51.4469 119.482 51.5608 118.602 51.6915C117.717 51.8021 116.856 52.0606 116.057 52.4561C115.363 52.8104 114.771 53.338 114.341 53.9878C113.865 54.7215 113.754 55.5836 113.692 56.4337C113.62 57.4168 113.566 58.3999 113.501 59.3831C113.437 60.3662 113.358 61.2828 113.382 62.2446C113.39 63.1541 113.567 64.0542 113.904 64.8995C114.06 65.54 114.406 66.119 114.896 66.5617C116.231 67.7206 118.102 67.6493 119.718 67.2409C121.182 66.8728 122.752 66.2222 123.393 64.7475C123.711 64.0089 123.792 63.2016 123.914 62.4132C123.965 62.0192 124.044 61.6295 124.152 61.2472C124.293 60.8327 124.478 60.4347 124.704 60.0598C125.138 59.3119 125.364 58.4617 125.358 57.5973C125.341 56.7531 125.137 55.9231 124.763 55.1656Z" fill="#F5C3C0"/>
<path d="M120.429 66.7699C118.813 67.1783 116.943 67.2448 115.608 66.0907C115.118 65.648 114.772 65.069 114.615 64.4285C114.28 63.586 114.105 62.6892 114.096 61.7831C114.072 60.8332 114.156 59.8833 114.215 58.9216C114.275 57.9598 114.334 56.9553 114.406 55.9722C114.468 55.1221 114.589 54.26 115.055 53.5263C115.304 53.1405 115.615 52.7986 115.976 52.5146C115.315 52.8651 114.752 53.3763 114.341 54.0012C113.865 54.735 113.754 55.597 113.692 56.4471C113.62 57.4303 113.566 58.4134 113.501 59.3965C113.437 60.3796 113.358 61.2962 113.382 62.258C113.392 63.1627 113.569 64.0579 113.904 64.8986C114.06 65.5392 114.406 66.1182 114.896 66.5609C116.231 67.7198 118.102 67.6485 119.718 67.2401C120.656 67.0026 121.639 66.6488 122.391 66.0385C121.77 66.3636 121.111 66.6094 120.429 66.7699Z" fill="#F5C3C0"/>
<path d="M111.96 48.3783C110.794 49.4611 110.58 51.1661 110.91 52.3986C111.543 54.7401 114.347 56.1672 116.553 56.0984C118.267 56.0461 119.171 55.1034 119.816 55.6567C120.176 55.9701 120.238 56.5757 120.783 59.5963C120.802 59.6913 120.885 60.1377 121.066 60.1591C121.325 60.19 121.432 59.29 121.911 59.195C122.287 59.119 122.813 59.5512 122.879 59.9976C122.932 60.3562 122.641 60.4251 122.403 61.2443C122.28 61.6504 122.291 61.819 122.12 61.9567C121.882 62.1657 121.511 62.1348 121.235 62.0778C121.342 62.3153 121.53 62.7475 121.758 63.2842C122.353 64.6757 122.503 65.1103 122.846 65.1721C122.984 65.1982 123.277 65.1839 123.731 64.6496C123.969 63.9966 124.391 62.9185 124.94 61.5934C126.164 58.6345 126.756 57.6395 127.03 55.7398C127.404 53.1846 126.735 52.344 126.426 52.04C126.184 51.8075 125.895 51.6294 125.578 51.5176C125.284 50.9746 124.854 50.5171 124.329 50.1902C122.694 49.2118 121.404 50.4965 119.331 49.9099C117.32 49.3376 117.415 47.8083 115.423 47.4569C115.206 47.4118 113.321 47.1102 111.96 48.3783Z" fill="#5B1C10"/>
<path d="M123.26 49.8226C122.489 49.7395 121.739 49.9864 120.88 50.0482C121.758 50.1171 122.524 49.8938 123.26 49.8226Z" fill="#01496D"/>
<path d="M111.624 52.3938C111.294 51.1613 111.508 49.4563 112.674 48.3734C113.328 47.7894 114.163 47.4473 115.04 47.4046C114.373 47.3547 113.012 47.4046 111.96 48.3734C110.794 49.4563 110.58 51.1613 110.91 52.3938C111.543 54.7352 114.347 56.1624 116.553 56.0935L116.756 56.0817C114.649 55.9368 112.207 54.5524 111.624 52.3938Z" fill="#3F120A"/>
<path d="M122.472 63.2913C122.234 62.7546 122.056 62.3272 121.948 62.085C122.225 62.142 122.593 62.1728 122.834 61.9639C123.005 61.8143 122.993 61.6457 123.117 61.2515C123.355 60.4322 123.653 60.3633 123.593 60.0047C123.526 59.5583 123 59.1261 122.624 59.2021C122.534 59.2182 122.451 59.2612 122.386 59.3256C122.507 59.4012 122.612 59.5002 122.694 59.6169C122.775 59.7336 122.833 59.8655 122.862 60.0047C122.915 60.3633 122.624 60.4322 122.386 61.2515C122.263 61.6575 122.274 61.8261 122.103 61.9639C121.865 62.1728 121.494 62.142 121.218 62.085C121.325 62.3224 121.513 62.7546 121.741 63.2913C122.336 64.6829 122.486 65.1174 122.829 65.1792C122.914 65.1898 122.999 65.183 123.081 65.1593C123.163 65.1357 123.239 65.0955 123.305 65.0415C123.1 64.8206 122.903 64.3172 122.472 63.2913Z" fill="#3F120A"/>
<path d="M120.53 55.652C120.292 55.4383 119.997 55.4478 119.64 55.5428C119.704 55.5687 119.764 55.6057 119.816 55.652C120.175 55.9655 120.237 56.571 120.782 59.5916C120.801 59.6866 120.884 60.133 121.065 60.1544C121.246 60.1758 121.327 59.8433 121.491 59.5631C120.951 56.5686 120.889 55.9631 120.53 55.652Z" fill="#3F120A"/>
<path d="M105.681 94.535L108.52 93.1387C108.679 93.0621 108.861 93.0493 109.029 93.1031L118.49 96.2163C118.622 96.2599 118.738 96.3436 118.821 96.4556C118.904 96.5677 118.95 96.7027 118.952 96.8419C118.955 96.9812 118.914 97.1178 118.836 97.2328C118.757 97.3479 118.644 97.4358 118.514 97.4844L111.762 99.9754C111.655 100.014 111.541 100.026 111.429 100.009C111.318 99.9924 111.212 99.9482 111.121 99.8804L105.574 95.6725C105.482 95.6038 105.409 95.5126 105.362 95.4078C105.316 95.303 105.297 95.188 105.308 95.0738C105.318 94.9596 105.358 94.8502 105.424 94.7558C105.489 94.6615 105.577 94.5854 105.681 94.535Z" fill="#CCE2EC"/>
<path d="M118.514 97.0095L111.762 99.5006C111.656 99.5392 111.541 99.5508 111.429 99.5342C111.317 99.5176 111.21 99.4734 111.12 99.4056L105.574 95.1977C105.472 95.1225 105.395 95.0182 105.353 94.8984C105.3 95.0339 105.293 95.1828 105.333 95.3226C105.373 95.4623 105.458 95.5852 105.574 95.6726L111.122 99.8805C111.213 99.9483 111.319 99.9925 111.431 100.009C111.543 100.026 111.658 100.014 111.765 99.9755L118.517 97.4845C118.6 97.4541 118.677 97.4074 118.742 97.3473C118.807 97.2871 118.86 97.2146 118.897 97.134C118.934 97.0533 118.954 96.9662 118.957 96.8776C118.96 96.7889 118.946 96.7006 118.914 96.6177C118.88 96.7082 118.827 96.7902 118.758 96.858C118.689 96.9257 118.606 96.9774 118.514 97.0095Z" fill="#BFD5DD"/>
<path d="M97.8533 77.5867L107.866 82.9962C108.443 83.3074 108.935 83.7542 109.299 84.298C109.664 84.8417 109.89 85.4659 109.958 86.1165L111.374 99.6119C111.377 99.6518 111.369 99.6917 111.353 99.728C111.336 99.7642 111.31 99.7957 111.278 99.8193C111.245 99.843 111.208 99.8582 111.168 99.8634C111.128 99.8687 111.088 99.8638 111.05 99.8493L98.6982 94.0622L96.699 78.3893C96.6775 78.245 96.6967 78.0975 96.7546 77.9636C96.8125 77.8296 96.9068 77.7144 97.0268 77.631C97.1467 77.5475 97.2877 77.4992 97.4337 77.4914C97.5797 77.4835 97.7251 77.5165 97.8533 77.5867Z" fill="#CCE2EC"/>
<path d="M109.958 86.1125C109.89 85.4619 109.663 84.8376 109.299 84.2939C108.934 83.7502 108.442 83.3034 107.866 82.9922L97.853 77.5874C97.757 77.5353 97.6511 77.5038 97.5422 77.4948C97.4332 77.4859 97.3236 77.4997 97.2203 77.5355C97.117 77.5713 97.0224 77.6282 96.9424 77.7025C96.8624 77.7769 96.7989 77.8671 96.7559 77.9673C96.8897 77.9648 97.0219 77.9976 97.139 78.0623L107.152 83.4719C107.728 83.783 108.22 84.2299 108.585 84.7736C108.949 85.3173 109.176 85.9416 109.244 86.5922L110.612 99.6364L111.05 99.8406C111.087 99.8551 111.128 99.8599 111.168 99.8547C111.207 99.8494 111.245 99.8342 111.277 99.8106C111.31 99.7869 111.335 99.7554 111.352 99.7192C111.369 99.6829 111.377 99.643 111.374 99.6031L109.958 86.1125Z" fill="#BFD5DD"/>
<path d="M103.097 91.0017C103.632 91.0017 104.065 90.1979 104.065 89.2064C104.065 88.2149 103.632 87.4111 103.097 87.4111C102.562 87.4111 102.128 88.2149 102.128 89.2064C102.128 90.1979 102.562 91.0017 103.097 91.0017Z" fill="white"/>
<path d="M64.9021 110.816C65.1376 111.001 65.399 111.151 65.6779 111.26C65.5687 111.206 65.4678 111.136 65.3781 111.054C65.1883 110.837 64.9406 110.679 64.6641 110.598C64.7506 110.662 64.8303 110.735 64.9021 110.816Z" fill="#FF8189"/>
<path d="M32.1201 135.99H191.88" stroke="#5A9687" stroke-width="3.4398" stroke-linecap="round" stroke-linejoin="round"/>
</svg>
