<svg width="490" height="490" viewBox="0 0 490 490" fill="none" xmlns="http://www.w3.org/2000/svg">
<g clip-path="url(#clip0_664_248)">
<path d="M277.786 310.154C277.786 355.227 314.325 391.766 359.398 391.766C404.467 391.766 441.006 355.227 441.006 310.154C441.006 265.084 404.467 228.545 359.398 228.545C314.344 228.594 277.835 265.104 277.786 310.154ZM359.398 244.865C395.456 244.865 424.686 274.095 424.686 310.154C424.686 346.212 395.456 375.442 359.398 375.442C323.339 375.442 294.109 346.212 294.109 310.154C294.149 274.115 323.356 244.905 359.398 244.865Z" fill="#E8F1F1"/>
<path d="M312.764 473.378H406.038V489.698H312.764V473.378Z" fill="#E8F1F1"/>
<path d="M277.786 440.73H441.01V457.054H277.786V440.73Z" fill="#E8F1F1"/>
<path d="M98.2415 440.73H114.565V457.054H98.2415V440.73Z" fill="#E8F1F1"/>
<path d="M49.2767 457.054H65.5972V473.377H49.2767V457.054Z" fill="#E8F1F1"/>
<path d="M99.0565 394.808C141.67 320.59 168.408 238.33 177.574 153.241L253.473 228.69C254.991 230.201 257.042 231.054 259.186 231.063C259.627 231.067 260.071 231.03 260.506 230.958C263.094 230.537 265.319 228.897 266.488 226.553C281.874 195.845 275.848 158.733 251.537 134.471L244.864 127.794H302.267C306.774 127.797 310.432 124.146 310.432 119.639C310.435 118.756 310.29 117.881 310.014 117.048C299.175 84.4529 268.674 62.4729 234.325 62.5058H223.717L264.473 21.5121C267.654 18.3185 267.641 13.1528 264.447 9.97229C263.828 9.35661 263.117 8.843 262.336 8.4545C231.615 -6.94734 194.483 -0.925546 170.205 23.3987L162.412 31.1918C159.87 33.75 157.51 36.4761 155.337 39.3537C153.19 36.4761 150.846 33.75 148.324 31.1918L140.531 23.3987C116.272 -0.909084 79.1606 -6.93088 48.459 8.4545C44.4258 10.4694 42.7895 15.3718 44.8044 19.4017C45.1929 20.182 45.7065 20.8932 46.3222 21.5121L87.1249 62.5058H76.4114C42.0619 62.4729 11.5578 84.4529 0.722504 117.048C-0.706397 121.321 1.60157 125.944 5.8784 127.373C6.71138 127.652 7.58715 127.794 8.46952 127.794H65.8165L59.1428 134.471C34.8317 158.733 28.8067 195.845 44.1887 226.553C45.3608 228.897 47.5865 230.537 50.171 230.958C50.6089 231.03 51.0501 231.067 51.4946 231.063C53.6511 231.063 55.7187 230.211 57.2464 228.69L127.924 158.43C119.173 236.634 89.7193 311.088 42.5985 374.112C31.6282 371.231 20.5065 368.962 9.28603 367.323L4.18611 366.809L2.55308 383.057L7.31059 383.521C15.4724 384.69 23.5816 386.339 31.648 388.206C30.015 390.254 28.3819 392.335 26.6929 394.353L39.2106 404.823C101.928 330.257 139.316 237.684 145.977 140.476L155.37 131.142L162.402 138.135C153.822 242.093 118.139 341.988 58.9123 427.853L72.2795 437.207C78.6964 428.048 84.8169 418.542 90.7498 408.856C128.925 427.116 162.633 453.524 189.499 486.221L202.122 475.88C186.236 456.566 168.036 439.278 147.926 424.409H489.973V408.086H123.746C115.746 403.256 107.488 398.88 99.0565 394.808ZM256.19 208.359L169.962 122.628C192.017 116.043 215.907 122.019 232.264 138.214L240.057 146.011C256.384 162.308 262.56 186.188 256.19 208.359ZM289.815 111.474H222.242C206.504 103.983 188.748 101.863 171.69 105.442C183.566 88.7429 202.787 78.8262 223.279 78.8295H234.295C257.365 78.7933 278.631 91.2978 289.815 111.474ZM173.926 42.7317L181.722 34.9385C198.033 18.6083 221.922 12.4284 244.103 18.8025L195.725 67.4674C180.023 73.2456 166.544 83.8274 157.197 97.7048C153.401 77.7397 159.663 57.182 173.952 42.7317H173.926ZM128.968 34.9385L136.761 42.7317C140.396 46.4422 143.55 50.5972 146.148 55.0946C142.45 63.6911 140.34 72.8801 139.912 82.224C132.586 75.8235 124.148 70.8257 115.021 67.4674L66.633 18.8025C88.8073 12.4317 112.69 18.6115 128.991 34.9385H128.968ZM76.3851 78.8295H87.4048C107.91 78.8098 127.157 88.7232 139.046 105.432C121.998 101.866 104.249 103.987 88.5209 111.474H20.9214C32.1023 91.3077 53.3515 78.8065 76.4114 78.8295H76.3851ZM54.5466 208.359C48.1758 186.188 54.3557 162.308 70.6827 146.011L78.4758 138.214C90.2165 126.503 106.138 119.948 122.726 120.001C128.846 120.004 134.934 120.877 140.811 122.595L54.5466 208.359Z" fill="#E8F1F1"/>
</g>
<defs>
<clipPath id="clip0_664_248">
<rect width="490" height="490" fill="white"/>
</clipPath>
</defs>
</svg>
