<svg width="494" height="494" viewBox="0 0 494 494" fill="none" xmlns="http://www.w3.org/2000/svg">
<g opacity="0.1" clip-path="url(#clip0_658_59)">
<path d="M211.03 386.266L336.097 430.889L336.107 430.889C381.49 418.756 421.37 393.043 451.187 357.069L428.324 298.939C373.682 361.943 292.339 393.909 211.03 386.266Z" fill="#347474"/>
<path d="M378.433 445.997L474.262 480.201C485.707 484.289 496.783 472.979 492.292 461.585L462.831 386.666C438.698 412.339 409.77 432.416 378.433 445.997Z" fill="#347474"/>
<path d="M197.838 286.533L145.559 340.51C243.415 382.034 354.007 350.811 416.363 268.521L394.193 212.155C343.558 262.778 272.202 290.861 197.838 286.533Z" fill="#347474"/>
<path d="M225.187 258.296C285.549 255.149 342.205 227.934 382.628 182.774L382.628 182.765L366.383 141.452C362.584 131.803 350.083 129.345 342.903 136.759L225.187 258.296Z" fill="#347474"/>
<path d="M268.243 153.624C273.713 147.976 273.569 138.965 267.921 133.495C213.519 80.8025 229.241 28.3977 229.405 27.874C231.771 20.377 227.613 12.3805 220.116 10.0136C212.62 7.64563 204.622 11.8062 202.255 19.3033C201.365 22.125 181.211 89.1461 248.114 153.944C253.761 159.415 262.774 159.272 268.243 153.624Z" fill="#347474"/>
<path d="M158.978 245.971C92.0832 181.17 25.7344 203.461 22.9405 204.436C15.522 207.041 11.6275 215.171 14.2327 222.59C16.8378 229.999 24.9583 233.903 32.3768 231.298C32.896 231.119 84.7729 213.728 139.174 266.428C144.786 271.863 153.793 271.775 159.3 266.106C164.798 260.429 164.61 251.426 158.978 245.971Z" fill="#347474"/>
<path d="M188.693 215.297C194.34 220.766 203.352 220.622 208.821 214.975C214.242 209.38 214.171 200.43 208.586 194.929C204.805 187.635 218.182 164.593 205.3 152.112C192.552 139.765 170.406 153.453 162.517 150.248C159.053 142.455 172.034 119.892 159.287 107.546C146.539 95.196 124.393 108.885 116.503 105.681C113.038 97.8761 126.021 75.3253 113.273 62.9786C100.525 50.629 78.3792 64.318 70.4891 61.1136C67.0423 53.3554 79.9937 30.749 67.2586 18.4097C54.3761 5.93416 31.7317 20.0155 24.3587 16.4953C18.7069 11.1091 9.75845 11.2814 4.31572 16.8999C-1.15409 22.5463 -1.01013 31.5588 4.63724 37.0286C16.0351 48.0681 31.838 45.6204 43.1273 43.3263C41.195 54.6832 39.2532 70.5552 50.6501 81.5947C62.048 92.6342 77.8508 90.1864 89.1402 87.8924C87.2088 99.2492 85.2651 115.123 96.6639 126.162C108.062 137.201 123.865 134.752 135.154 132.458C133.222 143.817 131.279 159.689 142.677 170.728C154.075 181.767 169.878 179.319 181.167 177.025C179.236 188.383 177.295 204.258 188.693 215.297Z" fill="#347474"/>
<path d="M66.632 136.71C60.9846 131.24 51.973 131.384 46.5032 137.031C41.0334 142.679 41.1774 151.69 46.8248 157.16C52.4721 162.63 61.4837 162.486 66.9535 156.838C72.4233 151.191 72.2794 142.179 66.632 136.71Z" fill="#347474"/>
<path d="M169.999 44.4565C169.874 36.5957 163.399 30.325 155.539 30.4505C147.678 30.5761 141.407 37.0504 141.533 44.9112C141.658 52.7721 148.132 59.0427 155.993 58.9172C163.854 58.7916 170.125 52.3174 169.999 44.4565Z" fill="#347474"/>
<path d="M287.087 72.7869C292.734 78.2567 301.746 78.1128 307.215 72.4654C312.685 66.818 312.541 57.8064 306.894 52.3366C301.247 46.8668 292.235 47.0108 286.765 52.6581C281.295 58.3046 281.439 67.3171 287.087 72.7869Z" fill="#347474"/>
<path d="M89.0114 277.292C83.364 271.822 74.3524 271.966 68.8826 277.613C63.4128 283.261 63.5568 292.272 69.2042 297.742C74.8506 303.212 83.8631 303.068 89.3329 297.42C94.8027 291.773 94.6588 282.761 89.0114 277.292Z" fill="#347474"/>
</g>
<defs>
<clipPath id="clip0_658_59">
<rect width="485.922" height="485.922" fill="white" transform="translate(7.76074 493.621) rotate(-90.9151)"/>
</clipPath>
</defs>
</svg>
