<svg width="17" height="17" viewBox="0 0 17 17" fill="none" xmlns="http://www.w3.org/2000/svg">
<path d="M6.73091 10.9134L6.98759 10.9145C10.7156 10.9486 12.8249 11.7394 12.8249 13.8993C12.8249 16.0134 10.8034 16.829 7.23832 16.8973L6.73091 16.9021C2.84241 16.9021 0.637695 16.1258 0.637695 13.9161C0.637695 11.7036 2.85118 10.9134 6.73091 10.9134ZM6.73091 12.1779C3.50622 12.1779 1.84173 12.7721 1.84173 13.9161C1.84173 15.0529 3.50223 15.6376 6.73091 15.6376C9.95582 15.6376 11.6209 15.0432 11.6209 13.8993C11.6209 12.7631 9.95887 12.1779 6.73091 12.1779ZM13.149 10.3164C13.615 10.3497 14.0783 10.4198 14.5235 10.5235C15.4772 10.7227 16.1862 11.0946 16.511 11.8104C16.7509 12.3405 16.7509 12.9571 16.5111 13.487C16.188 14.2011 15.4864 14.5703 14.5273 14.7775C14.2017 14.8478 13.8834 14.6276 13.8164 14.2856C13.7494 13.9435 13.9591 13.6092 14.2848 13.5389C14.9019 13.4056 15.3127 13.1894 15.4236 12.9443C15.508 12.7577 15.508 12.5398 15.4238 12.3539C15.3122 12.1079 14.8993 11.8913 14.2759 11.7609C13.8767 11.6681 13.4731 11.607 13.0673 11.578C12.7355 11.5543 12.4849 11.2526 12.5075 10.9043C12.53 10.5559 12.8172 10.2927 13.149 10.3164ZM6.73091 0.833984C9.01699 0.833984 10.8527 2.7616 10.8527 5.16197C10.8527 7.56302 9.01714 9.4908 6.73091 9.4908C4.44479 9.4908 2.6099 7.56314 2.6099 5.16197C2.6099 2.76149 4.44493 0.833984 6.73091 0.833984ZM11.8912 1.73566C13.6851 1.73566 15.1396 3.26359 15.1396 5.1473C15.1396 7.03159 13.6853 8.55894 11.8912 8.55894C11.5587 8.55894 11.2891 8.27587 11.2891 7.92669C11.2891 7.5775 11.5587 7.29443 11.8912 7.29443C13.0204 7.29443 13.9356 6.33323 13.9356 5.1473C13.9356 3.9619 13.0201 3.00017 11.8912 3.00017C11.5587 3.00017 11.2891 2.7171 11.2891 2.36792C11.2891 2.01873 11.5587 1.73566 11.8912 1.73566ZM6.73091 2.09849C5.10995 2.09849 3.81394 3.45981 3.81394 5.16197C3.81394 6.86486 5.10984 8.22629 6.73091 8.22629C8.35217 8.22629 9.64868 6.86466 9.64868 5.16197C9.64868 3.46002 8.35207 2.09849 6.73091 2.09849Z" fill="#347474"/>
</svg>
