<svg width="379" height="141" viewBox="0 0 379 141" fill="none" xmlns="http://www.w3.org/2000/svg">
<path d="M18.6894 112.444C23.0689 118.667 25.0919 127.859 15.1102 141H330.891C339.35 137.362 350.109 131.497 352.344 123.533C355.122 113.707 342.217 110.323 342.184 99.9684C342.145 88.5055 357.868 87.3811 369.845 70.3041C375.592 62.1163 385.634 47.7932 372.668 38.6966C361.392 30.7818 344.613 35.1759 317.341 27.3293C282.327 17.2638 286.957 3.41281 263.708 0.437919C235.036 -3.2302 223.326 17.2365 177.53 21.213L177.33 21.2321L177.174 21.2458L176.235 21.3194C162.313 22.4112 151.097 21.4859 140.966 19.8102L140.454 19.7256L139.676 19.5918C117.228 15.7081 99.8715 8.40189 69.4984 12.0809C39.9422 15.6672 9.73584 28.249 7.39603 41.4695C5.40082 52.7386 25.0974 56.3303 21.5071 68.9177C18.1114 80.85 -1.15179 83.1098 0.0542297 93.5901C0.965698 101.45 12.1257 103.121 18.6894 112.444Z" fill="#E9F1F1"/>
<path d="M133.75 52.8072C131.319 50.695 129.093 48.3597 127.101 45.832C126.862 50.4167 127.529 55.0035 129.065 59.3318C131.445 65.9334 135.559 70.7417 145.234 78.7544C157.729 89.1 163.961 94.2699 173.642 98.9299C183.852 103.851 196.347 109.865 213.382 108.73C220.715 108.235 235.055 105.997 247.984 95.93C258.046 88.0981 263.13 78.8759 270.196 65.969C273.573 59.8023 276.526 53.4142 279.034 46.8488C275.193 51.8525 270.867 56.4667 266.117 60.6243C262.618 63.6865 253.247 71.7673 241.335 76.3591C224.675 82.7741 209.741 79.8067 190.867 76.0627C187.517 75.3987 176.29 71.5035 153.846 63.7161C148.474 61.8337 141.122 59.2073 133.75 52.8072Z" fill="#DC8942"/>
<path d="M275.033 51.8135C272.542 57.2394 269.396 62.3422 265.664 67.0089C262.41 71.079 245.961 90.7239 218.133 94.5094C218.011 94.5302 217.886 94.548 217.764 94.5628C201.291 96.712 188.862 92.2506 177.268 88.0886C173.338 86.6775 168.317 84.8278 162.881 82.0976C154.748 77.9978 145.686 71.8853 137.983 62.1918C134.661 58.0059 131.822 53.4605 129.52 48.6416C138.346 53.1818 147.546 56.9594 157.02 59.9329C165.377 62.6153 173.915 64.7006 182.57 66.1729C200.25 69.1255 224.014 70.1926 249.475 62.503C250.286 62.26 251.099 62.006 251.914 61.7412C259.913 59.155 267.653 55.8314 275.033 51.8135Z" fill="#F19B51"/>
<path d="M249.474 62.5039C248.674 63.8707 247.772 65.1757 246.776 66.408C244.351 69.5443 243.367 69.4109 241.942 71.978C239.913 75.6242 241.225 77.0975 239.371 79.057C237.223 81.3277 234.855 79.9967 231.514 82.0658C228.477 83.9512 228.12 86.4976 226.376 88.9936C224.383 91.8572 221.417 93.4609 218.133 94.5103C218.011 94.531 217.886 94.5488 217.764 94.5636C201.291 96.7128 188.862 92.2514 177.268 88.0894C173.338 86.6784 168.316 84.8286 162.881 82.0984C163.365 81.409 163.995 80.8333 164.725 80.4117C166.552 79.3534 168.343 79.8455 170.015 79.9582C174.775 80.2872 180.54 77.7319 182.406 73.7863C183.441 71.5956 183.108 69.319 182.858 67.6145C182.784 67.1294 182.685 66.6485 182.56 66.1738C195.948 68.4089 212.81 69.568 231.258 66.6629C230.387 68.8714 230.696 71.2755 231.353 71.5275C231.844 71.7142 232.285 70.6174 234.528 69.1174C236.039 68.1095 236.512 68.157 237.399 67.4633C238.167 66.8468 238.784 66.0629 239.202 65.1718C242.591 64.4347 246.015 63.5454 249.474 62.5039Z" fill="#DC8942"/>
<path d="M123.915 41.9843L123.047 42.7936L122.017 41.6938L117.977 37.3718C117.897 36.6959 117.799 36.0082 117.68 35.3115L122.895 40.8905L123.915 41.9843Z" fill="#347474"/>
<path d="M289.105 32.2492L282.387 43.1848L281.649 44.3883L280.638 43.7628L281.497 42.3607L288.129 31.5674C288.473 31.7661 288.8 31.9942 289.105 32.2492Z" fill="#347474"/>
<path d="M123.526 44.1248C124.457 44.1248 125.213 43.3723 125.213 42.444C125.213 41.5157 124.457 40.7632 123.526 40.7632C122.594 40.7632 121.839 41.5157 121.839 42.444C121.839 43.3723 122.594 44.1248 123.526 44.1248Z" fill="white"/>
<path d="M124.71 46.158C125.642 46.158 126.397 45.4055 126.397 44.4772C126.397 43.5489 125.642 42.7964 124.71 42.7964C123.779 42.7964 123.023 43.5489 123.023 44.4772C123.023 45.4055 123.779 46.158 124.71 46.158Z" fill="white"/>
<path d="M126.4 48.2151C127.331 48.2151 128.087 47.4626 128.087 46.5343C128.087 45.606 127.331 44.8535 126.4 44.8535C125.468 44.8535 124.713 45.606 124.713 46.5343C124.713 47.4626 125.468 48.2151 126.4 48.2151Z" fill="white"/>
<path d="M127.829 49.7713C128.761 49.7713 129.516 49.0187 129.516 48.0905C129.516 47.1622 128.761 46.4097 127.829 46.4097C126.898 46.4097 126.143 47.1622 126.143 48.0905C126.143 49.0187 126.898 49.7713 127.829 49.7713Z" fill="white"/>
<path d="M280.87 45.5916C281.802 45.5916 282.557 44.8391 282.557 43.9108C282.557 42.9825 281.802 42.23 280.87 42.23C279.939 42.23 279.184 42.9825 279.184 43.9108C279.184 44.8391 279.939 45.5916 280.87 45.5916Z" fill="white"/>
<path d="M279.912 47.741C280.844 47.741 281.599 46.9885 281.599 46.0602C281.599 45.1319 280.844 44.3794 279.912 44.3794C278.981 44.3794 278.226 45.1319 278.226 46.0602C278.226 46.9885 278.981 47.741 279.912 47.741Z" fill="white"/>
<path d="M278.457 49.9676C279.389 49.9676 280.144 49.215 280.144 48.2868C280.144 47.3585 279.389 46.606 278.457 46.606C277.526 46.606 276.771 47.3585 276.771 48.2868C276.771 49.215 277.526 49.9676 278.457 49.9676Z" fill="white"/>
<path d="M277.199 51.6658C278.13 51.6658 278.885 50.9133 278.885 49.985C278.885 49.0567 278.13 48.3042 277.199 48.3042C276.267 48.3042 275.512 49.0567 275.512 49.985C275.512 50.9133 276.267 51.6658 277.199 51.6658Z" fill="white"/>
<path d="M185.803 87.126L181.308 88.8365C180.699 89.0673 180.161 89.4527 179.747 89.9544C179.333 90.4562 179.058 91.0569 178.949 91.6971C177.759 98.6545 173.951 120.535 173.186 120.914C172.294 121.365 166.162 119.408 164.877 118.127C163.592 116.847 162.836 118.578 163.592 119.559C164.348 120.54 171.449 126.033 171.827 126.861C172.205 127.688 173.642 129.419 175.379 128.441C177.116 127.462 177.798 121.966 178.175 121.439C178.553 120.911 186.636 97.1693 186.636 97.1693L189.281 96.4579L187.844 87.123L185.803 87.126Z" fill="#F5C3C0"/>
<path d="M163.622 119.574C164.288 120.41 169.111 124.201 171.06 126.003C170 124.835 165.359 121.18 163.622 119.574Z" fill="#FF8189"/>
<path d="M189.281 96.4605L186.636 97.172C186.636 97.172 178.553 120.911 178.176 121.438C177.798 121.966 177.117 127.462 175.379 128.44C174.07 129.178 172.931 128.375 172.288 127.581C172.94 128.096 173.814 128.393 174.784 127.847C176.522 126.869 177.203 121.373 177.581 120.846C177.958 120.318 186.041 96.5762 186.041 96.5762L188.686 95.8647L189.177 95.7847L189.281 96.4605Z" fill="#F08175"/>
<path d="M179.91 76.5723L173.148 76.2758C172.442 76.2456 171.74 76.3927 171.106 76.7035C170.471 77.0142 169.926 77.4788 169.519 78.0545L152.487 102.09C152.487 102.09 144.404 99.3802 143.723 98.6272C143.041 97.8743 141.866 97.7379 141.887 98.7013C141.908 99.6648 148.03 104.731 149.086 106.234C150.143 107.737 150.75 110.977 153.168 109.616C155.587 108.256 156.869 104.921 158.606 102.863C160.344 100.806 175.522 85.2283 175.522 85.2283L179.149 85.6848L179.91 76.5723Z" fill="#F5C3C0"/>
<path d="M178.104 85.3294L174.927 84.9321C174.927 84.9321 159.755 100.516 158.002 102.57C156.25 104.624 154.995 107.968 152.573 109.323C152.164 109.6 151.662 109.707 151.175 109.619C151.678 110.014 152.308 110.115 153.168 109.619C155.584 108.265 156.869 104.924 158.606 102.867C160.344 100.809 175.522 85.2286 175.522 85.2286L178.2 85.5665L178.104 85.3294Z" fill="#F08175"/>
<path d="M210.693 73.5962L209.705 86.2007L209.342 86.2333L187.544 88.2017L181.318 86.6839L177.269 85.6968C180.996 79.9785 177.269 76.1722 177.269 76.1722L206.18 76.86L210.693 73.5962Z" fill="#80BDAE"/>
<path d="M209.342 86.2214L187.544 88.1898L181.317 86.672L206.733 79.7324L209.342 86.2214Z" fill="#2CA8B5"/>
<path d="M223.205 82.9693C223.205 83.2954 223.175 83.6096 223.143 83.9179C223.05 85.0171 222.8 86.0973 222.399 87.1254C219.861 93.5373 212.156 94.0976 210.692 94.0116C209.951 93.9671 205.694 94.5422 201.068 95.1974C194.886 96.0867 188.046 97.1568 188.046 97.1568C189.861 89.0789 183.715 87.4722 183.715 87.4722L207.354 79.0652L212.739 77.1473L215.527 74.1088L216.969 72.5317C216.969 72.5317 220.171 72.5792 221.994 76.1453C222.768 77.6779 223.294 79.8597 223.205 82.9693Z" fill="#80BDAE"/>
<path d="M222.399 87.1255C219.861 93.5374 212.156 94.0977 210.692 94.0117C209.952 93.9673 205.694 94.5424 201.068 95.1975C204.436 94.1007 208.366 92.9357 210.133 92.826C213.534 92.6007 216.33 92.9772 217.312 91.6966C218.294 90.4159 220.332 89.4881 221.165 88.1838C221.453 87.7096 221.885 87.339 222.399 87.1255Z" fill="#5A9687"/>
<path opacity="0.08" d="M189.356 78.2529C187.494 78.7806 186.807 77.9061 185.278 78.4041C184.088 78.7865 184.248 79.3883 182.657 80.159C180.94 80.995 180.116 80.6096 179.938 81.0632C179.343 82.6195 188.964 87.3121 190.868 88.2399C191.704 88.649 192.186 88.8625 192.882 88.9425C195.527 89.2389 196.975 87.1075 200.688 85.6313C201.789 85.1926 203.003 85.3348 204.77 84.576C205.39 84.2902 205.995 83.9726 206.582 83.6244C208.391 82.6135 209.292 82.1007 209.259 81.6916C209.212 81.0454 207.424 80.6926 206.451 80.4851C197.99 78.6857 194.096 75.6977 191.037 77.4496C190.52 77.7982 189.953 78.0688 189.356 78.2529Z" fill="black"/>
<path d="M223.205 82.9695C223.205 83.2956 223.176 83.6098 223.143 83.9181C222.666 83.9901 222.198 84.1093 221.745 84.2739C220.787 84.677 219.579 84.8282 217.714 82.7057C216.875 81.7512 212.216 80.3342 207.343 79.0654C201.393 77.5151 195.098 76.1811 195.098 76.1811L208.598 71.9302L215.515 74.109L221.983 76.1455C222.768 77.6781 223.295 79.8599 223.205 82.9695Z" fill="#5A9687"/>
<path d="M190.162 38.6552L187.642 35.8065L179.735 17.0005C179.735 17.0005 177.62 10.8138 177.569 10.5618C177.533 10.381 177.075 8.59052 176.822 7.61821C176.802 7.54015 176.766 7.46722 176.715 7.40421C176.665 7.3412 176.601 7.28953 176.529 7.25258C176.457 7.21564 176.379 7.19425 176.298 7.18983C176.217 7.1854 176.136 7.19804 176.061 7.22691C175.935 7.2782 175.832 7.37047 175.766 7.48849C175.701 7.60652 175.678 7.74324 175.701 7.87611L176.614 12.4175L173.889 8.14587C173.845 8.07753 173.787 8.01919 173.719 7.97468C173.651 7.93018 173.574 7.90052 173.494 7.88764C173.414 7.87476 173.332 7.87896 173.253 7.89996C173.174 7.92097 173.101 7.9583 173.038 8.0095L172.818 8.19033C172.711 8.27708 172.638 8.39948 172.614 8.53506C172.59 8.67065 172.616 8.81032 172.687 8.92846L175.364 13.375L174.639 12.8118C174.587 12.7719 174.523 12.7503 174.457 12.7503C174.391 12.7503 174.328 12.7719 174.276 12.8118L173.719 13.2298C173.686 13.2548 173.658 13.2866 173.637 13.3232C173.617 13.3597 173.604 13.4002 173.6 13.442C173.597 13.4837 173.602 13.5257 173.616 13.5653C173.63 13.6048 173.652 13.641 173.681 13.6715L173.874 13.879C173.909 13.9159 173.934 13.9613 173.947 14.0107C173.959 14.0601 173.959 14.1119 173.945 14.1611C173.932 14.2103 173.906 14.2551 173.87 14.2914C173.834 14.3277 173.789 14.3541 173.74 14.3681C173.695 14.3808 173.653 14.4039 173.619 14.4357C173.584 14.4675 173.558 14.507 173.541 14.551C173.525 14.595 173.52 14.6422 173.525 14.6887C173.531 14.7352 173.547 14.7798 173.574 14.8187L176.676 19.5024L181.918 37.5317C182.213 38.5514 182.707 39.5032 183.37 40.3331L184.685 41.9842L190.162 38.6552Z" fill="#F5C3C0"/>
<path d="M176.341 11.0452L177.209 12.4059L176.296 7.86447C176.275 7.75057 176.289 7.63304 176.337 7.52726C176.384 7.42148 176.462 7.33237 176.561 7.27159C176.487 7.22586 176.403 7.19778 176.317 7.18955C176.23 7.18132 176.142 7.19317 176.061 7.22416C175.936 7.27545 175.832 7.36772 175.767 7.48574C175.701 7.60376 175.678 7.74049 175.701 7.87336L176.341 11.0452Z" fill="#FF8189"/>
<path d="M175.225 12.7965L175.951 13.3597L173.273 8.91314C173.203 8.79484 173.177 8.65533 173.201 8.51991C173.225 8.38449 173.297 8.26213 173.404 8.17501L173.624 7.99419C173.646 7.97767 173.669 7.96281 173.693 7.94972C173.591 7.88763 173.473 7.85856 173.354 7.86652C173.235 7.87449 173.122 7.91911 173.029 7.99419L172.809 8.17501C172.702 8.26213 172.63 8.38449 172.606 8.51991C172.582 8.65533 172.608 8.79484 172.678 8.91314L174.975 12.7402C175.018 12.7304 175.063 12.7304 175.106 12.7401C175.15 12.7499 175.19 12.7691 175.225 12.7965Z" fill="#FF8189"/>
<path d="M183.954 40.3152C183.29 39.4854 182.797 38.5335 182.502 37.5138L177.26 19.4845L174.157 14.8008C174.131 14.7619 174.114 14.7174 174.109 14.6708C174.103 14.6243 174.109 14.5771 174.125 14.5331C174.141 14.4892 174.168 14.4497 174.202 14.4179C174.237 14.3861 174.279 14.3629 174.324 14.3502C174.373 14.3362 174.418 14.3098 174.454 14.2735C174.49 14.2373 174.515 14.1924 174.529 14.1432C174.542 14.0941 174.543 14.0423 174.53 13.9928C174.518 13.9434 174.493 13.8981 174.458 13.8611L174.264 13.6536C174.235 13.6232 174.213 13.587 174.199 13.5474C174.186 13.5079 174.18 13.4658 174.184 13.4241C174.188 13.3824 174.2 13.3419 174.221 13.3053C174.241 13.2687 174.269 13.2369 174.303 13.2119L174.74 12.8829L174.627 12.7969C174.575 12.757 174.511 12.7354 174.446 12.7354C174.38 12.7354 174.316 12.757 174.264 12.7969L173.708 13.2149C173.674 13.2399 173.646 13.2717 173.626 13.3083C173.605 13.3448 173.593 13.3853 173.589 13.4271C173.585 13.4688 173.591 13.5108 173.604 13.5504C173.618 13.5899 173.64 13.6261 173.669 13.6566L173.863 13.8641C173.898 13.901 173.923 13.9464 173.935 13.9958C173.948 14.0452 173.947 14.097 173.934 14.1462C173.92 14.1954 173.895 14.2402 173.859 14.2765C173.823 14.3128 173.778 14.3392 173.729 14.3532C173.684 14.3659 173.642 14.389 173.607 14.4208C173.573 14.4526 173.546 14.4921 173.53 14.5361C173.514 14.5801 173.508 14.6273 173.514 14.6738C173.519 14.7203 173.536 14.7649 173.562 14.8038L176.665 19.4875L181.907 37.5168C182.202 38.5364 182.695 39.4883 183.359 40.3181L184.674 41.9693L185.075 41.7292L183.954 40.3152Z" fill="#F08175"/>
<path d="M228.179 38.255L230.303 34.3243L228.566 16.0489L226.603 12.963L225.002 9.44133C224.975 9.3822 224.961 9.31804 224.96 9.25302C224.959 9.18801 224.973 9.12362 224.999 9.06403C225.025 9.00445 225.063 8.95102 225.111 8.90723C225.16 8.86345 225.217 8.83029 225.279 8.80992L225.383 8.77434C225.474 8.7441 225.572 8.74268 225.665 8.77027C225.757 8.79786 225.838 8.85312 225.897 8.92849L227.385 10.8168L226.293 4.53529C226.272 4.41428 226.3 4.28999 226.371 4.1895C226.442 4.089 226.55 4.02044 226.671 3.99874L226.864 3.96317C226.977 3.94313 227.092 3.965 227.189 4.0246C227.287 4.0842 227.358 4.17736 227.391 4.28628L228.745 8.78324L229.104 3.65784C229.109 3.59102 229.128 3.52603 229.161 3.46729C229.193 3.40856 229.238 3.35746 229.292 3.3175C229.346 3.27753 229.408 3.24964 229.473 3.23573C229.539 3.22182 229.607 3.22222 229.673 3.2369L229.97 3.30211C230.071 3.32499 230.161 3.38045 230.227 3.45983C230.292 3.53921 230.33 3.63802 230.333 3.74084L230.491 8.6528L231.731 4.50268C231.749 4.43669 231.782 4.37546 231.826 4.32337C231.871 4.27128 231.926 4.2296 231.989 4.2013C232.051 4.17299 232.119 4.15877 232.188 4.15962C232.257 4.16048 232.324 4.17639 232.386 4.20624L232.618 4.32185C232.712 4.36889 232.787 4.4458 232.832 4.54035C232.876 4.63489 232.888 4.74164 232.865 4.84359L231.833 9.24865L233.757 6.71707C233.798 6.6646 233.849 6.62132 233.908 6.59009C233.967 6.55886 234.031 6.54039 234.098 6.53591C234.164 6.53143 234.231 6.54103 234.293 6.56408C234.355 6.58713 234.412 6.62312 234.459 6.66964C234.527 6.73614 234.572 6.82146 234.589 6.91417C234.606 7.00689 234.594 7.10257 234.555 7.18841L233.136 10.3603L232.796 12.9927L231.966 14.8572L236.536 34.9172L234.195 40.5495L228.179 38.255Z" fill="#F5C3C0"/>
<path d="M231.072 8.64982L232.31 4.4997C232.339 4.40754 232.395 4.32605 232.47 4.26551L232.369 4.21511C232.308 4.18526 232.24 4.16935 232.171 4.16849C232.103 4.16764 232.035 4.18187 231.972 4.21017C231.91 4.23847 231.854 4.28016 231.81 4.33225C231.765 4.38434 231.733 4.44556 231.715 4.51155L231.013 6.86823L231.072 8.64982Z" fill="#FF8189"/>
<path d="M232.41 9.25155L234.335 6.71998C234.356 6.69316 234.38 6.66835 234.406 6.64587C234.358 6.60623 234.302 6.57664 234.242 6.55887C234.182 6.5411 234.12 6.53551 234.057 6.54242C233.995 6.54933 233.935 6.56861 233.881 6.59911C233.826 6.62961 233.778 6.67071 233.74 6.71998L232.675 8.12213L232.41 9.25155Z" fill="#FF8189"/>
<path d="M227.207 9.83937L227.972 10.8146L226.88 4.53313C226.861 4.42647 226.881 4.31673 226.935 4.22302C226.99 4.12931 227.075 4.05757 227.177 4.0203C227.082 3.96205 226.969 3.94094 226.859 3.96101L226.666 3.99658C226.544 4.01828 226.437 4.08684 226.366 4.18734C226.295 4.28784 226.267 4.41212 226.288 4.53313L227.207 9.83937Z" fill="#FF8189"/>
<path d="M229.332 8.78081L229.692 3.65539C229.697 3.5814 229.721 3.50985 229.76 3.44687C229.799 3.38389 229.853 3.33135 229.918 3.29374L229.665 3.23445C229.599 3.21978 229.531 3.21938 229.465 3.23329C229.4 3.2472 229.338 3.27509 229.284 3.31506C229.23 3.35502 229.185 3.40612 229.153 3.46485C229.121 3.52359 229.101 3.58858 229.097 3.65539L228.85 7.17708L229.332 8.78081Z" fill="#FF8189"/>
<path d="M228.774 38.2554L230.898 34.3246L229.161 16.0492L227.198 12.9633L225.597 9.44165C225.55 9.33495 225.545 9.21432 225.584 9.10422C225.622 8.99412 225.701 8.9028 225.805 8.84878C225.745 8.80447 225.676 8.77514 225.602 8.76327C225.529 8.75141 225.454 8.75735 225.383 8.7806L225.279 8.81617C225.217 8.83654 225.16 8.8697 225.111 8.91349C225.063 8.95727 225.025 9.0107 224.999 9.07028C224.973 9.12986 224.959 9.19427 224.96 9.25928C224.961 9.32429 224.975 9.38845 225.002 9.44758L226.603 12.9693L228.566 16.0552L230.303 34.3246L228.179 38.2554L234.195 40.5498L234.278 40.3541L228.774 38.2554Z" fill="#F08175"/>
<path d="M227.963 37.1255L224.934 41.9544C224.25 43.0446 223.284 43.9314 222.138 44.5218C220.992 45.1122 219.707 45.3845 218.419 45.3101L213.534 45.0285C213.534 45.0285 210.559 44.1659 208.018 45.2538C207.844 45.3328 207.675 45.4229 207.513 45.5236L200.007 45.8852C199.226 45.9219 198.447 45.7887 197.724 45.4948C197.001 45.2009 196.35 44.7535 195.818 44.1837L189.868 37.8132L183.725 41.907L189.377 49.6885C190.773 51.6053 192.274 53.444 193.872 55.1963C196.55 60.1024 199.227 65.8681 198.713 68.6042C198.171 71.6686 197.318 74.6702 196.166 77.5625C196.166 77.5625 201.72 77.5862 206.358 78.1376C207.177 78.3807 208.551 78.7779 210.259 79.2492C216.363 80.9271 218.122 81.1435 220.493 82.5812L220.519 82.599C220.922 82.8472 221.381 82.9896 221.854 83.013C222.327 83.0364 222.799 82.94 223.224 82.7327C223.65 82.5255 224.015 82.2142 224.287 81.828C224.559 81.4417 224.729 80.9931 224.78 80.5239C225.644 72.5616 226.509 64.6003 227.374 56.64L234.773 40.1432L227.963 37.1255Z" fill="#EE9087"/>
<path d="M201.791 46.7745L209.297 46.4247C209.46 46.3241 209.629 46.234 209.803 46.155C212.341 45.067 215.319 45.9297 215.319 45.9297L220.204 46.2113C221.492 46.2856 222.777 46.0133 223.923 45.4229C225.069 44.8325 226.035 43.9458 226.719 42.8556L229.748 38.0267L234.725 40.2173L234.763 40.1343L227.963 37.1255L224.934 41.9544C224.25 43.0446 223.284 43.9314 222.138 44.5218C220.992 45.1122 219.707 45.3845 218.419 45.3101L213.534 45.0285C213.534 45.0285 210.559 44.1659 208.018 45.2538C207.844 45.3328 207.675 45.4229 207.512 45.5236L200.006 45.8852C199.43 45.9117 198.854 45.8456 198.299 45.6896C199.299 46.4485 200.536 46.8326 201.791 46.7745Z" fill="#F08175"/>
<path d="M220.377 82.5044L220.484 82.5696L220.511 82.5874C220.747 82.7296 221.003 82.8375 221.269 82.9076C220.978 82.7623 220.683 82.6437 220.377 82.5044Z" fill="#01496D"/>
<path d="M196.157 77.5506C196.157 77.5506 196.99 77.5506 198.275 77.5891C199.247 74.9554 199.987 72.2427 200.489 69.4816C200.989 66.7454 198.326 60.9797 195.648 56.0737C194.05 54.3214 192.549 52.4827 191.153 50.5659L185.501 42.7844L191.058 39.0819L189.868 37.8013L183.725 41.8951L189.377 49.6766C190.773 51.5933 192.274 53.4321 193.872 55.1844C196.55 60.0904 199.227 65.8561 198.713 68.5922C198.168 71.657 197.312 74.6586 196.157 77.5506Z" fill="#F08175"/>
<path d="M129.32 107.248C127.893 105.968 126.77 104.389 126.031 102.624C125.293 100.859 124.957 98.952 125.048 97.0417C125.143 94.6771 125.722 92.3569 126.75 90.2236C128.079 87.4756 129.93 85.614 131.388 85.7059C132.845 85.7978 134.113 87.9796 134.839 90.3926C135.184 91.5285 135.411 92.6966 135.517 93.8787C135.532 94.0743 135.544 94.267 135.55 94.4716C135.823 101.548 130.189 106.498 129.32 107.248Z" fill="#80BDAE"/>
<path d="M135.55 94.4419C135.297 101.008 130.147 105.529 129.32 106.237C127.521 104.582 126.205 102.473 125.512 100.134C125.234 99.1261 125.078 98.089 125.048 97.0446C125.143 94.6801 125.722 92.3599 126.75 90.2266C127.898 91.3149 128.893 92.5535 129.707 93.9083C129.979 94.3766 130.222 94.8618 130.433 95.3609C131.552 93.4204 133.048 91.7214 134.833 90.3629C135.178 91.4988 135.405 92.667 135.511 93.849C135.532 94.0565 135.544 94.2492 135.55 94.4419Z" fill="#5A9687"/>
<path d="M131.171 86.2012C131.225 87.6004 131.207 88.9966 131.171 90.3898C131.136 91.7831 131.052 93.1734 130.966 94.5637C130.88 95.954 130.755 97.3443 130.603 98.7286C130.451 100.113 130.285 101.5 130.044 102.879C129.987 101.48 130.005 100.086 130.044 98.693C130.082 97.2998 130.163 95.9065 130.249 94.5162C130.335 93.1259 130.46 91.7386 130.612 90.3661C130.764 88.9936 130.93 87.5707 131.171 86.2012Z" fill="#004F80"/>
<path d="M129.32 107.248C127.517 105.592 126.201 103.478 125.512 101.133C124.539 97.6554 125.173 93.8729 126.428 90.9263C127.713 92.0935 128.816 93.4453 129.701 94.9371C129.974 95.4051 130.217 95.8903 130.427 96.3896C131.592 94.3592 133.171 92.5941 135.062 91.2079C135.28 92.0842 135.43 92.9762 135.508 93.8758C136.133 101.278 130.212 106.474 129.32 107.248Z" fill="#5A9687"/>
<path d="M122.454 90.0309C119.604 91.1692 118.908 100.869 123.817 106.483C125.453 108.303 127.553 109.647 129.895 110.372C130.374 109.299 133.465 102.072 129.713 95.6365C128.053 92.7966 124.531 89.2038 122.454 90.0309Z" fill="#80BDAE"/>
<path d="M122.567 90.6655C123.667 92.1675 124.645 93.7534 125.495 95.4085C126.349 97.0681 127.093 98.7823 127.72 100.54C128.346 102.297 128.855 104.094 129.246 105.917C129.64 107.741 129.894 109.592 130.005 111.455C129.606 109.64 129.187 107.841 128.705 106.06C128.223 104.278 127.675 102.52 127.048 100.789C126.42 99.0577 125.745 97.3443 124.992 95.6575C124.239 93.9708 123.403 92.3167 122.567 90.6655Z" fill="#004F80"/>
<path d="M129.345 110.186C129.556 110.091 129.821 109.978 130.121 109.836C130.181 109.685 130.249 109.513 130.321 109.317C130.35 109.234 130.383 109.151 130.41 109.068C130.502 108.813 130.597 108.528 130.692 108.217C130.713 108.137 130.74 108.057 130.764 107.974C130.883 107.568 130.999 107.123 131.103 106.643C131.124 106.545 131.148 106.45 131.165 106.347C131.183 106.243 131.207 106.148 131.225 106.05L131.279 105.754C131.293 105.68 131.302 105.606 131.317 105.531C131.332 105.457 131.344 105.365 131.353 105.282L131.397 104.986C131.415 104.826 131.436 104.663 131.454 104.5C131.454 104.393 131.475 104.283 131.481 104.174C131.499 103.987 131.514 103.794 131.522 103.599C131.522 103.507 131.522 103.409 131.522 103.302C131.522 103.098 131.522 102.896 131.522 102.695C131.522 102.434 131.522 102.173 131.505 101.909C131.505 101.713 131.481 101.518 131.463 101.316C131.463 101.209 131.445 101.103 131.433 100.996C131.421 100.889 131.409 100.791 131.395 100.7C131.38 100.608 131.368 100.522 131.359 100.427C131.35 100.332 131.326 100.222 131.305 100.13C131.284 100.038 131.276 99.9525 131.258 99.8606C131.24 99.7687 131.204 99.5998 131.177 99.4693L131.106 99.1522C131.073 99.0277 131.041 98.9061 131.005 98.7816C130.969 98.6571 130.919 98.4852 130.874 98.334C130.829 98.1828 130.776 98.0376 130.722 97.8804C130.669 97.7233 130.615 97.584 130.556 97.4328C130.382 96.9854 130.183 96.548 129.961 96.1226C128.556 98.1976 127.506 100.708 127.325 103.35C127.194 105.615 127.645 107.875 128.634 109.919L129.345 110.186Z" fill="#39B9CE"/>
<path d="M130.124 109.835C130.023 110.078 129.945 110.256 129.895 110.369C129.728 110.316 129.544 110.256 129.347 110.185C129.13 110.102 128.898 110.013 128.654 109.909C127.665 107.866 127.215 105.605 127.345 103.34C127.527 100.699 128.577 98.1913 129.981 96.1133C132.959 101.746 130.927 107.84 130.124 109.835Z" fill="#5A9687"/>
<path d="M139.127 90.7482C136.303 89.5417 128.928 95.9092 128.417 103.341C128.283 105.78 128.816 108.21 129.958 110.372C131.055 109.951 138.374 107.023 140.284 99.8251C141.123 96.6473 141.182 91.6257 139.127 90.7482Z" fill="#80BDAE"/>
<path d="M138.52 91.3882C137.239 92.7219 136.072 94.1597 135.03 95.6865C132.968 98.7244 131.51 102.129 130.737 105.715C130.353 107.519 130.119 109.351 130.038 111.193C129.837 109.335 129.888 107.459 130.19 105.614C130.333 104.688 130.532 103.772 130.785 102.869C131.051 101.964 131.365 101.073 131.728 100.201C132.472 98.4749 133.424 96.8454 134.563 95.3486C135.698 93.858 137.029 92.526 138.52 91.3882Z" fill="#004F80"/>
<path d="M139.295 128.843H121.263L118.699 111.765C118.647 111.428 118.67 111.083 118.764 110.755C118.859 110.426 119.024 110.122 119.247 109.864C119.471 109.605 119.748 109.397 120.059 109.254C120.371 109.112 120.709 109.038 121.052 109.038H139.497C139.84 109.038 140.179 109.111 140.491 109.253C140.803 109.396 141.08 109.603 141.304 109.862C141.528 110.121 141.693 110.426 141.787 110.754C141.882 111.082 141.905 111.427 141.853 111.765L139.295 128.843Z" fill="#004F80"/>
<path d="M121.08 112.358C121.028 112.021 121.051 111.676 121.145 111.348C121.24 111.019 121.405 110.715 121.628 110.456C121.852 110.197 122.128 109.99 122.44 109.847C122.751 109.705 123.09 109.631 123.433 109.631H141.075C140.641 109.25 140.082 109.039 139.504 109.038H121.059C120.716 109.038 120.377 109.112 120.066 109.254C119.754 109.397 119.477 109.605 119.254 109.864C119.031 110.122 118.866 110.426 118.771 110.755C118.677 111.083 118.654 111.428 118.706 111.765L121.27 128.843H123.561L121.08 112.358Z" fill="#01496D"/>
<path d="M266.332 125.298H269.563L267.641 129.042H266.07L266.332 125.298Z" fill="#004F80"/>
<path d="M283.675 125.298H280.441L282.366 129.042H283.937L283.675 125.298Z" fill="#004F80"/>
<path d="M286.132 97.1753H263.871C262.899 97.1753 262.112 97.9597 262.112 98.9272V123.549C262.112 124.517 262.899 125.301 263.871 125.301H286.132C287.103 125.301 287.891 124.517 287.891 123.549V98.9272C287.891 97.9597 287.103 97.1753 286.132 97.1753Z" fill="white"/>
<path d="M284.89 99.7275H265.118C264.569 99.7275 264.124 100.171 264.124 100.718V109.391C264.124 109.938 264.569 110.382 265.118 110.382H284.89C285.438 110.382 285.883 109.938 285.883 109.391V100.718C285.883 100.171 285.438 99.7275 284.89 99.7275Z" fill="#EDF3F4"/>
<path d="M284.89 112.092H265.118C264.569 112.092 264.124 112.535 264.124 113.082V121.756C264.124 122.302 264.569 122.746 265.118 122.746H284.89C285.438 122.746 285.883 122.302 285.883 121.756V113.082C285.883 112.535 285.438 112.092 284.89 112.092Z" fill="#EDF3F4"/>
<path d="M275.003 103.7C275.756 103.7 276.366 103.092 276.366 102.342C276.366 101.592 275.756 100.984 275.003 100.984C274.251 100.984 273.641 101.592 273.641 102.342C273.641 103.092 274.251 103.7 275.003 103.7Z" fill="white"/>
<path d="M275.003 116.47C275.756 116.47 276.366 115.862 276.366 115.112C276.366 114.362 275.756 113.754 275.003 113.754C274.251 113.754 273.641 114.362 273.641 115.112C273.641 115.862 274.251 116.47 275.003 116.47Z" fill="white"/>
<path d="M282.123 88.9517H280.219V88.7383C280.219 88.4065 280.087 88.0883 279.852 87.8537C279.616 87.6191 279.297 87.4873 278.964 87.4873H271.755C271.591 87.4873 271.427 87.5197 271.275 87.5825C271.123 87.6454 270.984 87.7375 270.868 87.8537C270.751 87.9699 270.659 88.1078 270.596 88.2595C270.532 88.4113 270.5 88.574 270.5 88.7383V93.7036C270.5 94.1601 270.591 94.612 270.767 95.0334C270.943 95.4548 271.201 95.8375 271.526 96.1594C271.851 96.4814 272.236 96.7363 272.66 96.9095C273.084 97.0827 273.538 97.1709 273.996 97.169H276.753C277.51 97.1687 278.245 96.9229 278.849 96.4688C279.452 96.0146 279.89 95.3769 280.097 94.6522H280.341C281.246 94.6506 282.114 94.2915 282.753 93.6535C283.393 93.0156 283.753 92.1509 283.754 91.2491V90.5584C283.753 90.346 283.711 90.1358 283.628 89.9399C283.546 89.7439 283.426 89.5662 283.274 89.4168C283.123 89.2675 282.943 89.1495 282.745 89.0697C282.548 88.9898 282.336 88.9498 282.123 88.9517ZM282.846 91.255C282.846 91.9212 282.581 92.5601 282.108 93.0315C281.636 93.5028 280.995 93.768 280.326 93.7688H280.264V89.841H282.123C282.218 89.8406 282.312 89.8589 282.4 89.8948C282.487 89.9306 282.567 89.9834 282.634 90.0501C282.701 90.1167 282.755 90.196 282.791 90.2832C282.828 90.3704 282.846 90.4639 282.846 90.5584V91.255Z" fill="#347474"/>
<path d="M271.393 94.2965V89.3311C271.393 88.9994 271.525 88.6812 271.76 88.4466C271.996 88.212 272.315 88.0802 272.648 88.0802H279.856C279.917 88.0816 279.978 88.0875 280.038 88.098C279.927 87.9123 279.77 87.7584 279.582 87.6514C279.394 87.5443 279.181 87.4878 278.964 87.4873H271.755C271.591 87.4873 271.427 87.5197 271.275 87.5825C271.123 87.6454 270.984 87.7375 270.868 87.8537C270.751 87.9699 270.659 88.1078 270.596 88.2595C270.532 88.4113 270.5 88.574 270.5 88.7383V93.7036C270.5 94.3661 270.691 95.0146 271.049 95.5725C271.408 96.1304 271.919 96.5743 272.523 96.8518C272.167 96.5276 271.882 96.1329 271.687 95.6929C271.493 95.2529 271.392 94.7773 271.393 94.2965Z" fill="#11493E"/>
<path d="M273.748 85.4542C273.656 85.4097 274.085 84.7457 274.275 83.8356C274.787 81.4404 273.085 80.0975 272.915 77.6638C272.85 76.7063 273.002 75.3308 274.049 73.5996C273.97 74.3114 273.958 75.0289 274.013 75.7429C274.275 79.2053 275.956 80.305 275.522 82.5609C275.185 84.2536 273.882 85.5253 273.748 85.4542Z" fill="#EDF3F4"/>
<path d="M277.137 82.8923C277.086 82.8656 277.327 82.4891 277.434 81.9733C277.732 80.6126 276.759 79.8508 276.661 78.4694C276.627 77.6512 276.853 76.8431 277.306 76.1602C277.26 76.5647 277.253 76.9727 277.285 77.3785C277.434 79.3439 278.386 79.9694 278.142 81.247C277.961 82.2104 277.214 82.9397 277.137 82.8923Z" fill="#EDF3F4"/>
<path d="M207.49 43.5144L207.192 47.2347C207.161 47.6098 207.214 47.987 207.346 48.3395C207.478 48.6921 207.687 49.0112 207.957 49.2742C208.314 49.6211 208.764 49.8571 209.253 49.9534C209.742 50.0497 210.249 50.0022 210.712 49.8167L212.895 48.9274C213.345 48.7468 213.733 48.4434 214.017 48.0521C214.301 47.6608 214.468 47.1977 214.499 46.7159L214.796 41.9492L207.49 43.5144Z" fill="#F5C3C0"/>
<path d="M213.187 48.3519L211.003 49.2413C210.597 49.4046 210.156 49.4616 209.721 49.4069C209.286 49.3523 208.873 49.1877 208.52 48.9289C208.168 48.6701 207.887 48.3257 207.706 47.9285C207.524 47.5312 207.448 47.0943 207.484 46.6593L207.743 43.4785L207.49 43.5319L207.192 47.2522C207.156 47.6872 207.233 48.1241 207.414 48.5214C207.596 48.9186 207.876 49.263 208.229 49.5218C208.582 49.7806 208.995 49.9451 209.429 49.9998C209.864 50.0545 210.305 49.9974 210.712 49.8341L212.895 48.9448C213.237 48.8077 213.545 48.5988 213.798 48.3322C214.051 48.0657 214.243 47.7478 214.362 47.4004C214.075 47.8281 213.666 48.1597 213.187 48.3519Z" fill="#F5C3C0"/>
<path d="M217.955 28.8638C217.485 27.9279 216.873 27.07 216.14 26.3204C215.429 25.5733 214.62 24.8382 213.611 24.5417C212.525 24.2216 211.353 24.3639 210.252 24.5269C209.146 24.6651 208.071 24.9877 207.072 25.4815C206.203 25.9237 205.464 26.5824 204.927 27.3935C204.332 28.3095 204.192 29.3855 204.115 30.4468C204.026 31.674 203.957 32.9013 203.877 34.1285C203.797 35.3558 203.698 36.5 203.728 37.7006C203.738 38.8359 203.959 39.9596 204.38 41.0148C204.576 41.8144 205.008 42.5371 205.62 43.0898C207.289 44.5364 209.628 44.4475 211.648 43.9376C213.477 43.4782 215.441 42.6659 216.241 40.825C216.64 39.9031 216.741 38.8952 216.892 37.9111C216.956 37.4193 217.055 36.9328 217.19 36.4556C217.366 35.9382 217.597 35.4413 217.88 34.9734C218.423 34.0397 218.706 32.9784 218.698 31.8993C218.676 30.8455 218.422 29.8094 217.955 28.8638Z" fill="#F5C3C0"/>
<path d="M212.537 43.3508C210.517 43.8607 208.179 43.9437 206.51 42.503C205.897 41.9503 205.465 41.2276 205.269 40.4279C204.851 39.3763 204.631 38.2568 204.621 37.1256C204.591 35.9399 204.695 34.7541 204.769 33.5535C204.844 32.353 204.918 31.099 205.007 29.8718C205.085 28.8105 205.236 27.7345 205.82 26.8185C206.13 26.3369 206.519 25.9101 206.971 25.5557C206.144 25.9931 205.441 26.6313 204.927 27.4114C204.332 28.3273 204.192 29.4034 204.115 30.4647C204.026 31.6919 203.957 32.9192 203.877 34.1464C203.797 35.3737 203.698 36.5179 203.728 37.7185C203.74 38.8478 203.961 39.9653 204.38 41.0149C204.576 41.8145 205.008 42.5373 205.62 43.0899C207.289 44.5366 209.628 44.4476 211.648 43.9378C212.82 43.6413 214.048 43.1996 214.988 42.4378C214.213 42.8436 213.389 43.1504 212.537 43.3508Z" fill="#F5C3C0"/>
<path d="M201.95 20.3918C200.492 21.7436 200.224 23.872 200.638 25.4105C201.429 28.3334 204.934 30.115 207.692 30.029C209.834 29.9638 210.964 28.7869 211.77 29.4776C212.22 29.8689 212.297 30.6249 212.978 34.3955C213.002 34.5141 213.106 35.0714 213.332 35.0981C213.657 35.1366 213.79 34.0131 214.388 33.8946C214.858 33.7997 215.516 34.3392 215.599 34.8965C215.665 35.3441 215.302 35.4301 215.004 36.4528C214.849 36.9597 214.864 37.1702 214.65 37.3421C214.353 37.603 213.889 37.5645 213.543 37.4933C213.677 37.7897 213.912 38.3293 214.198 38.9992C214.942 40.7363 215.129 41.2788 215.558 41.3559C215.73 41.3885 216.096 41.3707 216.664 40.7037C216.962 39.8885 217.488 38.5427 218.176 36.8886C219.705 33.195 220.445 31.9529 220.788 29.5814C221.255 26.3917 220.419 25.3423 220.032 24.9629C219.73 24.6727 219.369 24.4503 218.973 24.3107C218.605 23.6329 218.067 23.0618 217.411 22.6537C215.367 21.4323 213.755 23.0361 211.163 22.3039C208.65 21.5894 208.769 19.6804 206.279 19.2417C206.008 19.1853 203.652 18.8089 201.95 20.3918Z" fill="#5B1C10"/>
<path d="M216.075 22.1945C215.111 22.0907 214.174 22.399 213.1 22.4761C214.197 22.5621 215.155 22.2834 216.075 22.1945Z" fill="#01496D"/>
<path d="M201.53 25.4045C201.117 23.866 201.385 21.7375 202.842 20.3858C203.66 19.6567 204.704 19.2297 205.8 19.1763C204.967 19.1141 203.265 19.1763 201.95 20.3858C200.492 21.7375 200.224 23.866 200.638 25.4045C201.429 28.3273 204.934 30.1089 207.692 30.023L207.945 30.0081C205.312 29.8273 202.259 28.0991 201.53 25.4045Z" fill="#3F120A"/>
<path d="M215.09 39.0081C214.793 38.3382 214.57 37.8046 214.436 37.5022C214.781 37.5734 215.242 37.6119 215.542 37.3511C215.757 37.1643 215.742 36.9538 215.897 36.4617C216.194 35.439 216.566 35.3531 216.492 34.9054C216.408 34.3481 215.751 33.8086 215.281 33.9035C215.168 33.9235 215.064 33.9773 214.983 34.0576C215.134 34.152 215.265 34.2756 215.367 34.4213C215.469 34.5669 215.541 34.7316 215.578 34.9054C215.644 35.3531 215.281 35.439 214.983 36.4617C214.828 36.9687 214.843 37.1791 214.629 37.3511C214.332 37.6119 213.868 37.5734 213.522 37.5022C213.656 37.7987 213.891 38.3382 214.177 39.0081C214.921 40.7453 215.108 41.2877 215.537 41.3648C215.642 41.378 215.75 41.3696 215.852 41.34C215.954 41.3105 216.049 41.2604 216.132 41.1929C215.876 40.9172 215.629 40.2887 215.09 39.0081Z" fill="#3F120A"/>
<path d="M212.662 29.4714C212.365 29.2046 211.996 29.2165 211.55 29.3351C211.631 29.3675 211.705 29.4136 211.77 29.4714C212.219 29.8627 212.297 30.6187 212.978 34.3893C213.002 34.5079 213.106 35.0652 213.332 35.0919C213.558 35.1186 213.659 34.7036 213.864 34.3538C213.189 30.6157 213.112 29.8598 212.662 29.4714Z" fill="#3F120A"/>
<path d="M194.101 78.0101L197.65 76.267C197.849 76.1713 198.077 76.1554 198.287 76.2225L210.112 80.1088C210.278 80.1633 210.423 80.2677 210.526 80.4076C210.63 80.5475 210.687 80.716 210.69 80.8898C210.694 81.0636 210.643 81.2342 210.544 81.3778C210.446 81.5215 210.306 81.6312 210.142 81.6918L201.702 84.8014C201.569 84.8497 201.427 84.8641 201.287 84.8434C201.147 84.8227 201.015 84.7675 200.902 84.6829L193.967 79.43C193.852 79.3442 193.761 79.2304 193.703 79.0996C193.645 78.9687 193.621 78.8252 193.635 78.6826C193.648 78.5401 193.698 78.4035 193.78 78.2857C193.861 78.1679 193.972 78.073 194.101 78.0101Z" fill="#CCE2EC"/>
<path d="M210.143 81.0992L201.703 84.2088C201.57 84.2571 201.426 84.2715 201.286 84.2508C201.146 84.2301 201.013 84.1749 200.9 84.0902L193.968 78.8374C193.84 78.7436 193.743 78.6134 193.691 78.4639C193.625 78.633 193.617 78.8189 193.667 78.9933C193.717 79.1677 193.822 79.3212 193.968 79.4303L200.903 84.6831C201.016 84.7678 201.149 84.8229 201.289 84.8436C201.429 84.8643 201.573 84.8499 201.706 84.8017L210.146 81.6921C210.25 81.6541 210.346 81.5959 210.428 81.5208C210.509 81.4457 210.575 81.3552 210.621 81.2545C210.668 81.1539 210.693 81.0451 210.697 80.9345C210.701 80.8238 210.682 80.7136 210.643 80.6101C210.6 80.7231 210.534 80.8255 210.447 80.91C210.361 80.9945 210.257 81.0591 210.143 81.0992Z" fill="#BFD5DD"/>
<path d="M184.317 56.8538L196.833 63.6066C197.554 63.9951 198.168 64.5529 198.624 65.2316C199.08 65.9104 199.363 66.6896 199.448 67.5018L201.218 84.3483C201.221 84.3981 201.212 84.448 201.191 84.4932C201.17 84.5385 201.138 84.5777 201.097 84.6073C201.057 84.6369 201.01 84.6558 200.96 84.6623C200.91 84.6689 200.86 84.6628 200.813 84.6448L185.373 77.4206L182.874 57.8557C182.847 57.6756 182.871 57.4915 182.944 57.3243C183.016 57.157 183.134 57.0132 183.284 56.9091C183.434 56.8049 183.61 56.7446 183.792 56.7348C183.975 56.725 184.157 56.7662 184.317 56.8538Z" fill="#CCE2EC"/>
<path d="M199.448 67.4953C199.362 66.6831 199.08 65.9039 198.624 65.2251C198.168 64.5464 197.553 63.9886 196.833 63.6001L184.317 56.8532C184.197 56.7882 184.064 56.7488 183.928 56.7377C183.792 56.7265 183.655 56.7438 183.526 56.7884C183.397 56.8331 183.278 56.9041 183.178 56.9969C183.079 57.0898 182.999 57.2023 182.945 57.3275C183.113 57.3244 183.278 57.3653 183.424 57.4461L195.94 64.1989C196.661 64.5874 197.276 65.1452 197.732 65.8239C198.187 66.5027 198.47 67.2819 198.555 68.0941L200.266 84.3774L200.813 84.6324C200.86 84.6504 200.91 84.6565 200.96 84.6499C201.01 84.6434 201.057 84.6244 201.097 84.5949C201.138 84.5653 201.17 84.5261 201.191 84.4808C201.212 84.4355 201.221 84.3857 201.218 84.3359L199.448 67.4953Z" fill="#BFD5DD"/>
<path d="M190.871 73.5993C191.54 73.5993 192.082 72.596 192.082 71.3582C192.082 70.1205 191.54 69.1172 190.871 69.1172C190.202 69.1172 189.66 70.1205 189.66 71.3582C189.66 72.596 190.202 73.5993 190.871 73.5993Z" fill="white"/>
<path d="M143.128 98.3342C143.422 98.5652 143.749 98.752 144.097 98.8886C143.961 98.8206 143.835 98.7338 143.723 98.6307C143.485 98.3604 143.176 98.163 142.83 98.0615C142.938 98.1422 143.038 98.2336 143.128 98.3342Z" fill="#FF8189"/>
<path d="M102.15 129.76H301.85" stroke="#5A9687" stroke-width="3.4398" stroke-linecap="round" stroke-linejoin="round"/>
</svg>
