<svg width="132" height="27" viewBox="0 0 132 27" fill="none" xmlns="http://www.w3.org/2000/svg">
<path d="M6.19972 15.27L17.0492 21L27.8987 15.27V21.27L17.0492 27L6.19972 21.27V15.27ZM17.0492 0L34.0985 9V21H30.9986V10.635L17.0492 18L0 9L17.0492 0ZM52.4998 9.65211C52.2511 9.37131 51.9609 9.15403 51.6293 9.00026C51.2977 8.84648 50.9523 8.7696 50.5931 8.7696C50.22 8.7696 49.885 8.88326 49.5879 9.11057C49.2909 9.33789 49.1423 9.71228 49.1423 10.2338C49.1423 10.675 49.2943 11.0193 49.5983 11.2667C49.9023 11.5141 50.3513 11.7849 50.9454 12.079C51.277 12.2395 51.6259 12.43 51.992 12.6507C52.3581 12.8713 52.6932 13.1421 52.9972 13.463C53.3011 13.7839 53.5533 14.1683 53.7536 14.6163C53.9539 15.0642 54.0541 15.5957 54.0541 16.2108C54.0541 16.973 53.9298 17.6449 53.6811 18.2265C53.4324 18.8082 53.0973 19.2896 52.6759 19.6707C52.2545 20.0517 51.7675 20.3392 51.2148 20.5331C50.6622 20.727 50.0888 20.8239 49.4947 20.8239C48.6104 20.8239 47.8056 20.6635 47.0802 20.3426C46.3549 20.0217 45.7711 19.6473 45.329 19.2194L47.0284 16.8125C47.3462 17.1334 47.7123 17.3908 48.1268 17.5847C48.5413 17.7786 48.9627 17.8755 49.391 17.8755C49.7917 17.8755 50.1302 17.7485 50.4066 17.4945C50.6829 17.2404 50.8211 16.8861 50.8211 16.4314C50.8211 15.9634 50.6553 15.5924 50.3237 15.3183C49.9921 15.0441 49.5085 14.7533 48.8729 14.4458C48.4722 14.2586 48.0957 14.0513 47.7434 13.824C47.3911 13.5967 47.0802 13.3226 46.8108 13.0017C46.5414 12.6807 46.3307 12.3063 46.1787 11.8785C46.0267 11.4506 45.9507 10.9425 45.9507 10.3541C45.9507 9.5652 46.0854 8.8866 46.3549 8.31831C46.6243 7.75003 46.9766 7.28537 47.4118 6.92434C47.847 6.56331 48.3306 6.29589 48.8626 6.12206C49.3945 5.94823 49.9299 5.86131 50.4687 5.86131C51.2701 5.86131 51.9885 5.98834 52.6241 6.2424C53.2597 6.49646 53.7916 6.84411 54.2199 7.28537L52.4998 9.65211ZM60.6031 8.97017V20.4429H57.3494V8.97017H54.6551V6.2424H63.2974V8.97017H60.6031ZM71.0899 20.4429L70.4889 17.8555H67.1936L66.5926 20.4429H63.2766L66.8413 6.2424H71.007L74.5509 20.4429H71.0899ZM68.8931 9.3312H68.8102L67.5667 15.3684H70.0744L68.8931 9.3312ZM85.162 19.6005C84.6922 19.9481 84.1258 20.2289 83.4626 20.4429C82.7994 20.6568 82.0188 20.7638 81.1207 20.7638C80.195 20.7638 79.3694 20.5833 78.6441 20.2222C77.9187 19.8612 77.3039 19.3564 76.7996 18.7079C76.2952 18.0594 75.9084 17.2805 75.639 16.3713C75.3695 15.462 75.2348 14.4525 75.2348 13.3426C75.2348 12.2328 75.3695 11.2199 75.639 10.304C75.9084 9.38802 76.2918 8.59912 76.7892 7.93723C77.2866 7.27534 77.8842 6.76389 78.5819 6.40286C79.2796 6.04183 80.0568 5.86131 80.9134 5.86131C81.9082 5.86131 82.7407 6.02511 83.4108 6.35271C84.0809 6.68032 84.6093 7.09148 84.9962 7.58623L83.1932 9.93291C82.6958 9.26434 82.0188 8.93006 81.1621 8.93006C80.7062 8.93006 80.3124 9.04706 79.9808 9.28106C79.6492 9.51506 79.3729 9.83263 79.1518 10.2338C78.9308 10.6349 78.7684 11.1029 78.6648 11.6378C78.5612 12.1726 78.5094 12.7409 78.5094 13.3426C78.5094 13.9443 78.5577 14.5126 78.6544 15.0475C78.7511 15.5823 78.9066 16.0503 79.1207 16.4515C79.3349 16.8526 79.6043 17.1735 79.929 17.4142C80.2537 17.6549 80.644 17.7753 81.1 17.7753C81.5973 17.7753 81.9842 17.675 82.2605 17.4744V14.8269H80.6855V12.0389H85.162V19.6005ZM87.4417 20.4429V6.2424H94.5296V9.07046H90.6126V11.8584H94.2187V14.5059H90.6126V17.5747H94.7783V20.4429H87.4417ZM107.379 20.4429L106.778 17.8555H103.483L102.882 20.4429H99.5657L103.13 6.2424H107.296L110.84 20.4429H107.379ZM105.182 9.3312H105.099L103.856 15.3684H106.363L105.182 9.3312ZM121.182 10.6951C121.182 11.484 121.057 12.1659 120.809 12.7409C120.56 13.3159 120.228 13.7906 119.814 14.165C119.399 14.5394 118.93 14.8168 118.405 14.9973C117.88 15.1779 117.348 15.2681 116.809 15.2681H115.379V20.4429H112.125V6.2424H116.684C117.209 6.2424 117.738 6.31594 118.27 6.46303C118.802 6.61012 119.285 6.85414 119.721 7.19511C120.156 7.53609 120.508 7.99405 120.778 8.56903C121.047 9.144 121.182 9.85268 121.182 10.6951ZM118.073 10.7553C118.073 10.1134 117.914 9.65211 117.596 9.37131C117.279 9.09051 116.892 8.95012 116.436 8.95012H115.379V12.6607H116.436C116.892 12.6607 117.279 12.4969 117.596 12.1693C117.914 11.8417 118.073 11.3703 118.073 10.7553ZM132 10.6951C132 11.484 131.876 12.1659 131.627 12.7409C131.378 13.3159 131.047 13.7906 130.632 14.165C130.218 14.5394 129.748 14.8168 129.223 14.9973C128.698 15.1779 128.166 15.2681 127.627 15.2681H126.197V20.4429H122.943V6.2424H127.503C128.028 6.2424 128.556 6.31594 129.088 6.46303C129.62 6.61012 130.104 6.85414 130.539 7.19511C130.974 7.53609 131.326 7.99405 131.596 8.56903C131.865 9.144 132 9.85268 132 10.6951ZM128.891 10.7553C128.891 10.1134 128.732 9.65211 128.415 9.37131C128.097 9.09051 127.71 8.95012 127.254 8.95012H126.197V12.6607H127.254C127.71 12.6607 128.097 12.4969 128.415 12.1693C128.732 11.8417 128.891 11.3703 128.891 10.7553Z" fill="#38B3FF"/>
</svg>
